<?xml version="1.0" encoding="utf-8"?>
<!-- Generator: Adobe Illustrator 21.0.2, SVG Export Plug-In . SVG Version: 6.00 Build 0)  -->
<svg xmlns="http://www.w3.org/2000/svg" xmlns:xlink="http://www.w3.org/1999/xlink" version="1.1" id="Layer_1" x="0px" y="0px" viewBox="0 0 40 40" style="enable-background:new 0 0 40 40;" xml:space="preserve">
<g>
	<path style="fill:#FFFFFF;" d="M2.5,37.5v-35h35V35c0,1.4-1.1,2.5-2.5,2.5H2.5z"/>
	<g>
		<path style="fill:#788B9C;" d="M37,3v32c0,1.1-0.9,2-2,2H3V3H37 M38,2H2v36h33c1.7,0,3-1.3,3-3V2L38,2z"/>
	</g>
</g>
<g>
	<rect x="2.5" y="2.5" style="fill:#F78F8F;" width="35" height="5"/>
	<g>
		<path style="fill:#C74343;" d="M37,3v4H3V3H37 M38,2H2v6h36V2L38,2z"/>
	</g>
</g>
<rect x="13" y="14" style="fill:#C5D4DE;" width="2" height="2"/>
<rect x="21" y="14" style="fill:#C5D4DE;" width="2" height="2"/>
<rect x="25" y="14" style="fill:#C5D4DE;" width="2" height="2"/>
<rect x="29" y="14" style="fill:#C5D4DE;" width="2" height="2"/>
<rect x="9" y="18" style="fill:#C5D4DE;" width="2" height="2"/>
<rect x="13" y="18" style="fill:#C5D4DE;" width="2" height="2"/>
<rect x="21" y="18" style="fill:#C5D4DE;" width="2" height="2"/>
<rect x="25" y="18" style="fill:#C5D4DE;" width="2" height="2"/>
<rect x="29" y="18" style="fill:#C5D4DE;" width="2" height="2"/>
<rect x="9" y="26" style="fill:#C5D4DE;" width="2" height="2"/>
<rect x="13" y="26" style="fill:#C5D4DE;" width="2" height="2"/>
<rect x="21" y="26" style="fill:#C5D4DE;" width="2" height="2"/>
<rect x="17" y="14" style="fill:#C5D4DE;" width="2" height="2"/>
<rect x="17" y="18" style="fill:#C5D4DE;" width="2" height="2"/>
<rect x="9" y="22" style="fill:#C5D4DE;" width="2" height="2"/>
<rect x="13" y="22" style="fill:#C5D4DE;" width="2" height="2"/>
<rect x="21" y="22" style="fill:#C5D4DE;" width="2" height="2"/>
<rect x="25" y="22" style="fill:#C5D4DE;" width="2" height="2"/>
<rect x="29" y="22" style="fill:#C5D4DE;" width="2" height="2"/>
<rect x="17" y="22" style="fill:#C5D4DE;" width="2" height="2"/>
<rect x="17" y="26" style="fill:#C5D4DE;" width="2" height="2"/>
<rect x="25" y="26" style="fill:#C5D4DE;" width="2" height="2"/>
<rect x="3" y="34" style="fill:#E1EBF2;" width="34" height="3"/>
<g>
	<path style="fill:#BAE0BD;" d="M31,39.5c-4.7,0-8.5-3.8-8.5-8.5s3.8-8.5,8.5-8.5s8.5,3.8,8.5,8.5S35.7,39.5,31,39.5z"/>
	<g>
		<path style="fill:#5E9C76;" d="M31,23c4.4,0,8,3.6,8,8s-3.6,8-8,8s-8-3.6-8-8S26.6,23,31,23 M31,22c-5,0-9,4-9,9s4,9,9,9s9-4,9-9    S36,22,31,22L31,22z"/>
	</g>
</g>
<rect x="30" y="26" style="fill:#FFFFFF;" width="2" height="10"/>
<rect x="26" y="30" style="fill:#FFFFFF;" width="10" height="2"/>
</svg>
