<?xml version="1.0" encoding="iso-8859-1"?>
<!-- Generator: Adobe Illustrator 19.2.1, SVG Export Plug-In . SVG Version: 6.00 Build 0)  -->
<svg version="1.1" id="Layer_1" xmlns="http://www.w3.org/2000/svg" xmlns:xlink="http://www.w3.org/1999/xlink" x="0px" y="0px"
	 viewBox="0 0 40 40" style="enable-background:new 0 0 40 40;" xml:space="preserve">
<g>
	<rect x="2.5" y="2.5" style="fill:#FFC49C;" width="15" height="15"/>
	<g>
		<path style="fill:#A16A4A;" d="M17,3v14H3V3H17 M18,2H2v16h16V2L18,2z"/>
	</g>
</g>
<g>
	<rect x="22.5" y="22.5" style="fill:#BAE0BD;" width="15" height="15"/>
	<g>
		<path style="fill:#5E9C76;" d="M37,23v14H23V23H37 M38,22H22v16h16V22L38,22z"/>
	</g>
</g>
<g>
	<rect x="2.5" y="22.5" style="fill:#8BB7F0;" width="15" height="15"/>
	<g>
		<path style="fill:#4E7AB5;" d="M17,23v14H3V23H17 M18,22H2v16h16V22L18,22z"/>
	</g>
</g>
<g>
	
		<rect x="6.229" y="26.229" transform="matrix(0.7071 -0.7071 0.7071 0.7071 -18.2843 15.8579)" style="fill:#FFEEA3;" width="7.542" height="7.542"/>
</g>
<g>
	<rect x="6" y="26" style="fill:#FFEEA3;" width="8" height="8"/>
</g>
<polygon style="fill:#A16A4A;" points="12.897,9.894 10,12.584 13.985,17 17,17 17,13.712 "/>
<circle style="fill:#FFFFFF;" cx="14" cy="6" r="1.25"/>
<polygon style="fill:#E09367;" points="14.849,17 3,17 3,13.5 7.667,8.833 "/>
<path style="fill:#FFFFFF;" d="M30,30l-1.457-2.428C27.864,26.44,28.68,25,30,25h0c1.32,0,2.136,1.44,1.457,2.572L30,30z"/>
<path style="fill:#FFFFFF;" d="M30,30l1.457,2.428C32.136,33.56,31.32,35,30,35h0c-1.32,0-2.136-1.44-1.457-2.572L30,30z"/>
<path style="fill:#FFFFFF;" d="M30,30l-2.831,0.048c-1.32,0.022-2.16-1.404-1.5-2.548l0,0c0.66-1.143,2.315-1.129,2.956,0.025L30,30
	z"/>
<path style="fill:#FFFFFF;" d="M30,30l2.831-0.048c1.32-0.022,2.16,1.404,1.5,2.548l0,0c-0.66,1.143-2.315,1.129-2.956-0.025L30,30z
	"/>
<path style="fill:#FFFFFF;" d="M30,30l-1.374,2.475c-0.641,1.154-2.296,1.168-2.956,0.025l0,0c-0.66-1.143,0.179-2.57,1.5-2.548
	L30,30z"/>
<path style="fill:#FFFFFF;" d="M30,30l1.374-2.475c0.641-1.154,2.296-1.168,2.956-0.025l0,0c0.66,1.143-0.179,2.57-1.5,2.548L30,30z
	"/>
<circle style="fill:#FFEEA3;" cx="30" cy="30" r="2"/>
<circle style="fill:#FFFFFF;" cx="10" cy="30" r="2"/>
<g>
	<rect x="22.5" y="2.5" style="fill:#C2E8FF;" width="15" height="15"/>
	<g>
		<path style="fill:#7496C4;" d="M37,3v14H23V3H37 M38,2H22v16h16V2L38,2z"/>
	</g>
</g>
<path style="fill:#FFFFFF;" d="M33,11c-0.047,0-0.086,0.023-0.132,0.027c-0.248-0.579-0.822-0.986-1.493-0.986
	c-0.204,0-0.396,0.047-0.576,0.116C30.48,9.478,29.8,9,29,9c-1.105,0-2,0.895-2,2c-1.105,0-2,0.895-2,2c0,1.104,0.895,2,2,2
	s4.974,0,6,0c1.105,0,2-0.896,2-2C35,11.895,34.105,11,33,11z"/>
<circle style="fill:#FFFFFF;" cx="34" cy="6" r="1.25"/>
</svg>
