<?xml version="1.0" encoding="utf-8"?>
<!-- Generator: Adobe Illustrator 15.0.0, SVG Export Plug-In . SVG Version: 6.00 Build 0)  -->
<!DOCTYPE svg PUBLIC "-//W3C//DTD SVG 1.1//EN" "http://www.w3.org/Graphics/SVG/1.1/DTD/svg11.dtd">
<svg version="1.1"  xmlns="http://www.w3.org/2000/svg" xmlns:xlink="http://www.w3.org/1999/xlink" x="0px" y="0px"
	 width="48px" height="48px" viewBox="0 0 48 48" enable-background="new 0 0 48 48" xml:space="preserve">
<g>
	
		<rect x="16.565" y="19.434" transform="matrix(0.7071 0.7071 -0.7071 0.7071 22.9366 -12.5061)" fill="#546E7A" width="20" height="4.001"/>
	
		<rect x="12.475" y="23.525" transform="matrix(0.7071 0.7071 -0.7071 0.7071 24.6305 -8.4165)" fill="#546E7A" width="20" height="4"/>
</g>
<g>
	<polygon fill="#90A4AE" points="33.637,25.678 38,21.435 38,16 32,10 26.564,10 22.322,14.364 	"/>
	
		<rect x="35.75" y="6.24" transform="matrix(0.707 0.7072 -0.7072 0.707 18.3104 -23.6945)" fill="#90A4AE" width="4" height="8.021"/>
	<polygon fill="#90A4AE" points="26.718,32.596 22.475,36.96 17.04,36.96 11.04,30.96 11.04,25.524 15.404,21.282 	"/>
	
		<rect x="9.164" y="31.532" transform="matrix(0.707 0.7072 -0.7072 0.707 29.3227 2.8979)" fill="#90A4AE" width="4" height="10.607"/>
</g>
</svg>
