<?xml version="1.0"?>
<svg xmlns="http://www.w3.org/2000/svg" id="Layer_1" data-name="Layer 1" viewBox="0 0 64 64"><title>Icons8 RSL Colored Part 10</title><path d="M13,11V59a2,2,0,0,0,2,2H49a2,2,0,0,0,2-2V11a2,2,0,0,0-2-2H41.69A1.77,1.77,0,0,1,41,8.87a2,2,0,0,1-1.28-1.54l-.44-2.66a2,2,0,0,0-2-1.67H26.69a2,2,0,0,0-2,1.67l-.44,2.66A2,2,0,0,1,23,8.87a1.77,1.77,0,0,1-.69.13H15A2,2,0,0,0,13,11Z" style="fill:#c2cde7;"/><rect x="40" y="9" width="11" height="40" transform="translate(91 58) rotate(180)" style="fill:#b5c4e0;"/><rect x="13" y="9" width="11" height="40" transform="translate(37 58) rotate(180)" style="fill:#ced8ed;"/><path d="M41,8.87V9H23V8.87a2,2,0,0,0,1.28-1.54l.44-2.66a2,2,0,0,1,2-1.67H37.31a2,2,0,0,1,2,1.67l.44,2.66A2,2,0,0,0,41,8.87Z" style="fill:#ffeb9b;"/><path d="M14.87,33H48.82A2.18,2.18,0,0,1,51,35.18V61a0,0,0,0,1,0,0H13a0,0,0,0,1,0,0V34.87A1.87,1.87,0,0,1,14.87,33Z" transform="translate(64 94) rotate(180)" style="fill:#72caaf;"/><path d="M42,33h9a0,0,0,0,1,0,0V61a0,0,0,0,1,0,0H40a0,0,0,0,1,0,0V35A2,2,0,0,1,42,33Z" transform="translate(91 94) rotate(180)" style="fill:#5dbc9d;"/><path d="M13,33h9.4A1.6,1.6,0,0,1,24,34.6V61a0,0,0,0,1,0,0H13a0,0,0,0,1,0,0V33A0,0,0,0,1,13,33Z" transform="translate(37 94) rotate(180)" style="fill:#82d8bb;"/><path d="M49,8H41.69a1,1,0,0,1-1-.84l-.44-2.66a3,3,0,0,0-3-2.51H26.69a3,3,0,0,0-3,2.51l-.44,2.66a1,1,0,0,1-1,.84H15a3,3,0,0,0-3,3V59a3,3,0,0,0,3,3H49a3,3,0,0,0,3-3V11A3,3,0,0,0,49,8Zm1,51a1,1,0,0,1-1,1H15a1,1,0,0,1-1-1V34H39a1,1,0,0,0,0-2H14V11a1,1,0,0,1,1-1H36a1,1,0,0,0,0-2H25.13a3,3,0,0,0,.13-.51l.44-2.66a1,1,0,0,1,1-.84H37.31a1,1,0,0,1,1,.84l.44,2.66a3,3,0,0,0,3,2.51H49a1,1,0,0,1,1,1Z" style="fill:#8d6c9f;"/><path d="M17,54a1,1,0,0,0-1,1v2a1,1,0,0,0,2,0V55A1,1,0,0,0,17,54Z" style="fill:#8d6c9f;"/><path d="M22,54a1,1,0,0,0-1,1v2a1,1,0,0,0,2,0V55A1,1,0,0,0,22,54Z" style="fill:#8d6c9f;"/><path d="M27,54a1,1,0,0,0-1,1v2a1,1,0,0,0,2,0V55A1,1,0,0,0,27,54Z" style="fill:#8d6c9f;"/><path d="M32,54a1,1,0,0,0-1,1v2a1,1,0,0,0,2,0V55A1,1,0,0,0,32,54Z" style="fill:#8d6c9f;"/><path d="M37,54a1,1,0,0,0-1,1v2a1,1,0,0,0,2,0V55A1,1,0,0,0,37,54Z" style="fill:#8d6c9f;"/><path d="M42,54a1,1,0,0,0-1,1v2a1,1,0,0,0,2,0V55A1,1,0,0,0,42,54Z" style="fill:#8d6c9f;"/><path d="M47,54a1,1,0,0,0-1,1v2a1,1,0,0,0,2,0V55A1,1,0,0,0,47,54Z" style="fill:#8d6c9f;"/><path d="M47,32H43a1,1,0,0,0,0,2h4a1,1,0,0,0,0-2Z" style="fill:#8d6c9f;"/></svg>
