<?xml version="1.0" encoding="iso-8859-1"?>
<!-- Generator: Adobe Illustrator 19.1.1, SVG Export Plug-In . SVG Version: 6.00 Build 0)  -->
<svg version="1.1" id="Layer_1" xmlns="http://www.w3.org/2000/svg" xmlns:xlink="http://www.w3.org/1999/xlink" x="0px" y="0px"
	 viewBox="0 0 40 40" style="enable-background:new 0 0 40 40;" xml:space="preserve">
<g>
	<rect x="5.5" y="5.5" style="fill:#8BB7F0;" width="3" height="33"/>
	<path style="fill:#4E7AB5;" d="M8,6v32H6V6H8 M9,5H5v34h4V5L9,5z"/>
</g>
<g>
	<circle style="fill:#8BB7F0;" cx="7" cy="3" r="1.5"/>
	<g>
		<path style="fill:#4E7AB5;" d="M7,2c0.551,0,1,0.449,1,1S7.551,4,7,4S6,3.551,6,3S6.449,2,7,2 M7,1C5.895,1,5,1.895,5,3
			c0,1.105,0.895,2,2,2s2-0.895,2-2C9,1.895,8.105,1,7,1L7,1z"/>
	</g>
</g>
<g>
	<rect x="5.5" y="5.5" style="fill:#E1EBF2;" width="29" height="19"/>
	<path style="fill:#A3B7CC;" d="M34,6v18H6V6H34 M35,5H5v20h30V5L35,5z"/>
</g>
<g>
	<rect x="10.5" y="5.5" style="fill:#839CB2;" width="4" height="4"/>
	<g>
		<path style="fill:#66798F;" d="M14,6v3h-3V6H14 M15,5h-5v5h5V5L15,5z"/>
	</g>
</g>
<g>
	<rect x="15.5" y="10.5" style="fill:#839CB2;" width="4" height="4"/>
	<g>
		<path style="fill:#66798F;" d="M19,11v3h-3v-3H19 M20,10h-5v5h5V10L20,10z"/>
	</g>
</g>
<g>
	<rect x="30.5" y="5.5" style="fill:#839CB2;" width="4" height="4"/>
	<g>
		<path style="fill:#66798F;" d="M34,6v3h-3V6H34 M35,5h-5v5h5V5L35,5z"/>
	</g>
</g>
<g>
	<rect x="20.5" y="5.5" style="fill:#839CB2;" width="4" height="4"/>
	<g>
		<path style="fill:#66798F;" d="M24,6v3h-3V6H24 M25,5h-5v5h5V5L25,5z"/>
	</g>
</g>
<g>
	<rect x="25.5" y="10.5" style="fill:#839CB2;" width="4" height="4"/>
	<g>
		<path style="fill:#66798F;" d="M29,11v3h-3v-3H29 M30,10h-5v5h5V10L30,10z"/>
	</g>
</g>
<g>
	<rect x="10.5" y="15.5" style="fill:#839CB2;" width="4" height="4"/>
	<g>
		<path style="fill:#66798F;" d="M14,16v3h-3v-3H14 M15,15h-5v5h5V15L15,15z"/>
	</g>
</g>
<g>
	<rect x="15.5" y="20.5" style="fill:#839CB2;" width="4" height="4"/>
	<g>
		<path style="fill:#66798F;" d="M19,21v3h-3v-3H19 M20,20h-5v5h5V20L20,20z"/>
	</g>
</g>
<g>
	<rect x="5.5" y="10.5" style="fill:#839CB2;" width="4" height="4"/>
	<g>
		<path style="fill:#66798F;" d="M9,11v3H6v-3H9 M10,10H5v5h5V10L10,10z"/>
	</g>
</g>
<g>
	<rect x="5.5" y="20.5" style="fill:#839CB2;" width="4" height="4"/>
	<g>
		<path style="fill:#66798F;" d="M9,21v3H6v-3H9 M10,20H5v5h5V20L10,20z"/>
	</g>
</g>
<g>
	<rect x="30.5" y="15.5" style="fill:#839CB2;" width="4" height="4"/>
	<g>
		<path style="fill:#66798F;" d="M34,16v3h-3v-3H34 M35,15h-5v5h5V15L35,15z"/>
	</g>
</g>
<g>
	<rect x="20.5" y="15.5" style="fill:#839CB2;" width="4" height="4"/>
	<g>
		<path style="fill:#66798F;" d="M24,16v3h-3v-3H24 M25,15h-5v5h5V15L25,15z"/>
	</g>
</g>
<g>
	<rect x="25.5" y="20.5" style="fill:#839CB2;" width="4" height="4"/>
	<g>
		<path style="fill:#66798F;" d="M29,21v3h-3v-3H29 M30,20h-5v5h5V20L30,20z"/>
	</g>
</g>
</svg>
