<?xml version="1.0" encoding="iso-8859-1"?>
<!-- Generator: Adobe Illustrator 19.2.1, SVG Export Plug-In . SVG Version: 6.00 Build 0)  -->
<svg version="1.1" xmlns="http://www.w3.org/2000/svg" xmlns:xlink="http://www.w3.org/1999/xlink" x="0px" y="0px"
	 viewBox="0 0 40 40" style="enable-background:new 0 0 40 40;" xml:space="preserve">
<g id="Layer_1">
	
		<rect x="26.936" y="25.997" transform="matrix(0.9155 0.4023 -0.4023 0.9155 13.6775 -8.7263)" style="fill:#788B9C;" width="1.354" height="4.402"/>
	<g>
		<polygon style="fill:#8BB7F0;" points="17.745,16.374 14.741,6.701 17.697,7.439 26.654,20.29 		"/>
		<g>
			<path style="fill:#4E7AB5;" d="M15.482,7.401l1.912,0.478l7.833,11.237l-7.072-3.108L15.482,7.401 M14,6l3.335,10.74
				l10.746,4.722L18,7L14,6L14,6z"/>
		</g>
	</g>
	<g>
		<g>
			<path style="fill:#C2E8FF;" d="M35.147,30.494c-0.457,0-0.906-0.095-1.333-0.283L4.893,17.107
				c-1.702-0.748-2.645-2.603-2.247-4.413l2.69-10.967l3.174,1.587l0.249,6.939l27.035,12.202c1.879,0.826,2.87,2.704,2.655,5.025
				C38.291,29.199,36.871,30.494,35.147,30.494C35.148,30.494,35.148,30.494,35.147,30.494z"/>
		</g>
		<g>
			<path style="fill:#7496C4;" d="M5.673,2.454l2.349,1.175l0.227,6.333l0.022,0.62l0.566,0.255l26.761,12.078
				c1.668,0.733,2.548,2.422,2.354,4.519c-0.135,1.459-1.34,2.559-2.804,2.559c-0.388,0-0.769-0.081-1.122-0.236l-24.08-10.91
				l-4.858-2.2c-1.479-0.65-2.301-2.267-1.959-3.822L5.673,2.454 M5,1L2.158,12.586c-0.451,2.049,0.607,4.132,2.528,4.976
				l4.847,2.196l24.08,10.91c0.506,0.222,1.026,0.326,1.535,0.326c1.888,0,3.61-1.424,3.799-3.467
				C39.167,25.156,38.179,22.958,36,22L9.248,9.926L9,3L5,1L5,1z"/>
		</g>
	</g>
	<g>
		<polygon style="fill:#8BB7F0;" points="3.097,27.994 15.191,21.777 23.904,25.72 6.059,29.475 		"/>
		<g>
			<path style="fill:#4E7AB5;" d="M15.205,22.332l7.101,3.213L6.126,28.95l-1.924-0.962L15.205,22.332 M15.177,21.222L1.991,28l4,2
				l19.512-4.106L15.177,21.222L15.177,21.222z"/>
		</g>
	</g>
	<rect x="1" y="38" style="fill:#788B9C;" width="38" height="0.954"/>
	
		<ellipse transform="matrix(0.4023 -0.9155 0.9155 0.4023 -11.4864 43.406)" style="fill:#788B9C;" cx="27.5" cy="30.5" rx="1.5" ry="1.5"/>
</g>
<g id="Layer_2">
</g>
</svg>
