<?xml version="1.0" encoding="utf-8"?>
<!-- Generator: Adobe Illustrator 21.0.2, SVG Export Plug-In . SVG Version: 6.00 Build 0)  -->
<svg xmlns="http://www.w3.org/2000/svg" xmlns:xlink="http://www.w3.org/1999/xlink" version="1.1" id="Layer_1" x="0px" y="0px" viewBox="0 0 40 40" style="enable-background:new 0 0 40 40;" xml:space="preserve">
<rect x="23.5" y="4.7" transform="matrix(0.7071 -0.7071 0.7071 0.7071 -4.2843 21.6569)" style="fill:#66798F;" width="1" height="22.6"/>
<g>
	
		<rect x="10.6" y="4.8" transform="matrix(0.7071 -0.7071 0.7071 0.7071 -1.1777 14.1573)" style="fill:#DCD5F2;" width="11.7" height="7.5"/>
	<path style="fill:#8B75A1;" d="M18,2.4L22.6,7L15,14.6L10.4,10L18,2.4 M18,1l-9,9l6,6l9-9L18,1L18,1z"/>
</g>
<g>
	
		<rect x="25.6" y="19.8" transform="matrix(0.7071 -0.7071 0.7071 0.7071 -7.3908 29.1575)" style="fill:#DCD5F2;" width="11.7" height="7.5"/>
	<path style="fill:#8B75A1;" d="M33,17.4l4.6,4.6L30,29.6L25.4,25L33,17.4 M33,16l-9,9l6,6l9-9L33,16L33,16z"/>
</g>
<rect x="15" y="19.4" transform="matrix(0.7071 -0.7071 0.7071 0.7071 -8.1885 20.0398)" style="fill:#66798F;" width="10.2" height="1"/>
<g>
	<path style="fill:#A3B7CC;" d="M24.2,21.5c-0.2,0-0.4-0.1-0.6-0.3l-4.9-4.9c-0.3-0.3-0.3-0.9,0-1.2l6.4-6.4   c0.2-0.2,0.4-0.3,0.6-0.3s0.4,0.1,0.6,0.3l4.9,4.9c0.3,0.3,0.3,0.9,0,1.2l-6.4,6.4C24.7,21.4,24.5,21.5,24.2,21.5z"/>
	<path style="fill:#66798F;" d="M25.8,9c0.1,0,0.2,0,0.3,0.1l4.9,4.9c0.1,0.1,0.1,0.2,0.1,0.3c0,0.1,0,0.2-0.1,0.3l-6.4,6.4   C24.4,21,24.3,21,24.2,21s-0.2,0-0.3-0.1L19.1,16C19,15.9,19,15.8,19,15.8c0-0.1,0-0.2,0.1-0.3l6.4-6.4C25.6,9,25.7,9,25.8,9    M25.8,8c-0.3,0-0.7,0.1-1,0.4l-6.4,6.4c-0.5,0.5-0.5,1.4,0,1.9l4.9,4.9c0.3,0.3,0.6,0.4,1,0.4c0.3,0,0.7-0.1,1-0.4l6.4-6.4   c0.5-0.5,0.5-1.4,0-1.9l-4.9-4.9C26.5,8.1,26.1,8,25.8,8L25.8,8z"/>
</g>
<g>
	<path style="fill:#E1EBF2;" d="M13.8,18.1c0.7-0.3,2-0.9,3.5-0.9c1.5,0,2.8,0.5,3.8,1.6c2.6,2.6,1.4,6,0.7,7.3L13.8,18.1z"/>
	<path style="fill:#66798F;" d="M17.3,17.7c1.3,0,2.5,0.5,3.5,1.5c2.1,2.1,1.5,4.6,0.9,6.1l-7-7C15.4,18,16.3,17.7,17.3,17.7    M17.3,16.7C14.9,16.7,13,18,13,18l9,9c0,0,3.1-4.9-0.5-8.5C20.2,17.2,18.7,16.7,17.3,16.7L17.3,16.7z"/>
</g>
<rect x="13.6" y="9" transform="matrix(0.7071 -0.7071 0.7071 0.7071 -2.6777 13.5355)" style="fill:#8B75A1;" width="2.8" height="2"/>
<rect x="16.6" y="6" transform="matrix(0.7071 -0.7071 0.7071 0.7071 0.3223 14.7782)" style="fill:#8B75A1;" width="2.8" height="2"/>
<rect x="28.6" y="24" transform="matrix(0.7071 -0.7071 0.7071 0.7071 -8.8909 28.5355)" style="fill:#8B75A1;" width="2.8" height="2"/>
<rect x="31.6" y="21" transform="matrix(0.7071 -0.7071 0.7071 0.7071 -5.8909 29.7782)" style="fill:#8B75A1;" width="2.8" height="2"/>
<path style="fill:#8BB7F0;" d="M17,37C9.3,37,3,30.7,3,23H1c0,8.8,7.2,16,16,16V37z"/>
<path style="fill:#8BB7F0;" d="M17,32c-5,0-9-4-9-9H6c0,6.1,4.9,11,11,11V32z"/>
<path style="fill:#8BB7F0;" d="M17,27c-2.2,0-4-1.8-4-4h-2c0,3.3,2.7,6,6,6V27z"/>
</svg>
