<?xml version="1.0" encoding="utf-8"?>
<!-- Generator: Adobe Illustrator 21.0.2, SVG Export Plug-In . SVG Version: 6.00 Build 0)  -->
<svg xmlns="http://www.w3.org/2000/svg" xmlns:xlink="http://www.w3.org/1999/xlink" version="1.1" id="Layer_1" x="0px" y="0px" viewBox="0 0 40 40" style="enable-background:new 0 0 40 40;" xml:space="preserve">
<g>
	<path style="fill:#FFFFFF;" d="M4,34.5c-2.3-3.2-3.5-7-3.5-11c0-10.5,8.5-19,19-19s19,8.5,19,19c0,4-1.2,7.8-3.5,11H4z"/>
	<g>
		<path style="fill:#4E7AB5;" d="M19.5,5C29.7,5,38,13.3,38,23.5c0,3.8-1.1,7.4-3.3,10.5H4.3C2.1,30.9,1,27.3,1,23.5    C1,13.3,9.3,5,19.5,5 M19.5,4C8.7,4,0,12.7,0,23.5c0,4.3,1.4,8.3,3.8,11.5h31.4c2.4-3.2,3.8-7.2,3.8-11.5C39,12.7,30.3,4,19.5,4    L19.5,4z"/>
	</g>
</g>
<g>
	<rect x="15" y="29" style="fill:#B6C9D6;" width="9" height="2"/>
</g>
<g>
	<circle style="fill:#F78F8F;" cx="19.5" cy="23.5" r="1"/>
	<g>
		<path style="fill:#C74343;" d="M19.5,23c0.3,0,0.5,0.2,0.5,0.5S19.8,24,19.5,24S19,23.8,19,23.5S19.2,23,19.5,23 M19.5,22    c-0.8,0-1.5,0.7-1.5,1.5s0.7,1.5,1.5,1.5s1.5-0.7,1.5-1.5S20.3,22,19.5,22L19.5,22z"/>
	</g>
</g>
<rect x="16.7" y="18" transform="matrix(0.7071 -0.7071 0.7071 0.7071 -5.9056 22.7426)" style="fill:#C74343;" width="15.6" height="1"/>
<g>
	<path style="fill:#788B9C;" d="M19.5,5c-0.2,0-0.3,0-0.5,0v3h1V5C19.8,5,19.7,5,19.5,5L19.5,5z"/>
</g>
<g>
	<path style="fill:#E1EBF2;" d="M35,24h3c0-0.2,0-0.3,0-0.5c0-0.2,0-0.3,0-0.5h-3V24z"/>
	<path style="fill:#788B9C;" d="M38,23h-3v1h3c0-0.2,0-0.3,0-0.5C38,23.3,38,23.2,38,23L38,23z"/>
</g>
<g>
	<path style="fill:#E1EBF2;" d="M1,24h3v-1H1c0,0.2,0,0.3,0,0.5C1,23.7,1,23.8,1,24z"/>
	<path style="fill:#788B9C;" d="M4,23H1c0,0.2,0,0.3,0,0.5c0,0.2,0,0.3,0,0.5h3V23L4,23z"/>
</g>
<g>
	<path style="fill:#E1EBF2;" d="M11.3,10.3l0.9-0.5l-1.5-2.6c-0.3,0.2-0.6,0.3-0.9,0.5L11.3,10.3z"/>
	<path style="fill:#788B9C;" d="M10.7,7.2c-0.3,0.2-0.6,0.3-0.9,0.5l1.5,2.6l0.9-0.5L10.7,7.2L10.7,7.2z"/>
</g>
<g>
	<path style="fill:#E1EBF2;" d="M35.2,13.8l-2.6,1.5l0.5,0.9l2.6-1.5C35.6,14.4,35.4,14.1,35.2,13.8z"/>
	<path style="fill:#788B9C;" d="M35.2,13.8l-2.6,1.5l0.5,0.9l2.6-1.5C35.6,14.4,35.4,14.1,35.2,13.8L35.2,13.8z"/>
</g>
<g>
	<path style="fill:#E1EBF2;" d="M3.8,33.2l2.6-1.5l-0.5-0.9l-2.6,1.5C3.4,32.6,3.6,32.9,3.8,33.2z"/>
	<path style="fill:#788B9C;" d="M5.8,30.8l-2.6,1.5c0.2,0.3,0.3,0.6,0.5,0.9l2.6-1.5L5.8,30.8L5.8,30.8z"/>
</g>
<g>
	<path style="fill:#E1EBF2;" d="M29.2,7.8c-0.3-0.2-0.6-0.4-0.9-0.5l-1.5,2.6l0.9,0.5L29.2,7.8z"/>
	<path style="fill:#788B9C;" d="M28.3,7.2l-1.5,2.6l0.9,0.5l1.5-2.6C28.9,7.6,28.6,7.4,28.3,7.2L28.3,7.2z"/>
</g>
<g>
	<path style="fill:#E1EBF2;" d="M35.7,32.3l-2.6-1.5l-0.5,0.9l2.6,1.5C35.4,32.9,35.6,32.6,35.7,32.3z"/>
	<path style="fill:#788B9C;" d="M33.2,30.8l-0.5,0.9l2.6,1.5c0.2-0.3,0.3-0.6,0.5-0.9L33.2,30.8L33.2,30.8z"/>
</g>
<g>
	<path style="fill:#E1EBF2;" d="M5.8,16.2l0.5-0.9l-2.6-1.5c-0.2,0.3-0.4,0.6-0.5,0.9L5.8,16.2z"/>
	<path style="fill:#788B9C;" d="M3.8,13.8c-0.2,0.3-0.4,0.6-0.5,0.9l2.6,1.5l0.5-0.9L3.8,13.8L3.8,13.8z"/>
</g>
</svg>
