<?xml version="1.0" encoding="iso-8859-1"?>
<!-- Generator: Adobe Illustrator 21.0.2, SVG Export Plug-In . SVG Version: 6.00 Build 0)  -->
<svg xmlns="http://www.w3.org/2000/svg" xmlns:xlink="http://www.w3.org/1999/xlink" version="1.1" id="Layer_1" x="0px" y="0px" viewBox="0 0 40 40" style="enable-background:new 0 0 40 40;" xml:space="preserve">
<g>
	<g>
		<polygon style="fill:#DFF0FE;" points="14.006,33.475 1.5,37.323 1.5,6.37 14.024,2.535 25.994,6.525 38.5,2.677 38.5,33.631     26.006,37.475   "/>
	</g>
	<g>
		<path style="fill:#4788C7;" d="M14.017,3.06l11.667,3.889l0.304,0.101l0.306-0.094L38,3.354v29.907L26.012,36.95l-11.696-3.899    l-0.304-0.101l-0.306,0.094L2,36.646V6.74L14.017,3.06 M39,2L26,6L14.062,2.021l0-0.021L14.03,2.01L14,2v0.019L1,6v32l13-4l12,4    l13-4V2L39,2z"/>
	</g>
</g>
<path style="fill:#FFFFFF;" d="M26,37l-12-4V3l12,4V37z"/>
<g>
	<circle style="fill:#4788C7;" cx="33" cy="23" r="1"/>
</g>
<g>
	<circle style="fill:#4788C7;" cx="32" cy="27" r="1"/>
</g>
<g>
	<circle style="fill:#4788C7;" cx="17" cy="15" r="1"/>
</g>
<g>
	<circle style="fill:#4788C7;" cx="13" cy="17" r="1"/>
</g>
<circle style="fill:#4788C7;" cx="20" cy="12" r="1"/>
<circle style="fill:#4788C7;" cx="24" cy="11" r="1"/>
<circle style="fill:#4788C7;" cx="28" cy="13" r="1"/>
<circle style="fill:#4788C7;" cx="31" cy="16" r="1"/>
<circle style="fill:#4788C7;" cx="33" cy="19" r="1"/>
<circle style="fill:#4788C7;" cx="28" cy="29" r="1"/>
<circle style="fill:#4788C7;" cx="24" cy="28" r="1"/>
<circle style="fill:#4788C7;" cx="21" cy="26" r="1"/>
<circle style="fill:#4788C7;" cx="17" cy="26" r="1"/>
<circle style="fill:#4788C7;" cx="9" cy="15" r="1"/>
<g>
	<path style="fill:#4788C7;" d="M13.586,22.414L13.586,22.414c-0.552-0.552-1.448-0.552-2,0L10,24l-1.586-1.586   c-0.552-0.552-1.448-0.552-2,0l0,0c-0.552,0.552-0.552,1.448,0,2L8,26l-1.586,1.586c-0.552,0.552-0.552,1.448,0,2l0,0   c0.552,0.552,1.448,0.552,2,0L10,28l1.586,1.586c0.552,0.552,1.448,0.552,2,0l0,0c0.552-0.552,0.552-1.448,0-2L12,26l1.586-1.586   C14.138,23.862,14.138,22.966,13.586,22.414z"/>
</g>
</svg>
