<?xml version="1.0" encoding="utf-8"?>
<!-- Generator: Adobe Illustrator 21.0.2, SVG Export Plug-In . SVG Version: 6.00 Build 0)  -->
<svg xmlns="http://www.w3.org/2000/svg" xmlns:xlink="http://www.w3.org/1999/xlink" version="1.1" id="Layer_1" x="0px" y="0px" viewBox="0 0 40 40" style="enable-background:new 0 0 40 40;" xml:space="preserve">
<g>
	
		<rect x="29" y="8" transform="matrix(0.7071 -0.7071 0.7071 0.7071 2.1348 25.487)" style="fill:#4E7AB5;" width="5.7" height="4.2"/>
</g>
<rect x="16" y="4" style="fill:#4E7AB5;" width="7" height="4"/>
<g>
	<path style="fill:#8BB7F0;" d="M16,4.5c-0.3,0-0.5-0.2-0.5-0.5V1c0-0.3,0.2-0.5,0.5-0.5h7c0.3,0,0.5,0.2,0.5,0.5v3   c0,0.3-0.2,0.5-0.5,0.5H16z"/>
	<g>
		<path style="fill:#4E7AB5;" d="M23,1v3h-7V1H23 M23,0h-7c-0.6,0-1,0.4-1,1v3c0,0.6,0.4,1,1,1h7c0.6,0,1-0.4,1-1V1    C24,0.4,23.6,0,23,0L23,0z"/>
	</g>
</g>
<g>
	<path style="fill:#8BB7F0;" d="M34.3,11.5c-0.1,0-0.2,0-0.2-0.1l-3.5-3.5c-0.1-0.1-0.1-0.3,0-0.4l1.9-1.9c0.1-0.1,0.1-0.1,0.2-0.1   c0.1,0,0.2,0,0.2,0.1L36.4,9c0.1,0.1,0.1,0.3,0,0.4l-1.9,1.9C34.4,11.5,34.3,11.5,34.3,11.5z"/>
	<g>
		<path style="fill:#4E7AB5;" d="M32.7,6.1l3.2,3.2l-1.6,1.6l-3.2-3.2L32.7,6.1 M32.7,5c-0.2,0-0.4,0.1-0.6,0.2l-1.9,1.9    c-0.3,0.3-0.3,0.8,0,1.1l3.5,3.5c0.2,0.2,0.4,0.2,0.6,0.2s0.4-0.1,0.6-0.2l1.9-1.9c0.3-0.3,0.3-0.8,0-1.1l-3.5-3.5    C33.1,5.1,32.9,5,32.7,5L32.7,5z"/>
	</g>
</g>
<g>
	<path style="fill:#8BB7F0;" d="M19.5,39.5c-8.8,0-16-7.2-16-16s7.2-16,16-16s16,7.2,16,16S28.3,39.5,19.5,39.5z"/>
	<path style="fill:#4E7AB5;" d="M19.5,8C28,8,35,15,35,23.5S28,39,19.5,39S4,32,4,23.5S11,8,19.5,8 M19.5,7C10.4,7,3,14.4,3,23.5   S10.4,40,19.5,40S36,32.6,36,23.5S28.6,7,19.5,7L19.5,7z"/>
</g>
<g>
	<path style="fill:#F2FAFF;" d="M19.5,36.5c-7.2,0-13-5.8-13-13s5.8-13,13-13s13,5.8,13,13S26.7,36.5,19.5,36.5z"/>
	<g>
		<path style="fill:#4E7AB5;" d="M19.5,11C26.4,11,32,16.6,32,23.5S26.4,36,19.5,36S7,30.4,7,23.5S12.6,11,19.5,11 M19.5,10    C12,10,6,16,6,23.5S12,37,19.5,37S33,31,33,23.5S27,10,19.5,10L19.5,10z"/>
	</g>
</g>
<path style="fill:#66798F;" d="M19.5,24c-0.1,0-0.3,0-0.4-0.1l-5.5-5.5c-0.2-0.2-0.2-0.5,0-0.7s0.5-0.2,0.7,0l5.5,5.5  c0.2,0.2,0.2,0.5,0,0.7C19.8,24,19.6,24,19.5,24z"/>
<g>
	<circle style="fill:#66798F;" cx="19.5" cy="23.5" r="1.5"/>
</g>
<path style="fill:#66798F;" d="M20,11c-0.2,0-0.3,0-0.5,0s-0.3,0-0.5,0v2h1V11z"/>
<path style="fill:#66798F;" d="M19,36c0.2,0,0.3,0,0.5,0s0.3,0,0.5,0v-2h-1V36z"/>
<path style="fill:#66798F;" d="M7,24h2v-1H7c0,0.2,0,0.3,0,0.5S7,23.8,7,24z"/>
<path style="fill:#66798F;" d="M30,24h2c0-0.2,0-0.3,0-0.5s0-0.3,0-0.5h-2V24z"/>
<path style="fill:#66798F;" d="M13.8,14.7l0.9-0.5l-1-1.7c-0.3,0.2-0.6,0.3-0.9,0.5L13.8,14.7z"/>
<path style="fill:#66798F;" d="M25.2,32.3l-0.9,0.5l1,1.7c0.3-0.2,0.6-0.3,0.9-0.5L25.2,32.3z"/>
<path style="fill:#66798F;" d="M8.4,29.3c0.2,0.3,0.3,0.6,0.5,0.9l1.7-1l-0.5-0.9L8.4,29.3z"/>
<path style="fill:#66798F;" d="M30.6,17.7c-0.2-0.3-0.3-0.6-0.5-0.9l-1.7,1l0.5,0.9L30.6,17.7z"/>
<path style="fill:#66798F;" d="M10.2,18.7l0.5-0.9l-1.7-1c-0.2,0.3-0.4,0.6-0.5,0.9L10.2,18.7z"/>
<path style="fill:#66798F;" d="M28.8,28.3l-0.5,0.9l1.7,1c0.2-0.3,0.4-0.6,0.5-0.9L28.8,28.3z"/>
<path style="fill:#66798F;" d="M12.8,34.1c0.3,0.2,0.6,0.3,0.9,0.5l1-1.7l-0.9-0.5L12.8,34.1z"/>
<path style="fill:#66798F;" d="M25.3,12.4l-1,1.7l0.9,0.5l1-1.7C25.9,12.8,25.6,12.6,25.3,12.4z"/>
</svg>
