<?xml version="1.0" encoding="iso-8859-1"?>
<!-- Generator: Adobe Illustrator 21.0.2, SVG Export Plug-In . SVG Version: 6.00 Build 0)  -->
<svg xmlns="http://www.w3.org/2000/svg" xmlns:xlink="http://www.w3.org/1999/xlink" version="1.1" id="Layer_1" x="0px" y="0px" viewBox="0 0 40 40" style="enable-background:new 0 0 40 40;" xml:space="preserve">
<g>
	<polygon style="fill:#DFF0FE;" points="26.5,31.5 26.5,13.5 29.5,13.5 29.5,31.5 33.898,31.5 28,38.241 22.102,31.5  "/>
	<path style="fill:#4788C7;" d="M32.796,32L28,37.481L23.204,32H26h1v-1V14h2v17v1h1H32.796 M35,31h-5V13h-4v18h-5l7,8L35,31L35,31z   "/>
</g>
<g>
	<rect x="26.5" y="1.5" style="fill:#DFF0FE;" width="3" height="3"/>
	<path style="fill:#4788C7;" d="M29,4h-2V2h2V4 M30,5V1h-4v4H30L30,5z"/>
</g>
<g>
	<rect x="26.5" y="7.5" style="fill:#DFF0FE;" width="3" height="3"/>
	<path style="fill:#4788C7;" d="M29,10h-2V8h2V10 M30,11V7h-4v4H30L30,11z"/>
</g>
<g>
	<polygon style="fill:#DFF0FE;" points="12,1.759 17.898,8.5 13.5,8.5 13.5,26.5 10.5,26.5 10.5,8.5 6.102,8.5  "/>
	<path style="fill:#4788C7;" d="M16.796,8H14h-1v1v17h-2V9V8h-1H7.204L12,2.519L16.796,8 M19,9l-7-8L5,9h5v18h4V9H19L19,9z"/>
</g>
<g>
	<rect x="10.5" y="35.5" style="fill:#DFF0FE;" width="3" height="3"/>
	<path style="fill:#4788C7;" d="M13,38h-2v-2h2V38 M14,39v-4h-4v4H14L14,39z"/>
</g>
<g>
	<rect x="10.5" y="29.5" style="fill:#DFF0FE;" width="3" height="3"/>
	<path style="fill:#4788C7;" d="M13,32h-2v-2h2V32 M14,33v-4h-4v4H14L14,33z"/>
</g>
</svg>
