<?xml version="1.0" encoding="utf-8"?>
<!-- Generator: Adobe Illustrator 21.0.2, SVG Export Plug-In . SVG Version: 6.00 Build 0)  -->
<svg xmlns="http://www.w3.org/2000/svg" xmlns:xlink="http://www.w3.org/1999/xlink" version="1.1" id="Layer_1" x="0px" y="0px" viewBox="0 0 40 40" style="enable-background:new 0 0 40 40;" xml:space="preserve">
<g>
	<rect y="6" style="fill:#C2E8FF;" width="40" height="28"/>
</g>
<rect y="19" style="fill:#8BB7F0;" width="40" height="1"/>
<rect x="1" y="6" style="fill:#7496C4;" width="2" height="1"/>
<rect x="9" y="6" style="fill:#7496C4;" width="2" height="1"/>
<rect x="5" y="6" style="fill:#7496C4;" width="2" height="1"/>
<rect x="13" y="6" style="fill:#7496C4;" width="2" height="1"/>
<rect x="17" y="6" style="fill:#7496C4;" width="2" height="1"/>
<rect x="21" y="6" style="fill:#7496C4;" width="2" height="1"/>
<rect x="25" y="6" style="fill:#7496C4;" width="2" height="1"/>
<rect x="33" y="6" style="fill:#7496C4;" width="2" height="1"/>
<rect x="29" y="6" style="fill:#7496C4;" width="2" height="1"/>
<rect x="37" y="6" style="fill:#7496C4;" width="2" height="1"/>
<rect x="1" y="33" style="fill:#7496C4;" width="2" height="1"/>
<rect x="9" y="33" style="fill:#7496C4;" width="2" height="1"/>
<rect x="5" y="33" style="fill:#7496C4;" width="2" height="1"/>
<rect x="13" y="33" style="fill:#7496C4;" width="2" height="1"/>
<rect x="17" y="33" style="fill:#7496C4;" width="2" height="1"/>
<rect x="21" y="33" style="fill:#7496C4;" width="2" height="1"/>
<rect x="25" y="33" style="fill:#7496C4;" width="2" height="1"/>
<rect x="33" y="33" style="fill:#7496C4;" width="2" height="1"/>
<rect x="29" y="33" style="fill:#7496C4;" width="2" height="1"/>
<rect x="37" y="33" style="fill:#7496C4;" width="2" height="1"/>
<path style="fill:#4E7AB5;" d="M14.6,31c-3.7,0-5-5.4-6.2-10.6c-0.9-3.7-2-8.4-3.8-8.4C2.1,12,2,14.7,2,15l-2,0c0-1.7,1-5,4.6-5  c3.3,0,4.5,4.8,5.7,9.9c1,4,2.2,9.1,4.3,9.1c0.8,0,1.2-0.6,1.8-2.1c0.7-1.6,1.7-3.9,4.6-3.9c4.1,0,5.9-3.8,7.7-7.6  c1.6-3.3,3.1-6.4,6.2-6.4c4,0,5.1,3.9,5.1,6l-2,0c0-0.4-0.1-4-3.1-4c-1.8,0-3,2.5-4.4,5.3C28.7,20.2,26.4,25,21,25  c-1.5,0-2,1-2.8,2.7C17.6,29.2,16.7,31,14.6,31z"/>
</svg>
