<?xml version="1.0" encoding="utf-8"?>
<!-- Generator: Adobe Illustrator 21.0.2, SVG Export Plug-In . SVG Version: 6.00 Build 0)  -->
<svg xmlns="http://www.w3.org/2000/svg" xmlns:xlink="http://www.w3.org/1999/xlink" version="1.1" id="Layer_1" x="0px" y="0px" viewBox="0 0 40 40" style="enable-background:new 0 0 40 40;" xml:space="preserve">
<g>
	<path style="fill:#FFFFFF;" d="M2.5,36.5v-33h35V36c0,0.3-0.2,0.5-0.5,0.5H2.5z"/>
	<g>
		<path style="fill:#788B9C;" d="M37,4v32H3V4H37 M38,3H2v34h35c0.6,0,1-0.4,1-1V3L38,3z"/>
	</g>
</g>
<rect x="13" y="28" style="fill:#8BB7F0;" width="18" height="1"/>
<path style="fill:#C8D1DB;" d="M20.9,37H38V20.1c-0.2,0-0.4-0.1-0.7-0.1c-0.1,0-0.2,0-0.3,0v16H21.2L20.9,37z"/>
<polygon style="fill:#C2E8FF;" points="26.4,29 31,29 31,28 27.4,28 "/>
<g>
	<rect x="2" y="3" style="fill:#788B9C;" width="36" height="6"/>
</g>
<rect x="13" y="16" style="fill:#8BB7F0;" width="18" height="1"/>
<rect x="9" y="16" style="fill:#8BB7F0;" width="1" height="1"/>
<rect x="13" y="20" style="fill:#8BB7F0;" width="18" height="1"/>
<rect x="9" y="20" style="fill:#8BB7F0;" width="1" height="1"/>
<rect x="13" y="24" style="fill:#8BB7F0;" width="18" height="1"/>
<rect x="9" y="24" style="fill:#8BB7F0;" width="1" height="1"/>
<rect x="9" y="28" style="fill:#8BB7F0;" width="1" height="1"/>
<g>
	<polygon style="fill:#F5CE85;" points="24.3,34.7 25.9,33 29.2,35.9 27.3,37.7 22.8,39.2  "/>
	<path style="fill:#967A44;" d="M26,33.7l2.5,2.2l-1.4,1.4l-3.5,1.1l1.1-3.5L26,33.7 M25.9,32.3l-2.1,2.1L22,40l5.6-1.8l2.3-2.3   L25.9,32.3L25.9,32.3z"/>
</g>
<g>
	<polygon style="fill:#36404D;" points="23.1,36.8 22,40 25.3,38.9  "/>
</g>
<g>
	<path style="fill:#F78F8F;" d="M34.9,24l0.9-0.9c0.4-0.4,1-0.6,1.5-0.6c0.6,0,1.1,0.2,1.5,0.6c0.8,0.8,0.8,2.2,0,3.1L38,27.1   L34.9,24z"/>
	<g>
		<path style="fill:#C74343;" d="M37.3,23c0.4,0,0.9,0.2,1.2,0.5c0.3,0.3,0.5,0.7,0.5,1.2s-0.2,0.9-0.5,1.2L38,26.4L35.6,24l0.5-0.5    C36.5,23.2,36.9,23,37.3,23 M37.3,22c-0.7,0-1.4,0.3-1.9,0.8L34.2,24l3.8,3.8l1.2-1.2c1-1,1-2.7,0-3.8l0,0    C38.7,22.3,38,22,37.3,22L37.3,22z"/>
	</g>
</g>
<g>
	<path style="fill:#FFEEA3;" d="M27.9,37.2c0-0.1-0.1-0.1-0.1-0.2c-0.2-0.3-0.5-0.4-0.9-0.5c-0.2-0.8-0.8-1.2-1.4-1.4   c-0.1-0.5-0.4-0.8-0.7-1l8.5-8.5l3.1,3.1L27.9,37.2z"/>
	<g>
		<path style="fill:#BA9B48;" d="M33.3,26.3l2.4,2.4l-7.8,7.8c-0.2-0.1-0.4-0.3-0.6-0.3c-0.3-0.7-0.8-1.1-1.4-1.3    c-0.1-0.2-0.2-0.5-0.4-0.6L33.3,26.3 M33.3,24.9l-9.5,9.5c0,0,0,0,0,0c0.1,0,1.2,0,1.2,1.2c0,0,1.4,0,1.4,1.4    c1.4,0,1.2,1.2,1.2,1.2l9.5-9.5L33.3,24.9L33.3,24.9z"/>
	</g>
</g>
<g>
	
		<rect x="33.9" y="24.3" transform="matrix(0.7071 -0.7071 0.7071 0.7071 -8.3199 32.8706)" style="fill:#D9E7F5;" width="3.3" height="4.3"/>
	<g>
		<path style="fill:#788B9C;" d="M35.1,24.5l2.4,2.4l-1.6,1.6l-2.4-2.4L35.1,24.5 M35.1,23.1l-3,3l3.8,3.8l3-3L35.1,23.1L35.1,23.1z    "/>
	</g>
</g>
</svg>
