<?xml version="1.0" encoding="iso-8859-1"?>
<!-- Generator: Adobe Illustrator 19.2.0, SVG Export Plug-In . SVG Version: 6.00 Build 0)  -->
<svg version="1.1" id="Layer_1" xmlns="http://www.w3.org/2000/svg" xmlns:xlink="http://www.w3.org/1999/xlink" x="0px" y="0px"
	 viewBox="0 0 40 40" style="enable-background:new 0 0 40 40;" xml:space="preserve">
<g>
	<circle style="fill:#E1EBF2;" cx="7.5" cy="8.5" r="6"/>
	<path style="fill:#788B9C;" d="M7.5,3C10.533,3,13,5.467,13,8.5S10.533,14,7.5,14C4.467,14,2,11.533,2,8.5S4.467,3,7.5,3 M7.5,2
		C3.91,2,1,4.91,1,8.5S3.91,15,7.5,15c3.59,0,6.5-2.91,6.5-6.5S11.09,2,7.5,2L7.5,2z"/>
</g>
<rect x="7" y="8" style="fill:#36404D;" width="23" height="1"/>
<rect x="19" y="12" style="fill:#66798F;" width="1" height="9"/>
<g>
	<path style="fill:#8BB7F0;" d="M7,37.5c-1.378,0-2.5-1.122-2.5-2.5V21c0-1.378,1.122-2.5,2.5-2.5h25c1.378,0,2.5,1.122,2.5,2.5v14
		c0,1.378-1.122,2.5-2.5,2.5H7z"/>
	<path style="fill:#4E7AB5;" d="M32,19c1.103,0,2,0.897,2,2v14c0,1.103-0.897,2-2,2H7c-1.103,0-2-0.897-2-2V21c0-1.103,0.897-2,2-2
		H32 M32,18H7c-1.65,0-3,1.35-3,3v14c0,1.65,1.35,3,3,3h25c1.65,0,3-1.35,3-3V21C35,19.35,33.65,18,32,18L32,18z"/>
</g>
<g>
	<rect x="9.5" y="23.5" style="fill:#FFFFFF;" width="20" height="9"/>
	<g>
		<path style="fill:#4E7AB5;" d="M29,24v8H10v-8H29 M30,23H9v10h21V23L30,23z"/>
	</g>
</g>
<g>
	<polygon style="fill:#4E7AB5;" points="15,24 14,24 14,27 15,27 15,24 	"/>
</g>
<g>
	<polygon style="fill:#C74343;" points="20,24 19,24 19,27 20,27 20,24 	"/>
</g>
<g>
	<polygon style="fill:#4E7AB5;" points="25,24 24,24 24,27 25,27 25,24 	"/>
</g>
<polygon style="fill:#36404D;" points="21.5,27 23,32 20,32 "/>
<g>
	<circle style="fill:#E1EBF2;" cx="31.5" cy="8.5" r="6"/>
	<path style="fill:#788B9C;" d="M31.5,3C34.533,3,37,5.467,37,8.5S34.533,14,31.5,14c-3.033,0-5.5-2.467-5.5-5.5S28.467,3,31.5,3
		 M31.5,2C27.91,2,25,4.91,25,8.5s2.91,6.5,6.5,6.5c3.59,0,6.5-2.91,6.5-6.5S35.09,2,31.5,2L31.5,2z"/>
</g>
<g>
	<circle style="fill:#66798F;" cx="31.5" cy="8.5" r="3.5"/>
</g>
<g>
	<path style="fill:#E1EBF2;" d="M16.5,2.5c3.309,0,6,2.691,6,6s-2.691,6-6,6V2.5z"/>
	<path style="fill:#788B9C;" d="M17,3.023c2.799,0.253,5,2.613,5,5.477s-2.201,5.224-5,5.477V3.023 M16.5,2H16v0.025v12.949V15h0.5
		c3.59,0,6.5-2.91,6.5-6.5C23,4.91,20.09,2,16.5,2L16.5,2z"/>
</g>
</svg>
