<?xml version="1.0" encoding="utf-8"?>
<!-- Generator: Adobe Illustrator 21.0.2, SVG Export Plug-In . SVG Version: 6.00 Build 0)  -->
<svg xmlns="http://www.w3.org/2000/svg" xmlns:xlink="http://www.w3.org/1999/xlink" version="1.1" id="Layer_1" x="0px" y="0px" viewBox="0 0 40 40" style="enable-background:new 0 0 40 40;" xml:space="preserve">
<g>
	<polygon style="fill:#FFFFFF;" points="6.5,37.5 6.5,2.5 24.8,2.5 33.5,11.2 33.5,37.5  "/>
	<g>
		<path style="fill:#788B9C;" d="M24.6,3l8.4,8.4V37H7V3H24.6 M25,2H6v36h28V11L25,2L25,2z"/>
	</g>
</g>
<g>
	<path style="fill:#C5D4DE;" d="M23.2,38H34V20.9c-0.3-0.1-0.7-0.2-1-0.2V37H22.4C22.6,37.4,22.9,37.7,23.2,38z"/>
</g>
<g>
	<polygon style="fill:#FFFFFF;" points="24.5,11.5 24.5,2.5 24.8,2.5 33.5,11.2 33.5,11.5  "/>
	<g>
		<path style="fill:#788B9C;" d="M25,3.4l7.6,7.6H25V3.4 M25,2h-1v10h10v-1L25,2L25,2z"/>
	</g>
</g>
<rect x="15" y="16" style="fill:#788B9C;" width="13" height="1"/>
<rect x="15" y="19" style="fill:#788B9C;" width="9" height="1"/>
<rect x="15" y="22" style="fill:#788B9C;" width="13" height="1"/>
<rect x="15" y="28" style="fill:#788B9C;" width="13" height="1"/>
<rect x="15" y="25" style="fill:#788B9C;" width="9" height="1"/>
<g>
	<path style="fill:#BCC9D6;" d="M28,23v-1h-2.4c-0.5,0.3-1,0.6-1.4,1H28z"/>
	<path style="fill:#BCC9D6;" d="M28,29v-1h-7.1c-0.1,0.3-0.2,0.7-0.2,1H28z"/>
	<path style="fill:#BCC9D6;" d="M24,26v-1h-1.6c-0.2,0.3-0.4,0.7-0.6,1H24z"/>
</g>
<g>
	<circle style="fill:#BAE0BD;" cx="31" cy="31" r="8.5"/>
	<g>
		<path style="fill:#5E9C76;" d="M31,23c4.4,0,8,3.6,8,8s-3.6,8-8,8s-8-3.6-8-8S26.6,23,31,23 M31,22c-5,0-9,4-9,9s4,9,9,9s9-4,9-9    S36,22,31,22L31,22z"/>
	</g>
</g>
<rect x="30" y="26" style="fill:#FFFFFF;" width="2" height="10"/>
<rect x="26" y="30" style="fill:#FFFFFF;" width="10" height="2"/>
<g>
	<circle style="fill:#C74343;" cx="12.5" cy="16.5" r="0.8"/>
</g>
<g>
	<circle style="fill:#C74343;" cx="12.5" cy="19.5" r="0.8"/>
</g>
<g>
	<circle style="fill:#C74343;" cx="12.5" cy="22.5" r="0.8"/>
</g>
<g>
	<circle style="fill:#C74343;" cx="12.5" cy="25.5" r="0.8"/>
</g>
<g>
	<circle style="fill:#C74343;" cx="12.5" cy="28.5" r="0.8"/>
</g>
</svg>
