<?xml version="1.0" encoding="utf-8"?>
<!-- Generator: Adobe Illustrator 21.0.2, SVG Export Plug-In . SVG Version: 6.00 Build 0)  -->
<svg xmlns="http://www.w3.org/2000/svg" xmlns:xlink="http://www.w3.org/1999/xlink" version="1.1" id="Layer_1" x="0px" y="0px" viewBox="0 0 40 40" style="enable-background:new 0 0 40 40;" xml:space="preserve">
<path style="fill:#36404D;" d="M36.5,34h-33C2.1,34,1,35.1,1,36.5l0,0C1,37.9,2.1,39,3.5,39h33c1.4,0,2.5-1.1,2.5-2.5l0,0  C39,35.1,37.9,34,36.5,34z"/>
<g>
	<polygon style="fill:#FFFFFF;" points="4.5,37.5 4.5,2.3 6,1.6 8,2.6 10,1.6 12,2.6 14,1.6 16,2.6 18,1.6 20,2.6 22,1.6 24,2.6    26,1.6 28,2.6 30,1.6 32,2.6 34,1.6 35.5,2.3 35.5,37.5  "/>
	<path style="fill:#788B9C;" d="M34,2.1l1,0.5V37H5V2.6l1-0.5l1.6,0.8L8,3.1l0.4-0.2L10,2.1l1.6,0.8L12,3.1l0.4-0.2L14,2.1l1.6,0.8   L16,3.1l0.4-0.2L18,2.1l1.6,0.8L20,3.1l0.4-0.2L22,2.1l1.6,0.8L24,3.1l0.4-0.2L26,2.1l1.6,0.8L28,3.1l0.4-0.2L30,2.1l1.6,0.8   L32,3.1l0.4-0.2L34,2.1 M34,1l-2,1l-2-1l-2,1l-2-1l-2,1l-2-1l-2,1l-2-1l-2,1l-2-1l-2,1l-2-1L8,2L6,1L4,2v36h32V2L34,1L34,1z"/>
</g>
<rect x="5" y="35" style="fill:#D6E3ED;" width="30" height="3"/>
<rect x="8" y="8" style="fill:#788B9C;" width="15" height="1"/>
<rect x="29" y="8" style="fill:#788B9C;" width="3" height="1"/>
<rect x="8" y="12" style="fill:#788B9C;" width="13" height="1"/>
<rect x="29" y="12" style="fill:#788B9C;" width="3" height="1"/>
<rect x="8" y="16" style="fill:#788B9C;" width="15" height="1"/>
<rect x="29" y="16" style="fill:#788B9C;" width="3" height="1"/>
<rect x="8" y="20" style="fill:#788B9C;" width="13" height="1"/>
<rect x="29" y="20" style="fill:#788B9C;" width="3" height="1"/>
<rect x="21" y="30" style="fill:#788B9C;" width="11" height="1"/>
<circle style="fill:#788B9C;" cx="31.5" cy="25.5" r="0.5"/>
<circle style="fill:#788B9C;" cx="33.5" cy="25.5" r="0.5"/>
<circle style="fill:#788B9C;" cx="29.5" cy="25.5" r="0.5"/>
<circle style="fill:#788B9C;" cx="27.5" cy="25.5" r="0.5"/>
<circle style="fill:#788B9C;" cx="25.5" cy="25.5" r="0.5"/>
<circle style="fill:#788B9C;" cx="23.5" cy="25.5" r="0.5"/>
<circle style="fill:#788B9C;" cx="21.5" cy="25.5" r="0.5"/>
<circle style="fill:#788B9C;" cx="19.5" cy="25.5" r="0.5"/>
<circle style="fill:#788B9C;" cx="17.5" cy="25.5" r="0.5"/>
<circle style="fill:#788B9C;" cx="15.5" cy="25.5" r="0.5"/>
<circle style="fill:#788B9C;" cx="13.5" cy="25.5" r="0.5"/>
<circle style="fill:#788B9C;" cx="11.5" cy="25.5" r="0.5"/>
<circle style="fill:#788B9C;" cx="9.5" cy="25.5" r="0.5"/>
<circle style="fill:#788B9C;" cx="7.5" cy="25.5" r="0.5"/>
</svg>
