<?xml version="1.0" encoding="utf-8"?>
<!-- Generator: Adobe Illustrator 21.0.2, SVG Export Plug-In . SVG Version: 6.00 Build 0)  -->
<svg xmlns="http://www.w3.org/2000/svg" xmlns:xlink="http://www.w3.org/1999/xlink" version="1.1" id="Layer_1" x="0px" y="0px" viewBox="0 0 40 40" style="enable-background:new 0 0 40 40;" xml:space="preserve">
<path style="fill:#FFFFFF;" d="M9.5,38.5v-37h29v22.1l-4.5,0v14.9H9.5z"/>
<polygon style="fill:#788B9C;" points="32,38 10,38 10,2 38,2 38,24 39,24 39,1 9,1 9,39 32,39 "/>
<g>
	<path style="fill:#E1EBF2;" d="M6,38.5c-2.5,0-4.5-2-4.5-4.5v-3.5h28V34c0,2.3,1.8,4.2,4,4.5v0H6z"/>
	<g>
		<path style="fill:#788B9C;" d="M29,31v3c0,1.6,0.8,3.1,2,4H6c-2.2,0-4-1.8-4-4v-3H29 M30,30H1v4c0,2.8,2.2,5,5,5h28v-1    c-2.2,0-4-1.8-4-4V30L30,30z"/>
	</g>
</g>
<rect x="20" y="9" style="fill:#788B9C;" width="13" height="1"/>
<rect x="15" y="9" style="fill:#788B9C;" width="2" height="1"/>
<rect x="20" y="14" style="fill:#788B9C;" width="13" height="1"/>
<rect x="15" y="14" style="fill:#788B9C;" width="2" height="1"/>
<rect x="20" y="19" style="fill:#788B9C;" width="13" height="1"/>
<rect x="15" y="19" style="fill:#788B9C;" width="2" height="1"/>
<rect x="20" y="24" style="fill:#788B9C;" width="13" height="1"/>
<rect x="15" y="24" style="fill:#788B9C;" width="2" height="1"/>
<g>
	<g>
		<path style="fill:#F2FAFF;" d="M25.5,38.5V37c0-2.3,1.2-4.4,3.2-5.6l0.7-0.4l-0.7-0.4c-2-1.2-3.2-3.3-3.2-5.6v-1.5h13V25    c0,2.3-1.2,4.4-3.2,5.6L34.6,31l0.7,0.4c2,1.2,3.2,3.3,3.2,5.6v1.5H25.5z"/>
	</g>
	<g>
		<path style="fill:#788B9C;" d="M38,24v1c0,2.1-1.1,4-2.9,5.1L33.6,31l1.4,0.9c1.8,1.1,2.9,3,2.9,5.1v1H26v-1c0-2.1,1.1-4,2.9-5.1    l1.4-0.9l-1.4-0.9C27.1,29,26,27.1,26,25v-1H38 M39,23H25v2c0,2.6,1.4,4.8,3.4,6c-2,1.2-3.4,3.4-3.4,6v2h14v-2    c0-2.6-1.4-4.8-3.4-6c2-1.2,3.4-3.4,3.4-6V23L39,23z"/>
	</g>
</g>
<g>
	<g>
		<rect x="24.5" y="22.5" style="fill:#8BB7F0;" width="15" height="2"/>
	</g>
	<g>
		<path style="fill:#4E7AB5;" d="M39,23v1H25v-1H39 M40,22H24v3h16V22L40,22z"/>
	</g>
</g>
<g>
	<path style="fill:#D98B57;" d="M27,38h10c0-4.3-5-5.7-5-5.7S27,33.8,27,38z"/>
</g>
<g>
	<g>
		<rect x="24.5" y="37.5" style="fill:#8BB7F0;" width="15" height="2"/>
	</g>
	<g>
		<path style="fill:#4E7AB5;" d="M39,38v1H25v-1H39 M40,37H24v3h16V37L40,37z"/>
	</g>
</g>
<g>
	<path style="fill:#D98B57;" d="M27.8,27c0.6,1.7,2.3,3,4.2,3s3.6-1.3,4.2-3H27.8z"/>
</g>
<rect x="23" y="24" style="fill:#C5D4DE;" width="1" height="1"/>
<rect x="38" y="21" style="fill:#C5D4DE;" width="1" height="1"/>
<rect x="23" y="38" style="fill:#C5D4DE;" width="1" height="1"/>
<path style="fill:#C5D4DE;" d="M26.7,31h1.7c-0.5-0.3-0.9-0.6-1.3-1h-1.4C26.1,30.4,26.4,30.7,26.7,31z"/>
</svg>
