<?xml version="1.0" encoding="iso-8859-1"?>
<!-- Generator: Adobe Illustrator 21.1.0, SVG Export Plug-In . SVG Version: 6.00 Build 0)  -->
<svg xmlns="http://www.w3.org/2000/svg" xmlns:xlink="http://www.w3.org/1999/xlink" version="1.1" id="Layer_1" x="0px" y="0px" viewBox="0 0 48 48" style="enable-background:new 0 0 48 48;" xml:space="preserve">
<g>
	<g>
		<g>
		</g>
	</g>
</g>
<path style="fill:#375A64;" d="M36,4H26c0,1.1-0.9,2-2,2s-2-0.9-2-2H12C9.8,4,8,5.8,8,8v32c0,2.2,1.8,4,4,4h24c2.2,0,4-1.8,4-4V8  C40,5.8,38.2,4,36,4z"/>
<path style="fill:#FFFFFF;" d="M36,41H12c-0.6,0-1-0.4-1-1V8c0-0.6,0.4-1,1-1h24c0.6,0,1,0.4,1,1v32C37,40.6,36.6,41,36,41z"/>
<path style="fill:#87A4AF;" d="M26,4c0,1.1-0.9,2-2,2s-2-0.9-2-2h-7v4c0,1.1,0.9,2,2,2h14c1.1,0,2-0.9,2-2V4H26z"/>
<path style="fill:#87A4AF;" d="M24,0c-2.2,0-4,1.8-4,4s1.8,4,4,4s4-1.8,4-4S26.2,0,24,0z M24,6c-1.1,0-2-0.9-2-2s0.9-2,2-2  s2,0.9,2,2S25.1,6,24,6z"/>
<path style="fill:#00A03D;" d="M32,25c0,4.4-3.6,8-8,8s-8-3.6-8-8s3.6-8,8-8S32,20.6,32,25"/>
<polygon style="fill:#D5EDC7;" points="23.117,29.031 19.293,25.207 20.707,23.793 23.133,26.219 27.801,21.66 29.199,23.09 "/>
</svg>
