<?xml version="1.0" encoding="iso-8859-1"?>
<!-- Generator: Adobe Illustrator 21.0.2, SVG Export Plug-In . SVG Version: 6.00 Build 0)  -->
<svg xmlns="http://www.w3.org/2000/svg" xmlns:xlink="http://www.w3.org/1999/xlink" version="1.1" x="0px" y="0px" viewBox="0 0 40 40" style="enable-background:new 0 0 40 40;" xml:space="preserve">
<g id="Layer_1">
	<path style="fill:#4788C7;" d="M8.5,3L8.5,3C8.224,3,8,3.224,8,3.5v6C8,9.776,8.224,10,8.5,10h0C8.776,10,9,9.776,9,9.5v-6   C9,3.224,8.776,3,8.5,3z"/>
	<path style="fill:#4788C7;" d="M1.5,5h14C15.776,5,16,4.776,16,4.5v0C16,4.224,15.776,4,15.5,4h-14C1.224,4,1,4.224,1,4.5v0   C1,4.776,1.224,5,1.5,5z"/>
	<path style="fill:#4788C7;" d="M31.5,3L31.5,3C31.224,3,31,3.224,31,3.5v6c0,0.276,0.224,0.5,0.5,0.5h0c0.276,0,0.5-0.224,0.5-0.5   v-6C32,3.224,31.776,3,31.5,3z"/>
	<path style="fill:none;stroke:#4788C7;stroke-linecap:round;stroke-miterlimit:10;" d="M4.5,36.5V29c0-7.413,6.087-13,13.5-13h4   c7.413,0,13.5,5.587,13.5,13v7.5"/>
	<g>
		<g>
			<path style="fill:#B6DCFE;" d="M15.371,19.5c-1.087,0-2.005-0.778-2.184-1.85l-0.559-4.626l-5.581-0.521     C5.212,12.35,4.5,11.559,4.5,9.682V9.357C4.5,8.884,4.884,8.5,5.357,8.5h29.286c0.473,0,0.857,0.384,0.857,0.857v0.325     c0,1.877-0.712,2.667-2.542,2.82l-5.642,0.526l-0.789,4.62c-0.179,1.074-1.098,1.852-2.185,1.852H15.371z"/>
		</g>
		<g>
			<path style="fill:#4788C7;" d="M34.643,9C34.84,9,35,9.16,35,9.357v0.325c0,1.626-0.506,2.19-2.093,2.322l-5.255,0.491     l-0.764,0.071l-0.129,0.756l-0.725,4.245C25.896,18.398,25.185,19,24.344,19h-8.973c-0.841,0-1.553-0.602-1.685-1.388     l-0.514-4.248l-0.097-0.801l-0.803-0.075l-5.189-0.485C5.506,11.872,5,11.308,5,9.682V9.357C5,9.16,5.16,9,5.357,9H16h8H34.643      M34.643,8H24h-8H5.357C4.607,8,4,8.608,4,9.357v0.325C4,11.8,4.89,12.824,7,13l5.18,0.484l0.514,4.248     C12.912,19.041,14.044,20,15.371,20h8.973c1.327,0,2.459-0.959,2.677-2.268l0.724-4.241L33,13c2.11-0.176,3-1.2,3-3.318V9.357     C36,8.608,35.392,8,34.643,8L34.643,8z"/>
		</g>
	</g>
	<path style="fill:#4788C7;" d="M24.5,5h14C38.776,5,39,4.776,39,4.5v0C39,4.224,38.776,4,38.5,4h-14C24.224,4,24,4.224,24,4.5v0   C24,4.776,24.224,5,24.5,5z"/>
	<rect x="27" y="9" style="fill:#FFFFFF;" width="3" height="2"/>
	<rect x="10" y="9" style="fill:#FFFFFF;" width="3" height="2"/>
</g>
<g id="Layer_2">
</g>
</svg>
