<?xml version="1.0" encoding="iso-8859-1"?>
<!-- Generator: Adobe Illustrator 19.2.1, SVG Export Plug-In . SVG Version: 6.00 Build 0)  -->
<svg version="1.1" id="Layer_1" xmlns="http://www.w3.org/2000/svg" xmlns:xlink="http://www.w3.org/1999/xlink" x="0px" y="0px"
	 viewBox="0 0 40 40" style="enable-background:new 0 0 40 40;" xml:space="preserve">
<g>
	<rect x="1.5" y="16.5" style="fill:#DBF2FF;" width="37" height="7"/>
	<g>
		<path style="fill:#4E7AB5;" d="M38,17v6H2v-6H38 M39,16H1v8h38V16L39,16z"/>
	</g>
</g>
<g>
	<rect x="1.5" y="16.5" style="fill:#8BB7F0;" width="31" height="7"/>
	<g>
		<path style="fill:#4E7AB5;" d="M32,17v6H2v-6H32 M33,16H1v8h32V16L33,16z"/>
	</g>
</g>
<g>
	<rect x="1.5" y="4.5" style="fill:#DBF2FF;" width="37" height="7"/>
	<g>
		<path style="fill:#4E7AB5;" d="M38,5v6H2V5H38 M39,4H1v8h38V4L39,4z"/>
	</g>
</g>
<g>
	<rect x="1.5" y="4.5" style="fill:#8BB7F0;" width="12" height="7"/>
	<g>
		<path style="fill:#4E7AB5;" d="M13,5v6H2V5H13 M14,4H1v8h13V4L14,4z"/>
	</g>
</g>
<g>
	<rect x="1.5" y="28.5" style="fill:#DBF2FF;" width="37" height="7"/>
	<g>
		<path style="fill:#4E7AB5;" d="M38,29v6H2v-6H38 M39,28H1v8h38V28L39,28z"/>
	</g>
</g>
<g>
	<rect x="1.5" y="28.5" style="fill:#8BB7F0;" width="21" height="7"/>
	<g>
		<path style="fill:#4E7AB5;" d="M22,29v6H2v-6H22 M23,28H1v8h22V28L23,28z"/>
	</g>
</g>
</svg>
