<?xml version="1.0" encoding="iso-8859-1"?>
<!-- Generator: Adobe Illustrator 19.2.1, SVG Export Plug-In . SVG Version: 6.00 Build 0)  -->
<svg version="1.1" xmlns="http://www.w3.org/2000/svg" xmlns:xlink="http://www.w3.org/1999/xlink" x="0px" y="0px"
	 viewBox="0 0 40 40" style="enable-background:new 0 0 40 40;" xml:space="preserve">
<g id="Layer_1">
	<g>
		<rect x="28.5" y="3.5" style="fill:#F78F8F;" width="5" height="6.143"/>
		<g>
			<path style="fill:#C74343;" d="M33,4v5.143h-4V4H33 M34,3h-6v7.143h6V3L34,3z"/>
		</g>
	</g>
	<rect x="27" y="6" style="fill:#C74343;" width="8" height="2"/>
	<g>
		<rect x="6.5" y="3.5" style="fill:#8BB7F0;" width="5" height="6.143"/>
		<g>
			<path style="fill:#4E7AB5;" d="M11,4v5.143H7V4H11 M12,3H6v7.143h6V3L12,3z"/>
		</g>
	</g>
	<rect x="5" y="6" style="fill:#4E7AB5;" width="8" height="2"/>
	<g>
		<rect x="1.5" y="7.5" style="fill:#C8D1DB;" width="37" height="5"/>
		<g>
			<path style="fill:#66798F;" d="M38,8v4H2V8H38 M39,7H1v6h38V7L39,7z"/>
		</g>
	</g>
	<g>
		<rect x="1.5" y="12.5" style="fill:#DCD5F2;" width="37" height="24"/>
		<g>
			<path style="fill:#8B75A1;" d="M38,13v23H2V13H38 M39,12H1v25h38V12L39,12z"/>
		</g>
	</g>
	<rect x="25" y="23" style="fill:#8B75A1;" width="8" height="2"/>
	<rect x="25" y="23" transform="matrix(-1.836970e-16 1 -1 -1.836970e-16 53 -5)" style="fill:#8B75A1;" width="8" height="2"/>
	<rect x="7" y="23" style="fill:#8B75A1;" width="8" height="2"/>
</g>
<g id="Layer_2">
</g>
</svg>
