<?xml version="1.0" encoding="utf-8"?>
<!-- Generator: Adobe Illustrator 21.0.2, SVG Export Plug-In . SVG Version: 6.00 Build 0)  -->
<svg xmlns="http://www.w3.org/2000/svg" xmlns:xlink="http://www.w3.org/1999/xlink" version="1.1" id="Layer_1" x="0px" y="0px" viewBox="0 0 48 48" style="enable-background:new 0 0 48 48;" xml:space="preserve">
<path style="fill:#2196F3;" d="M7,42h10V32L7,42z"/>
<path style="fill:#2196F3;" d="M41,6L31,6v10L41,6z"/>
<path style="fill:#2196F3;" d="M27.3,8.3C26.1,8.1,24.8,8,23.6,8l-0.1-4c0.2,0,0.4,0,0.5,0c1.4,0,2.8,0.1,4.1,0.4L27.3,8.3z"/>
<path style="fill:#2196F3;" d="M16.8,9.7l-1.8-3.6c1.4-0.7,2.9-1.3,4.4-1.6l0.9,3.9C19,8.7,17.9,9.2,16.8,9.7z"/>
<path style="fill:#2196F3;" d="M12.3,40.2C7.1,36.5,4,30.4,4,24c0-5.9,2.6-11.5,7.1-15.3l2.6,3.1C10.1,14.8,8,19.3,8,24  c0,5.1,2.5,10,6.6,13L12.3,40.2z"/>
<path style="fill:#2196F3;" d="M24,44c-1.3,0-2.7-0.1-4-0.4l0.8-3.9c1.1,0.2,2.2,0.3,3.3,0.3c0.2,0,0.3,0,0.5,0l0.1,4  C24.4,44,24.2,44,24,44z"/>
<path style="fill:#2196F3;" d="M28.7,43.4l-0.9-3.9c1.2-0.3,2.4-0.7,3.5-1.3l1.8,3.6C31.7,42.5,30.2,43.1,28.7,43.4z"/>
<path style="fill:#2196F3;" d="M36.9,39.3l-2.6-3.1C37.9,33.2,40,28.7,40,24c0-5.1-2.5-10-6.7-13l2.3-3.2C40.9,11.5,44,17.6,44,24  C44,29.9,41.4,35.5,36.9,39.3z"/>
</svg>
