<?xml version="1.0" encoding="iso-8859-1"?>
<!-- Generator: Adobe Illustrator 19.2.1, SVG Export Plug-In . SVG Version: 6.00 Build 0)  -->
<svg version="1.1" id="Layer_1" xmlns="http://www.w3.org/2000/svg" xmlns:xlink="http://www.w3.org/1999/xlink" x="0px" y="0px"
	 viewBox="0 0 40 40" style="enable-background:new 0 0 40 40;" xml:space="preserve">
<g>
	<polygon style="fill:#DBF2FF;" points="2.5,38.5 2.5,10.267 19.997,3.536 37.5,10.267 37.5,38.5 	"/>
	<g>
		<path style="fill:#7496C4;" d="M19.997,4.071L37,10.61V38H3V10.61L19.997,4.071 M19.997,3L2,9.923V39h36V9.923L19.997,3L19.997,3z
			"/>
	</g>
</g>
<g>
	<polygon style="fill:#FFC49C;" points="19.997,5.457 1.5,13.247 1.5,9.332 19.997,1.543 38.5,9.332 38.5,13.247 	"/>
	<g>
		<path style="fill:#A16A4A;" d="M19.997,2.085L38,9.664v2.83L20.385,5.078l-0.388-0.163l-0.388,0.163L2,12.494v-2.83L19.997,2.085
			 M19.997,1L1,9v5l18.997-8L39,14V9L19.997,1L19.997,1z"/>
	</g>
</g>
<g>
	<path style="fill:#F78F8F;" d="M8.1,27.5c-0.882,0-1.6-0.673-1.6-1.5s0.718-1.5,1.6-1.5H31.9c0.882,0,1.6,0.673,1.6,1.5
		s-0.718,1.5-1.6,1.5H8.1z"/>
	<g>
		<path style="fill:#C74343;" d="M31.9,25c0.607,0,1.1,0.449,1.1,1s-0.493,1-1.1,1H8.1C7.493,27,7,26.551,7,26s0.493-1,1.1-1H31.9
			 M31.9,24H8.1C6.94,24,6,24.895,6,26s0.94,2,2.1,2h23.8c1.16,0,2.1-0.895,2.1-2S33.06,24,31.9,24L31.9,24z"/>
	</g>
</g>
<g>
	<path style="fill:#66798F;" d="M32,32.571V37c0,0.552-0.448,1-1,1h-3c-0.552,0-1-0.448-1-1v-4.429H32z"/>
</g>
<g>
	<path style="fill:#66798F;" d="M13,32.571V37c0,0.552-0.448,1-1,1H9c-0.552,0-1-0.448-1-1v-4.429H13z"/>
</g>
<g>
	<g>
		<path style="fill:#F78F8F;" d="M8.5,35.5v-7.419l0.975-2.923l2.303-6.127c0.31-0.923,1.153-1.531,2.107-1.531H26
			c0.954,0,1.798,0.608,2.101,1.514l2.435,6.17l0.965,2.897V35.5H8.5z"/>
	</g>
	<g>
		<path style="fill:#C74343;" d="M26,18c0.739,0,1.393,0.471,1.626,1.172l0.009,0.026l0.01,0.025l2.415,6.119l0.94,2.82V35H9v-6.838
			l0.936-2.81l2.323-6.18C12.492,18.471,13.146,18,13.885,18H26 M26,17H13.885c-1.168,0-2.206,0.748-2.575,1.856L9,25l-1,3v8h24v-8
			l-1-3l-2.425-6.144C28.206,17.748,27.168,17,26,17L26,17z"/>
	</g>
</g>
<circle style="fill:#FFFFFF;" cx="27.5" cy="29.5" r="1.5"/>
<circle style="fill:#FFFFFF;" cx="12.5" cy="29.5" r="1.5"/>
<g>
	<path style="fill:#C8D1DB;" d="M14.565,35.5l1.05-2.996c0.211-0.601,0.78-1.004,1.416-1.004h5.938c0.636,0,1.205,0.403,1.416,1.004
		l1.05,2.996H14.565z"/>
	<path style="fill:#66798F;" d="M22.969,32c0.424,0,0.803,0.269,0.944,0.669L24.729,35h-9.459l0.817-2.331
		c0.14-0.4,0.52-0.669,0.944-0.669H22.969 M22.969,31h-5.938c-0.85,0-1.606,0.537-1.887,1.339L13.861,36h12.279l-1.283-3.661
		C24.575,31.537,23.818,31,22.969,31L22.969,31z"/>
</g>
<g>
	<path style="fill:#C2E8FF;" d="M9.734,24.5l2.155-5.461C12.202,18.108,13.046,17.5,14,17.5h12c0.954,0,1.798,0.608,2.101,1.514
		l2.165,5.486H9.734z"/>
	<g>
		<path style="fill:#C74343;" d="M26,18c0.739,0,1.393,0.471,1.626,1.172l0.009,0.026l0.01,0.025L29.53,24H10.47l1.885-4.777
			l0.01-0.025l0.009-0.026C12.607,18.471,13.261,18,14,18H26 M26,17H14c-1.168,0-2.206,0.748-2.575,1.856L9,25h22l-2.425-6.144
			C28.206,17.748,27.168,17,26,17L26,17z"/>
	</g>
</g>
<rect x="8.382" y="25" style="fill:#F78F8F;" width="23.379" height="2"/>
</svg>
