<?xml version="1.0" encoding="iso-8859-1"?>
<!-- Generator: Adobe Illustrator 19.1.1, SVG Export Plug-In . SVG Version: 6.00 Build 0)  -->
<svg version="1.1" id="Layer_1" xmlns="http://www.w3.org/2000/svg" xmlns:xlink="http://www.w3.org/1999/xlink" x="0px" y="0px"
	 viewBox="0 0 40 40" style="enable-background:new 0 0 40 40;" xml:space="preserve">
<g>
	<g>
		<polygon style="fill:#8BB7F0;" points="2.5,37.5 2.5,27.207 6,30.707 13,23.707 16.293,27 9.293,34 12.793,37.5 		"/>
		<path style="fill:#4E7AB5;" d="M13,24.414L15.586,27l-6.293,6.293L8.586,34l0.707,0.707L11.586,37H3v-8.586l2.293,2.293L6,31.414
			l0.707-0.707L13,24.414 M13,23l-7,7l-4-4v12h12l-4-4l7-7L13,23L13,23z"/>
	</g>
	<g>
		<polygon style="fill:#8BB7F0;" points="6,9.293 2.5,12.793 2.5,2.5 12.793,2.5 9.293,6 16.293,13 13,16.293 		"/>
		<path style="fill:#4E7AB5;" d="M11.586,3L9.293,5.293L8.586,6l0.707,0.707L15.586,13L13,15.586L6.707,9.293L6,8.586L5.293,9.293
			L3,11.586V3H11.586 M14,2H2v12l4-4l7,7l4-4l-7-7L14,2L14,2z"/>
	</g>
	<g>
		<polygon style="fill:#8BB7F0;" points="27.207,37.5 30.703,34.004 23.671,26.813 26.989,23.696 34,30.707 37.5,27.207 37.5,37.5 
					"/>
		<path style="fill:#4E7AB5;" d="M26.978,24.392l6.315,6.315L34,31.414l0.707-0.707L37,28.414V37h-8.586l2.293-2.293l0.699-0.699
			l-0.691-0.707l-6.33-6.472L26.978,24.392 M27,23l-4.043,3.798L30,34l-4,4h12V26l-4,4L27,23L27,23z"/>
	</g>
	<g>
		<polygon style="fill:#8BB7F0;" points="23.707,13 30.707,6 27.207,2.5 37.5,2.5 37.5,12.793 34,9.293 27,16.293 		"/>
		<path style="fill:#4E7AB5;" d="M37,3v8.586l-2.293-2.293L34,8.586l-0.707,0.707L27,15.586L24.414,13l6.293-6.293L31.414,6
			l-0.707-0.707L28.414,3H37 M38,2H26l4,4l-7,7l4,4l7-7l4,4V2L38,2z"/>
	</g>
</g>
</svg>
