<?xml version="1.0" encoding="iso-8859-1"?>
<!-- Generator: Adobe Illustrator 19.1.1, SVG Export Plug-In . SVG Version: 6.00 Build 0)  -->
<svg version="1.1" id="Layer_1" xmlns="http://www.w3.org/2000/svg" xmlns:xlink="http://www.w3.org/1999/xlink" x="0px" y="0px"
	 viewBox="0 0 40 40" style="enable-background:new 0 0 40 40;" xml:space="preserve">
<g>
	<polygon style="fill:#B0C1D4;" points="23.609,6.635 31.055,1.567 37.31,4.248 35.893,6.988 31.053,5.084 25.155,9.276 	"/>
	<path style="fill:#66798F;" d="M31.11,2.135l5.509,2.361l-0.962,1.862l-4.168-1.641l-0.504-0.198l-0.442,0.314l-5.232,3.719
		l-1.034-1.767L31.11,2.135 M31,1l-8.058,5.484L25,10l6.122-4.352l5.008,1.971L38,4L31,1L31,1z"/>
</g>
<g>
	<polygon style="fill:#B0C1D4;" points="23.609,10.365 25.155,7.724 31.053,11.916 35.893,10.012 37.31,12.752 31.055,15.433 	"/>
	<path style="fill:#66798F;" d="M25.311,8.448l5.232,3.719l0.442,0.314l0.504-0.198l4.168-1.641l0.962,1.862l-5.509,2.361
		l-6.833-4.65L25.311,8.448 M25,7l-2.058,3.516L31,16l7-3l-1.87-3.619l-5.008,1.971L25,7L25,7z"/>
</g>
<g>
	<rect x="11.496" y="5.5" style="fill:#B0C1D4;" width="13.004" height="6"/>
	<path style="fill:#66798F;" d="M24,6v5H11.996V6H24 M25,5H10.996v7H25V5L25,5z"/>
</g>
<g>
	<polygon style="fill:#B0C1D4;" points="5.89,10.123 11.385,8.311 20.683,30.549 15.187,32.361 	"/>
	<path style="fill:#66798F;" d="M11.102,8.93l8.911,21.313l-4.543,1.498L6.559,10.428L11.102,8.93 M11.668,7.691L5.219,9.817
		l9.685,23.164l6.448-2.126L11.668,7.691L11.668,7.691z"/>
</g>
<g>
	<path style="fill:#FFEEA3;" d="M8,14.5c-3.032,0-5.5-2.468-5.5-5.5S4.968,3.5,8,3.5s5.5,2.468,5.5,5.5S11.032,14.5,8,14.5z"/>
	<path style="fill:#BA9B48;" d="M8,4c2.757,0,5,2.243,5,5s-2.243,5-5,5s-5-2.243-5-5S5.243,4,8,4 M8,3C4.686,3,2,5.686,2,9
		c0,3.314,2.686,6,6,6c3.314,0,6-2.686,6-6C14,5.686,11.314,3,8,3L8,3z"/>
</g>
<g>
	<path style="fill:#FFEEA3;" d="M24,12.5c-0.827,0-1.5-0.673-1.5-1.5V6c0-0.827,0.673-1.5,1.5-1.5h2.5v8H24z"/>
	<path style="fill:#BA9B48;" d="M26,5v7h-2c-0.551,0-1-0.449-1-1V6c0-0.551,0.449-1,1-1H26 M27,4h-3c-1.105,0-2,0.895-2,2v5
		c0,1.105,0.895,2,2,2h3V4L27,4z"/>
</g>
<g>
	<path style="fill:#FFEEA3;" d="M7.861,34.5l4.712-8.243c0.268-0.467,0.768-0.757,1.306-0.757h4.819c0.538,0,1.038,0.29,1.305,0.757
		l4.713,8.243H7.861z"/>
	<path style="fill:#BA9B48;" d="M18.699,26c0.359,0,0.693,0.194,0.871,0.505L23.854,34H8.723l4.284-7.495
		C13.186,26.194,13.519,26,13.878,26H18.699 M18.699,25h-4.82c-0.719,0-1.383,0.385-1.739,1.009L7,35h18.577l-5.139-8.991
		C20.081,25.385,19.417,25,18.699,25L18.699,25z"/>
</g>
<g>
	<circle style="fill:#B0C1D4;" cx="8" cy="9" r="1.5"/>
	<path style="fill:#66798F;" d="M8,8c0.551,0,1,0.449,1,1s-0.449,1-1,1S7,9.551,7,9S7.449,8,8,8 M8,7C6.895,7,6,7.895,6,9
		c0,1.105,0.895,2,2,2c1.105,0,2-0.895,2-2C10,7.895,9.105,7,8,7L8,7z"/>
</g>
<g>
	<circle style="fill:#B0C1D4;" cx="15.999" cy="30" r="1.5"/>
	<path style="fill:#66798F;" d="M15.999,29C16.551,29,17,29.449,17,30s-0.449,1-1.001,1c-0.552,0-1.001-0.449-1.001-1
		S15.448,29,15.999,29 M15.999,28c-1.105,0-2.001,0.895-2.001,2c0,1.105,0.896,2,2.001,2S18,31.105,18,30
		C18,28.895,17.104,28,15.999,28L15.999,28z"/>
</g>
<g>
	<path style="fill:#B0C1D4;" d="M5.5,38.5V37c0-1.379,1.121-2.5,2.5-2.5h24c1.379,0,2.5,1.121,2.5,2.5v1.5H5.5z"/>
	<path style="fill:#66798F;" d="M32,35c1.103,0,2,0.897,2,2v1H6v-1c0-1.103,0.897-2,2-2H32 M32,34H8c-1.65,0-3,1.35-3,3v2h30v-2
		C35,35.35,33.65,34,32,34L32,34z"/>
</g>
</svg>
