<?xml version="1.0" encoding="iso-8859-1"?>
<!-- Generator: Adobe Illustrator 20.1.0, SVG Export Plug-In . SVG Version: 6.00 Build 0)  -->
<svg version="1.1" id="Layer_1" xmlns="http://www.w3.org/2000/svg" xmlns:xlink="http://www.w3.org/1999/xlink" x="0px" y="0px"
	 viewBox="0 0 40 40" style="enable-background:new 0 0 40 40;" xml:space="preserve">
<g>
	<g>
		<polygon style="fill:#8BB7F0;" points="12.5,37.5 12.5,34.5 16.5,34.5 16.5,17.5 12.5,17.5 12.5,14.5 23.5,14.5 23.5,34.5 
			27.5,34.5 27.5,37.5 		"/>
	</g>
	<g>
		<path style="fill:#4E7AB5;" d="M23,15v19v1h1h3v2H13v-2h3h1v-1V18v-1h-1h-3v-2H23 M24,14H12v4h4v16h-4v4h16v-4h-4V14L24,14z"/>
	</g>
</g>
<g>
	<circle style="fill:#8BB7F0;" cx="20" cy="7" r="4.5"/>
	<path style="fill:#4E7AB5;" d="M20,3c2.206,0,4,1.794,4,4s-1.794,4-4,4s-4-1.794-4-4S17.794,3,20,3 M20,2c-2.761,0-5,2.239-5,5
		s2.239,5,5,5s5-2.239,5-5S22.761,2,20,2L20,2z"/>
</g>
</svg>
