<?xml version="1.0" encoding="utf-8"?>
<!-- Generator: Adobe Illustrator 21.0.2, SVG Export Plug-In . SVG Version: 6.00 Build 0)  -->
<svg xmlns="http://www.w3.org/2000/svg" xmlns:xlink="http://www.w3.org/1999/xlink" version="1.1" id="Layer_1" x="0px" y="0px" viewBox="0 0 40 40" style="enable-background:new 0 0 40 40;" xml:space="preserve">
<g>
	<polygon style="fill:#C2E8FF;" points="0.7,14.5 8.3,16.4 9.9,23.7 3.8,28.7  "/>
	<path style="fill:#7496C4;" d="M1.3,15.2l6.6,1.7l1.5,6.7l-5.3,4.3L1.3,15.2 M0,13.8l3.5,15.8l7-5.7L8.8,16L0,13.8L0,13.8z"/>
</g>
<path style="fill:#66798F;" d="M40,35H27c-1.7,0-3-1.3-3-3v-6.7h2V32c0,0.6,0.4,1,1,1h13V35z"/>
<g>
	<circle style="fill:#B0C1D4;" cx="25" cy="24" r="2.5"/>
	<g>
		<path style="fill:#66798F;" d="M25,22c1.1,0,2,0.9,2,2s-0.9,2-2,2s-2-0.9-2-2S23.9,22,25,22 M25,21c-1.7,0-3,1.3-3,3s1.3,3,3,3    s3-1.3,3-3S26.7,21,25,21L25,21z"/>
	</g>
</g>
<g>
	<path style="fill:#C2E8FF;" d="M11.1,27.4c-0.4,0-0.7-0.3-0.8-0.7L7.3,13.6c0-0.2,0-0.4,0.1-0.6c0.1-0.2,0.3-0.3,0.5-0.4l27.6-6.1   c0.1,0,0.1,0,0.2,0c0.4,0,0.7,0.3,0.8,0.7l2.9,13.1c0.1,0.5-0.2,0.9-0.6,1l-27.6,6.1C11.2,27.4,11.1,27.4,11.1,27.4z"/>
	<path style="fill:#7496C4;" d="M35.8,7c0.1,0,0.3,0.1,0.3,0.3L39,20.4c0,0.2-0.1,0.4-0.3,0.4l-27.6,6.1c0,0-0.1,0-0.1,0   c-0.1,0-0.3-0.1-0.3-0.3L7.8,13.5c0-0.2,0.1-0.4,0.3-0.4L35.8,7C35.7,7,35.7,7,35.8,7 M35.8,6c-0.1,0-0.2,0-0.3,0L7.9,12.1   c-0.7,0.2-1.2,0.9-1,1.6l2.9,13.1c0.1,0.6,0.7,1.1,1.3,1.1c0.1,0,0.2,0,0.3,0l27.6-6.1c0.7-0.2,1.2-0.9,1-1.6L37.1,7.1   C36.9,6.4,36.4,6,35.8,6L35.8,6z"/>
</g>
<rect x="24.2" y="18.1" transform="matrix(0.9766 -0.2149 0.2149 0.9766 -3.3102 6.8276)" style="fill:#7496C4;" width="11.2" height="1"/>
</svg>
