<?xml version="1.0"?>
<svg xmlns="http://www.w3.org/2000/svg" id="Layer_1" data-name="Layer 1" viewBox="0 0 64 64"><title>Dusk Part 4</title><circle cx="31" cy="31" r="28" style="fill:#f9e3ae;"/><path d="M31,3A28,28,0,1,0,59,31,28,28,0,0,0,31,3Zm0,47A19,19,0,1,1,44.1,17.24l.58.58q.33.35.65.71A19,19,0,0,1,31,50Z" style="fill:#f6d397;"/><path d="M31,2A29,29,0,1,0,60,31,29,29,0,0,0,31,2Zm0,56A27,27,0,1,1,58,31,27,27,0,0,1,31,58Z" style="fill:#8d6c9f;"/><path d="M12,31v2a1,1,0,0,0,2,0V31a1,1,0,0,0-2,0Z" style="fill:#ed7899;"/><path d="M48.89,37.49a1,1,0,0,0-1.31.53,18,18,0,0,1-34.32-4.07A17.36,17.36,0,0,1,13.05,30,18,18,0,0,1,46,21H41a1,1,0,0,0,0,2h7a1,1,0,0,0,1-1V14.92a1,1,0,0,0-2,0V19A20,20,0,1,0,49.42,38.8,1,1,0,0,0,48.89,37.49Z" style="fill:#8d6c9f;"/><path d="M17,31v2a1,1,0,0,0,2,0V31a1,1,0,0,0-2,0Z" style="fill:#ed7899;"/><path d="M22,31v2a1,1,0,0,0,2,0V31a1,1,0,0,0-2,0Z" style="fill:#ed7899;"/><path d="M38,31v2a1,1,0,0,0,2,0V31a1,1,0,0,0-2,0Z" style="fill:#ed7899;"/><path d="M43,31v2a1,1,0,0,0,2,0V31a1,1,0,0,0-2,0Z" style="fill:#ed7899;"/><path d="M49,30a1,1,0,0,0-1,1v2a1,1,0,0,0,2,0V31A1,1,0,0,0,49,30Z" style="fill:#ed7899;"/><path d="M31,38a1,1,0,0,0,1-1V35.43l.88-13.35a1.93,1.93,0,0,0-.51-1.46,1.86,1.86,0,0,0-1.07-.56A1,1,0,0,0,31,20a1,1,0,0,0-.23,0,1.88,1.88,0,0,0-1.22.57,1.92,1.92,0,0,0-.51,1.44l.92,14h0V37A1,1,0,0,0,31,38Z" style="fill:#ed7899;"/><circle cx="31.04" cy="42" r="2" style="fill:#ed7899;"/></svg>
