<?xml version="1.0" encoding="iso-8859-1"?>
<!-- Generator: Adobe Illustrator 19.1.1, SVG Export Plug-In . SVG Version: 6.00 Build 0)  -->
<svg version="1.1" id="Layer_1" xmlns="http://www.w3.org/2000/svg" xmlns:xlink="http://www.w3.org/1999/xlink" x="0px" y="0px"
	 viewBox="0 0 40 40" style="enable-background:new 0 0 40 40;" xml:space="preserve">
<rect x="31" y="34" style="fill:#66798F;" width="1" height="5"/>
<rect x="8" y="34" style="fill:#66798F;" width="1" height="5"/>
<g>
	<rect x="6" y="24" style="fill:#B0C1D4;" width="28" height="1"/>
	<polygon style="fill:#66798F;" points="34,24 6,24 6,25 34,25 34,24 	"/>
</g>
<g>
	<circle style="fill:#F78F8F;" cx="34.5" cy="24.5" r="1"/>
	<path style="fill:#C74343;" d="M34.5,24c0.276,0,0.5,0.224,0.5,0.5S34.776,25,34.5,25S34,24.776,34,24.5S34.224,24,34.5,24
		 M34.5,23c-0.828,0-1.5,0.672-1.5,1.5s0.672,1.5,1.5,1.5s1.5-0.672,1.5-1.5S35.328,23,34.5,23L34.5,23z"/>
</g>
<g>
	<circle style="fill:#F78F8F;" cx="5.5" cy="24.5" r="1"/>
	<path style="fill:#C74343;" d="M5.5,24C5.776,24,6,24.224,6,24.5S5.776,25,5.5,25S5,24.776,5,24.5S5.224,24,5.5,24 M5.5,23
		C4.672,23,4,23.672,4,24.5S4.672,26,5.5,26S7,25.328,7,24.5S6.328,23,5.5,23L5.5,23z"/>
</g>
<g>
	<rect x="19.5" y="21.5" style="fill:#B0C1D4;" width="1" height="6"/>
	<path style="fill:#66798F;" d="M20,22v5V22 M21,21h-2v7h2V21L21,21z"/>
</g>
<g>
	<path style="fill:#E1EBF2;" d="M8.5,35.5v-6.387l7.851-16.485c0.598,0.822,1.468,1.423,2.463,1.694L8.685,35.5H8.5z"/>
	<path style="fill:#A3B7CC;" d="M16.473,13.534c0.469,0.463,1.029,0.832,1.647,1.081L9,33.682v-4.456L16.473,13.534 M16.311,11.547
		L8,29v7h1l10.544-22.046C18.084,13.786,16.859,12.852,16.311,11.547L16.311,11.547z"/>
</g>
<g>
	<path style="fill:#E1EBF2;" d="M31.315,35.5L21.187,14.322c0.995-0.271,1.865-0.872,2.463-1.694L31.5,29.113V35.5H31.315z"/>
	<path style="fill:#A3B7CC;" d="M23.527,13.534L31,29.226v4.456l-9.119-19.068C22.498,14.365,23.058,13.997,23.527,13.534
		 M23.689,11.547c-0.548,1.305-1.773,2.24-3.233,2.407L31,36h1v-7L23.689,11.547L23.689,11.547z"/>
</g>
<g>
	<rect x="19.5" y="1.5" style="fill:#B0C1D4;" width="1" height="4"/>
	<g>
		<path style="fill:#66798F;" d="M20,2v3V2 M21,1h-2v5h2V1L21,1z"/>
	</g>
</g>
<g>
	<g>
		<path style="fill:#66798F;" d="M20,6c2.206,0,4,1.794,4,4s-1.794,4-4,4s-4-1.794-4-4S17.794,6,20,6 M20,5c-2.761,0-5,2.239-5,5
			s2.239,5,5,5s5-2.239,5-5S22.761,5,20,5L20,5z"/>
	</g>
</g>
</svg>
