<?xml version="1.0" encoding="iso-8859-1"?>
<!-- Generator: Adobe Illustrator 19.2.1, SVG Export Plug-In . SVG Version: 6.00 Build 0)  -->
<svg version="1.1" xmlns="http://www.w3.org/2000/svg" xmlns:xlink="http://www.w3.org/1999/xlink" x="0px" y="0px"
	 viewBox="0 0 40 40" style="enable-background:new 0 0 40 40;" xml:space="preserve">
<g id="Layer_1">
	<g>
		<polygon style="fill:#8BB7F0;" points="10.085,8.052 13.07,6.526 27.003,9.458 18.486,12.736 		"/>
		<g>
			<path style="fill:#4E7AB5;" d="M13.14,7.051l12.104,2.548l-6.719,2.586l-7.379-4.114L13.14,7.051 M13,6L9.024,8.033l9.423,5.254
				l10.313-3.97L13,6L13,6z"/>
		</g>
	</g>
	<g>
		<g>
			<path style="fill:#C2E8FF;" d="M8.696,22.496c-1.255,0-2.406-0.633-3.079-1.694l-4.915-8.748l3.197-1.459l4.34,4.137
				l25.398-9.776c0.562-0.222,1.117-0.334,1.654-0.334c1.629,0,2.803,1.01,3.501,1.857c0.627,0.82,0.854,2.178,0.541,3.287
				c-0.171,0.606-0.572,1.405-1.514,1.767l-24.994,9.626l-2.822,1.093C9.585,22.414,9.145,22.496,8.696,22.496
				C8.697,22.496,8.697,22.496,8.696,22.496z"/>
		</g>
		<g>
			<path style="fill:#7496C4;" d="M35.292,5.122L35.292,5.122c1.433,0,2.485,0.911,3.093,1.648c0.549,0.717,0.741,1.893,0.468,2.861
				c-0.14,0.496-0.464,1.149-1.213,1.437l-24.996,9.627l-2.819,1.092c-0.363,0.14-0.742,0.21-1.128,0.21
				c-1.076,0-2.062-0.538-2.644-1.441l-4.649-8.271L3.8,11.191l3.865,3.684l0.458,0.437l0.591-0.227l25.112-9.665
				C34.325,5.222,34.818,5.122,35.292,5.122 M35.292,4.122c-0.585,0-1.198,0.116-1.834,0.367L8.355,14.151L4,10l-4,1.825
				l5.195,9.244c0.778,1.228,2.115,1.926,3.502,1.926c0.497,0,1.001-0.09,1.487-0.277l2.821-1.092L38,12
				c2.288-0.881,2.458-4.167,1.179-5.838h0C38.149,4.912,36.817,4.122,35.292,4.122L35.292,4.122z"/>
		</g>
	</g>
	<g>
		<polygon style="fill:#8BB7F0;" points="20.139,18.342 28.643,15.069 20.648,29.602 16.738,31.166 		"/>
		<g>
			<path style="fill:#4E7AB5;" d="M27.545,16.027l-7.248,13.177l-2.82,1.128l3.079-11.615L27.545,16.027 M29.74,14.111l-10.02,3.857
				L16,32l5-2L29.74,14.111L29.74,14.111z"/>
		</g>
	</g>
	<rect x="1" y="35" style="fill:#788B9C;" width="38" height="1"/>
</g>
<g id="Layer_2">
</g>
</svg>
