<?xml version="1.0" encoding="iso-8859-1"?>
<!-- Generator: Adobe Illustrator 19.2.0, SVG Export Plug-In . SVG Version: 6.00 Build 0)  -->
<svg version="1.1" id="Layer_1" xmlns="http://www.w3.org/2000/svg" xmlns:xlink="http://www.w3.org/1999/xlink" x="0px" y="0px"
	 viewBox="0 0 40 40" style="enable-background:new 0 0 40 40;" xml:space="preserve">
<g>
	<path style="fill:#FFFFFF;" d="M3,30.5c-1.378,0-2.5-1.122-2.5-2.5v-9l1.457-9.387C1.963,8.414,2.877,7.5,4,7.5h27.673
		c1.186,0,2.293,0.668,2.89,1.743l4.582,7.982C39.372,17.754,39.5,18.369,39.5,19v9c0,1.378-1.122,2.5-2.5,2.5H3z"/>
	<path style="fill:#788B9C;" d="M31.673,8c1.004,0,1.944,0.569,2.46,1.498l4.55,7.925C38.893,17.925,39,18.455,39,19v3v4.167V28
		c0,1.103-0.897,2-2,2h-3h-3H4H3c-1.103,0-2-0.897-2-2v-0.958V23v-3.923L2.451,9.69l0.012-0.076V9.537C2.463,8.69,3.152,8,4,8
		H31.673 M31.673,7H4C2.599,7,1.463,8.136,1.463,9.537L0,19v4v4.042V28c0,1.657,1.343,3,3,3h1h0h27h3h3c1.657,0,3-1.343,3-3v-1.833
		V22v-3c0-0.697-0.143-1.386-0.421-2.024L35,9C34.329,7.792,33.055,7,31.673,7L31.673,7z"/>
</g>
<g>
	<rect x="0.5" y="22.5" style="fill:#F78F8F;" width="39" height="2"/>
	<path style="fill:#C74343;" d="M39,23v1H1v-1H39 M40,22H0v3h40V22L40,22z"/>
</g>
<g>
	<polygon style="fill:#F78F8F;" points="11.5,19.5 11.5,16.5 8.5,16.5 8.5,13.5 11.5,13.5 11.5,10.5 14.5,10.5 14.5,13.5 17.5,13.5 
		17.5,16.5 14.5,16.5 14.5,19.5 	"/>
	<path style="fill:#C74343;" d="M14,11v2v1h1h2v2h-2h-1v1v2h-2v-2v-1h-1H9v-2h2h1v-1v-2H14 M15,10h-4v3H8v4h3v3h4v-3h3v-4h-3V10
		L15,10z"/>
</g>
<g>
	<path style="fill:#F78F8F;" d="M19.634,7.5l0.825-3.437c0.08-0.332,0.358-0.563,0.678-0.563h1.727c0.319,0,0.598,0.232,0.678,0.563
		L24.366,7.5H19.634z"/>
	<g>
		<path style="fill:#C74343;" d="M22.863,4c0.087,0,0.166,0.074,0.192,0.18L23.732,7h-3.463l0.677-2.82
			C20.971,4.074,21.049,4,21.137,4H22.863 M22.863,3h-1.726c-0.551,0-1.031,0.39-1.164,0.947L19,8h6l-0.973-4.053
			C23.894,3.39,23.414,3,22.863,3L22.863,3z"/>
	</g>
</g>
<g>
	<path style="fill:#C2E8FF;" d="M28,19.5c-0.276,0-0.5-0.224-0.5-0.5v-8c0-0.276,0.224-0.5,0.5-0.5h7.285l3.86,6.725
		C39.372,17.754,39.5,18.369,39.5,19v0.5H28z"/>
	<path style="fill:#788B9C;" d="M34.995,11l3.687,6.423C38.893,17.925,39,18.455,39,19H28v-8H34.995 M35.574,10H28
		c-0.552,0-1,0.448-1,1v8c0,0.552,0.448,1,1,1h12v-1c0-0.697-0.143-1.386-0.421-2.024L35.574,10L35.574,10z"/>
</g>
<g>
	<circle style="fill:#C8D1DB;" cx="31.5" cy="30.5" r="4"/>
	<path style="fill:#66798F;" d="M31.5,27c1.93,0,3.5,1.57,3.5,3.5S33.43,34,31.5,34S28,32.43,28,30.5S29.57,27,31.5,27 M31.5,26
		c-2.485,0-4.5,2.015-4.5,4.5s2.015,4.5,4.5,4.5s4.5-2.015,4.5-4.5S33.985,26,31.5,26L31.5,26z"/>
</g>
<g>
	<circle style="fill:#66798F;" cx="31.5" cy="30.5" r="1.5"/>
</g>
<g>
	<circle style="fill:#C8D1DB;" cx="8.5" cy="30.5" r="4"/>
	<path style="fill:#66798F;" d="M8.5,27c1.93,0,3.5,1.57,3.5,3.5S10.43,34,8.5,34S5,32.43,5,30.5S6.57,27,8.5,27 M8.5,26
		C6.015,26,4,28.015,4,30.5S6.015,35,8.5,35s4.5-2.015,4.5-4.5S10.985,26,8.5,26L8.5,26z"/>
</g>
<g>
	<circle style="fill:#66798F;" cx="8.5" cy="30.5" r="1.5"/>
</g>
</svg>
