<svg xmlns="http://www.w3.org/2000/svg" viewBox="0 0 40 40"><path d="M3 30.5A2.503 2.503 0 0 1 .5 28v-9l1.457-9.387C1.963 8.414 2.877 7.5 4 7.5h27.673c1.186 0 2.293.668 2.89 1.743l4.582 7.982c.227.529.355 1.144.355 1.775v9c0 1.378-1.122 2.5-2.5 2.5H3z" fill="#fff"/><path d="M31.673 8c1.004 0 1.944.569 2.46 1.498l4.55 7.925c.21.502.317 1.032.317 1.577v9c0 1.103-.897 2-2 2H3c-1.103 0-2-.897-2-2v-8.923L2.451 9.69l.012-.076v-.077C2.463 8.69 3.152 8 4 8h27.673m0-1H4a2.537 2.537 0 0 0-2.537 2.537L0 19v9a3 3 0 0 0 3 3h34a3 3 0 0 0 3-3v-9c0-.697-.143-1.386-.421-2.024L35 9c-.671-1.208-1.945-2-3.327-2z" fill="#788b9c"/><path fill="#f78f8f" d="M.5 22.5h39v2H.5z"/><path d="M39 23v1H1v-1h38m1-1H0v3h40v-3z" fill="#c74343"/><path fill="#f78f8f" d="M11.5 19.5v-3h-3v-3h3v-3h3v3h3v3h-3v3z"/><path d="M14 11v3h3v2h-3v3h-2v-3H9v-2h3v-3h2m1-1h-4v3H8v4h3v3h4v-3h3v-4h-3v-3z" fill="#c74343"/><path d="M19.634 7.5l.825-3.437c.08-.332.358-.563.678-.563h1.727c.319 0 .598.232.678.563l.824 3.437h-4.732z" fill="#f78f8f"/><path d="M22.863 4c.087 0 .166.074.192.18L23.732 7h-3.463l.677-2.82c.025-.106.103-.18.191-.18h1.726m0-1h-1.726c-.551 0-1.031.39-1.164.947L19 8h6l-.973-4.053A1.209 1.209 0 0 0 22.863 3z" fill="#c74343"/><path d="M28 19.5a.5.5 0 0 1-.5-.5v-8a.5.5 0 0 1 .5-.5h7.285l3.86 6.725c.227.529.355 1.144.355 1.775v.5H28z" fill="#c2e8ff"/><path d="M34.995 11l3.687 6.423c.211.502.318 1.032.318 1.577H28v-8h6.995m.579-1H28a1 1 0 0 0-1 1v8a1 1 0 0 0 1 1h12v-1c0-.697-.143-1.386-.421-2.024L35.574 10z" fill="#788b9c"/><circle cx="31.5" cy="30.5" r="4" fill="#c8d1db"/><path d="M31.5 27c1.93 0 3.5 1.57 3.5 3.5S33.43 34 31.5 34 28 32.43 28 30.5s1.57-3.5 3.5-3.5m0-1a4.5 4.5 0 1 0 0 9 4.5 4.5 0 0 0 0-9z" fill="#66798f"/><circle cx="31.5" cy="30.5" r="1.5" fill="#66798f"/><circle cx="8.5" cy="30.5" r="4" fill="#c8d1db"/><path d="M8.5 27c1.93 0 3.5 1.57 3.5 3.5S10.43 34 8.5 34 5 32.43 5 30.5 6.57 27 8.5 27m0-1a4.5 4.5 0 1 0 0 9 4.5 4.5 0 0 0 0-9z" fill="#66798f"/><circle cx="8.5" cy="30.5" r="1.5" fill="#66798f"/></svg>