<svg xmlns="http://www.w3.org/2000/svg" viewBox="0 0 40 40"><circle cx="7.5" cy="8.5" r="6" fill="#e1ebf2"/><path d="M7.5 3C10.533 3 13 5.467 13 8.5S10.533 14 7.5 14 2 11.533 2 8.5 4.467 3 7.5 3m0-1a6.5 6.5 0 1 0 0 13 6.5 6.5 0 0 0 0-13z" fill="#788b9c"/><path fill="#36404d" d="M7 8h23v1H7z"/><path fill="#66798f" d="M19 12h1v9h-1z"/><path d="M7 37.5A2.503 2.503 0 0 1 4.5 35V21c0-1.378 1.122-2.5 2.5-2.5h25c1.378 0 2.5 1.122 2.5 2.5v14c0 1.378-1.122 2.5-2.5 2.5H7z" fill="#8bb7f0"/><path d="M32 19c1.103 0 2 .897 2 2v14c0 1.103-.897 2-2 2H7c-1.103 0-2-.897-2-2V21c0-1.103.897-2 2-2h25m0-1H7c-1.65 0-3 1.35-3 3v14c0 1.65 1.35 3 3 3h25c1.65 0 3-1.35 3-3V21c0-1.65-1.35-3-3-3z" fill="#4e7ab5"/><path fill="#fff" d="M9.5 23.5h20v9h-20z"/><path d="M29 24v8H10v-8h19m1-1H9v10h21V23z" fill="#4e7ab5"/><path fill="#4e7ab5" d="M15 24h-1v3h1v-3z"/><path fill="#c74343" d="M20 24h-1v3h1v-3z"/><path fill="#4e7ab5" d="M25 24h-1v3h1v-3z"/><path fill="#36404d" d="M21.5 27l1.5 5h-3z"/><circle cx="31.5" cy="8.5" r="6" fill="#e1ebf2"/><path d="M31.5 3C34.533 3 37 5.467 37 8.5S34.533 14 31.5 14 26 11.533 26 8.5 28.467 3 31.5 3m0-1a6.5 6.5 0 1 0 0 13 6.5 6.5 0 0 0 0-13z" fill="#788b9c"/><circle cx="31.5" cy="8.5" r="3.5" fill="#66798f"/><path d="M16.5 2.5c3.309 0 6 2.691 6 6s-2.691 6-6 6v-12z" fill="#e1ebf2"/><path d="M17 3.023c2.799.253 5 2.613 5 5.477s-2.201 5.224-5 5.477V3.023M16.5 2H16v13h.5a6.5 6.5 0 1 0 0-13z" fill="#788b9c"/></svg>