<svg xmlns="http://www.w3.org/2000/svg" data-name="Layer 1" viewBox="0 0 64 64"><path d="M13 11v48a2 2 0 0 0 2 2h34a2 2 0 0 0 2-2V11a2 2 0 0 0-2-2h-7.31a1.77 1.77 0 0 1-.69-.13 2 2 0 0 1-1.28-1.54l-.44-2.66a2 2 0 0 0-2-1.67H26.69a2 2 0 0 0-2 1.67l-.44 2.66A2 2 0 0 1 23 8.87a1.77 1.77 0 0 1-.69.13H15a2 2 0 0 0-2 2z" fill="#c2cde7"/><path fill="#b5c4e0" d="M51 49H40V9h11z"/><path fill="#ced8ed" d="M24 49H13V9h11z"/><path d="M41 8.87V9H23v-.13a2 2 0 0 0 1.28-1.54l.44-2.66a2 2 0 0 1 2-1.67h10.59a2 2 0 0 1 2 1.67l.44 2.66A2 2 0 0 0 41 8.87z" fill="#ffeb9b"/><path d="M49.13 61H15.18A2.18 2.18 0 0 1 13 58.82V33h38v26.13A1.87 1.87 0 0 1 49.13 61z" fill="#72caaf"/><path d="M49 61h-9V33h11v26a2 2 0 0 1-2 2z" fill="#5dbc9d"/><path d="M24 61h-9.4a1.6 1.6 0 0 1-1.6-1.6V33h11v28z" fill="#82d8bb"/><path d="M49 8h-7.31a1 1 0 0 1-1-.84l-.44-2.66a3 3 0 0 0-3-2.51H26.69a3 3 0 0 0-3 2.51l-.44 2.66a1 1 0 0 1-1 .84H15a3 3 0 0 0-3 3v48a3 3 0 0 0 3 3h34a3 3 0 0 0 3-3V11a3 3 0 0 0-3-3zm1 51a1 1 0 0 1-1 1H15a1 1 0 0 1-1-1V34h25a1 1 0 0 0 0-2H14V11a1 1 0 0 1 1-1h21a1 1 0 0 0 0-2H25.13a3 3 0 0 0 .13-.51l.44-2.66a1 1 0 0 1 1-.84h10.61a1 1 0 0 1 1 .84l.44 2.66a3 3 0 0 0 3 2.51H49a1 1 0 0 1 1 1z" fill="#8d6c9f"/><path d="M17 54a1 1 0 0 0-1 1v2a1 1 0 0 0 2 0v-2a1 1 0 0 0-1-1zm5 0a1 1 0 0 0-1 1v2a1 1 0 0 0 2 0v-2a1 1 0 0 0-1-1zm5 0a1 1 0 0 0-1 1v2a1 1 0 0 0 2 0v-2a1 1 0 0 0-1-1zm5 0a1 1 0 0 0-1 1v2a1 1 0 0 0 2 0v-2a1 1 0 0 0-1-1zm5 0a1 1 0 0 0-1 1v2a1 1 0 0 0 2 0v-2a1 1 0 0 0-1-1zm5 0a1 1 0 0 0-1 1v2a1 1 0 0 0 2 0v-2a1 1 0 0 0-1-1zm5 0a1 1 0 0 0-1 1v2a1 1 0 0 0 2 0v-2a1 1 0 0 0-1-1zm0-22h-4a1 1 0 0 0 0 2h4a1 1 0 0 0 0-2z" fill="#8d6c9f"/></svg>