<svg xmlns="http://www.w3.org/2000/svg" viewBox="0 0 40 40"><path fill="#f78f8f" d="M28.5 3.5h5v6.143h-5z"/><path d="M33 4v5.143h-4V4h4m1-1h-6v7.143h6V3z" fill="#c74343"/><path fill="#c74343" d="M27 6h8v2h-8z"/><path fill="#8bb7f0" d="M6.5 3.5h5v6.143h-5z"/><path d="M11 4v5.143H7V4h4m1-1H6v7.143h6V3z" fill="#4e7ab5"/><path fill="#4e7ab5" d="M5 6h8v2H5z"/><path fill="#c8d1db" d="M1.5 7.5h37v5h-37z"/><path d="M38 8v4H2V8h36m1-1H1v6h38V7z" fill="#66798f"/><path fill="#dcd5f2" d="M1.5 12.5h37v24h-37z"/><path d="M38 13v23H2V13h36m1-1H1v25h38V12z" fill="#8b75a1"/><path fill="#8b75a1" d="M25 23h8v2h-8z"/><path fill="#8b75a1" d="M30 20v8h-2v-8zM7 23h8v2H7z"/></svg>