<svg xmlns="http://www.w3.org/2000/svg" viewBox="0 0 48 48"><path d="M36 4H26c0 1.1-.9 2-2 2s-2-.9-2-2H12C9.8 4 8 5.8 8 8v32c0 2.2 1.8 4 4 4h24c2.2 0 4-1.8 4-4V8c0-2.2-1.8-4-4-4z" fill="#375a64"/><path d="M36 41H12c-.6 0-1-.4-1-1V8c0-.6.4-1 1-1h24c.6 0 1 .4 1 1v32c0 .6-.4 1-1 1z" fill="#fff"/><path d="M26 4c0 1.1-.9 2-2 2s-2-.9-2-2h-7v4c0 1.1.9 2 2 2h14c1.1 0 2-.9 2-2V4h-7z" fill="#87a4af"/><path d="M24 0c-2.2 0-4 1.8-4 4s1.8 4 4 4 4-1.8 4-4-1.8-4-4-4zm0 6c-1.1 0-2-.9-2-2s.9-2 2-2 2 .9 2 2-.9 2-2 2z" fill="#87a4af"/><path d="M32 25c0 4.4-3.6 8-8 8s-8-3.6-8-8 3.6-8 8-8 8 3.6 8 8" fill="#00a03d"/><path fill="#d5edc7" d="M23.117 29.031l-3.824-3.824 1.414-1.414 2.426 2.426 4.668-4.559 1.398 1.43z"/></svg>