<svg xmlns="http://www.w3.org/2000/svg" viewBox="0 0 40 40"><path d="M2.5 37.5v-35h35V35c0 1.4-1.1 2.5-2.5 2.5H2.5z" fill="#fff"/><path d="M37 3v32c0 1.1-.9 2-2 2H3V3h34m1-1H2v36h33c1.7 0 3-1.3 3-3V2z" fill="#788b9c"/><path fill="#f78f8f" d="M2.5 2.5h35v5h-35z"/><path d="M37 3v4H3V3h34m1-1H2v6h36V2z" fill="#c74343"/><path fill="#c5d4de" d="M13 14h2v2h-2zm8 0h2v2h-2zm4 0h2v2h-2zm4 0h2v2h-2zM9 18h2v2H9zm4 0h2v2h-2zm8 0h2v2h-2zm4 0h2v2h-2zm4 0h2v2h-2zM9 26h2v2H9zm4 0h2v2h-2zm8 0h2v2h-2zm-4-12h2v2h-2zm0 4h2v2h-2zm-8 4h2v2H9zm4 0h2v2h-2zm8 0h2v2h-2zm4 0h2v2h-2zm4 0h2v2h-2zm-12 0h2v2h-2zm0 4h2v2h-2zm8 0h2v2h-2z"/><path fill="#e1ebf2" d="M3 34h34v3H3z"/><path d="M31 39.5c-4.7 0-8.5-3.8-8.5-8.5s3.8-8.5 8.5-8.5 8.5 3.8 8.5 8.5-3.8 8.5-8.5 8.5z" fill="#bae0bd"/><path d="M31 23c4.4 0 8 3.6 8 8s-3.6 8-8 8-8-3.6-8-8 3.6-8 8-8m0-1c-5 0-9 4-9 9s4 9 9 9 9-4 9-9-4-9-9-9z" fill="#5e9c76"/><path fill="#fff" d="M30 26h2v10h-2z"/><path fill="#fff" d="M26 30h10v2H26z"/></svg>