<svg xmlns="http://www.w3.org/2000/svg" width="48" height="48"><path fill="#FFF" d="M43 39a5 5 0 0 1-5 5H14a5 5 0 0 1-5-5V12a5 5 0 0 1 5-5h24a5 5 0 0 1 5 5v27z"/><path fill="#263238" d="M27.621 15H18.08L18 37h4v-9h5.621c4.5 0 7.379-2.021 7.379-6.341C35 18.42 33.2 15 27.621 15zm-.182 10H22v-7h5.439c2.341 0 3.78 1.141 3.78 3.659.001 2.88-2.338 3.341-3.78 3.341z"/><path fill="#8BC34A" d="M38 7H19v2h19c1.654 0 3 1.346 3 3v27c0 1.654-1.346 3-3 3H14c-1.654 0-3-1.346-3-3V14H9v25a5 5 0 0 0 5 5h24a5 5 0 0 0 5-5V12a5 5 0 0 0-5-5z"/><path d="M7 3h2v6H7zm4 0h2v6h-2z" fill="#FFC107"/><path fill="#689F38" d="M5 12a3 3 0 0 0 3 3h4a3 3 0 0 0 3-3V7H5v5z"/></svg>