<svg xmlns="http://www.w3.org/2000/svg" viewBox="0 0 40 40"><path fill="#c2e8ff" d="M0 6h40v28H0z"/><path fill="#8bb7f0" d="M0 19h40v1H0z"/><path fill="#7496c4" d="M1 6h2v1H1zm8 0h2v1H9zM5 6h2v1H5zm8 0h2v1h-2zm4 0h2v1h-2zm4 0h2v1h-2zm4 0h2v1h-2zm8 0h2v1h-2zm-4 0h2v1h-2zm8 0h2v1h-2zM1 33h2v1H1zm8 0h2v1H9zm-4 0h2v1H5zm8 0h2v1h-2zm4 0h2v1h-2zm4 0h2v1h-2zm4 0h2v1h-2zm8 0h2v1h-2zm-4 0h2v1h-2zm8 0h2v1h-2z"/><path d="M14.6 31c-3.7 0-5-5.4-6.2-10.6-.9-3.7-2-8.4-3.8-8.4C2.1 12 2 14.7 2 15H0c0-1.7 1-5 4.6-5 3.3 0 4.5 4.8 5.7 9.9 1 4 2.2 9.1 4.3 9.1.8 0 1.2-.6 1.8-2.1.7-1.6 1.7-3.9 4.6-3.9 4.1 0 5.9-3.8 7.7-7.6 1.6-3.3 3.1-6.4 6.2-6.4 4 0 5.1 3.9 5.1 6h-2c0-.4-.1-4-3.1-4-1.8 0-3 2.5-4.4 5.3-1.8 3.9-4.1 8.7-9.5 8.7-1.5 0-2 1-2.8 2.7-.6 1.5-1.5 3.3-3.6 3.3z" fill="#4e7ab5"/></svg>