<svg xmlns="http://www.w3.org/2000/svg" viewBox="0 0 40 40"><path fill="#8bb7f0" d="M5.5 5.5h3v33h-3z"/><path d="M8 6v32H6V6h2m1-1H5v34h4V5z" fill="#4e7ab5"/><circle cx="7" cy="3" r="1.5" fill="#8bb7f0"/><path d="M7 2c.551 0 1 .449 1 1s-.449 1-1 1-1-.449-1-1 .449-1 1-1m0-1a2 2 0 1 0-.001 3.999A2 2 0 0 0 7 1z" fill="#4e7ab5"/><path fill="#e1ebf2" d="M5.5 5.5h29v19h-29z"/><path d="M34 6v18H6V6h28m1-1H5v20h30V5z" fill="#a3b7cc"/><path fill="#839cb2" d="M10.5 5.5h4v4h-4z"/><path d="M14 6v3h-3V6h3m1-1h-5v5h5V5z" fill="#66798f"/><path fill="#839cb2" d="M15.5 10.5h4v4h-4z"/><path d="M19 11v3h-3v-3h3m1-1h-5v5h5v-5z" fill="#66798f"/><path fill="#839cb2" d="M30.5 5.5h4v4h-4z"/><path d="M34 6v3h-3V6h3m1-1h-5v5h5V5z" fill="#66798f"/><path fill="#839cb2" d="M20.5 5.5h4v4h-4z"/><path d="M24 6v3h-3V6h3m1-1h-5v5h5V5z" fill="#66798f"/><path fill="#839cb2" d="M25.5 10.5h4v4h-4z"/><path d="M29 11v3h-3v-3h3m1-1h-5v5h5v-5z" fill="#66798f"/><path fill="#839cb2" d="M10.5 15.5h4v4h-4z"/><path d="M14 16v3h-3v-3h3m1-1h-5v5h5v-5z" fill="#66798f"/><path fill="#839cb2" d="M15.5 20.5h4v4h-4z"/><path d="M19 21v3h-3v-3h3m1-1h-5v5h5v-5z" fill="#66798f"/><path fill="#839cb2" d="M5.5 10.5h4v4h-4z"/><path d="M9 11v3H6v-3h3m1-1H5v5h5v-5z" fill="#66798f"/><path fill="#839cb2" d="M5.5 20.5h4v4h-4z"/><path d="M9 21v3H6v-3h3m1-1H5v5h5v-5z" fill="#66798f"/><path fill="#839cb2" d="M30.5 15.5h4v4h-4z"/><path d="M34 16v3h-3v-3h3m1-1h-5v5h5v-5z" fill="#66798f"/><path fill="#839cb2" d="M20.5 15.5h4v4h-4z"/><path d="M24 16v3h-3v-3h3m1-1h-5v5h5v-5z" fill="#66798f"/><path fill="#839cb2" d="M25.5 20.5h4v4h-4z"/><path d="M29 21v3h-3v-3h3m1-1h-5v5h5v-5z" fill="#66798f"/></svg>