<svg xmlns="http://www.w3.org/2000/svg" viewBox="0 0 40 40"><path fill="#66798f" d="M31 34h1v5h-1zM8 34h1v5H8z"/><path fill="#b0c1d4" d="M6 24h28v1H6z"/><path fill="#66798f" d="M34 24H6v1h28v-1z"/><circle cx="34.5" cy="24.5" r="1" fill="#f78f8f"/><path d="M34.5 24a.5.5 0 1 1 0 1 .5.5 0 0 1 0-1m0-1a1.5 1.5 0 1 0 .001 3.001A1.5 1.5 0 0 0 34.5 23z" fill="#c74343"/><circle cx="5.5" cy="24.5" r="1" fill="#f78f8f"/><path d="M5.5 24a.5.5 0 1 1 0 1 .5.5 0 0 1 0-1m0-1a1.5 1.5 0 1 0 .001 3.001A1.5 1.5 0 0 0 5.5 23z" fill="#c74343"/><path fill="#b0c1d4" d="M19.5 21.5h1v6h-1z"/><path d="M20 22v5-5m1-1h-2v7h2v-7z" fill="#66798f"/><path d="M8.5 35.5v-6.387l7.851-16.485a4.514 4.514 0 0 0 2.463 1.694L8.685 35.5H8.5z" fill="#e1ebf2"/><path d="M16.473 13.534a5.012 5.012 0 0 0 1.647 1.081L9 33.682v-4.456l7.473-15.692m-.162-1.987L8 29v7h1l10.544-22.046a3.99 3.99 0 0 1-3.233-2.407z" fill="#a3b7cc"/><path d="M31.315 35.5L21.187 14.322a4.514 4.514 0 0 0 2.463-1.694l7.85 16.485V35.5h-.185z" fill="#e1ebf2"/><path d="M23.527 13.534L31 29.226v4.456l-9.119-19.068a5.015 5.015 0 0 0 1.646-1.08m.162-1.987a3.989 3.989 0 0 1-3.233 2.407L31 36h1v-7l-8.311-17.453z" fill="#a3b7cc"/><path fill="#b0c1d4" d="M19.5 1.5h1v4h-1z"/><path d="M20 2v3-3m1-1h-2v5h2V1z" fill="#66798f"/><path d="M20 6c2.206 0 4 1.794 4 4s-1.794 4-4 4-4-1.794-4-4 1.794-4 4-4m0-1a5 5 0 1 0 .001 10.001A5 5 0 0 0 20 5z" fill="#66798f"/></svg>