<svg xmlns="http://www.w3.org/2000/svg" width="40" height="40"><path d="M16.586 11.719l4.82-4.824A4.737 4.737 0 0 1 24.773 5.5c1.274 0 2.47.496 3.372 1.395l1.332 1.335L36 1.707 38.293 4l-6.523 6.523 1.335 1.332a4.774 4.774 0 0 1 0 6.739l-4.824 4.82zm0 0" fill="#b0c1d4"/><path d="M36 2.414L37.586 4l-6.523 6.523 1.687 1.688a4.267 4.267 0 0 1 0 6.031l-4.469 4.469L17.29 11.719l4.469-4.469A4.234 4.234 0 0 1 24.773 6a4.22 4.22 0 0 1 3.016 1.25l1.688 1.688L36 2.413M36 1l-6.523 6.523-.98-.98A5.25 5.25 0 0 0 24.772 5a5.25 5.25 0 0 0-3.722 1.543l-5.172 5.176L28.28 24.12l5.176-5.172a5.267 5.267 0 0 0 0-7.445l-.98-.98L39 4zm0 0" fill="#66798f"/><path d="M12.484 13.7l2.067-2.067c.644-.645 1.469-1.012 2.261-1.012.563 0 1.043.188 1.399.54L28.84 21.788c.879.879.664 2.52-.477 3.66l-2.066 2.067zm0 0" fill="#b0c1d4"/><path d="M16.813 11.121c.296 0 .718.066 1.042.39l10.633 10.634c.668.668.453 2.02-.476 2.949L26.3 26.809l-13.11-13.11 1.715-1.71c.543-.544 1.254-.868 1.906-.868m0-1c-.886 0-1.851.399-2.613 1.16L11.777 13.7l14.524 14.524 2.418-2.422c1.34-1.336 1.55-3.29.476-4.363L18.566 10.805c-.464-.461-1.086-.684-1.753-.684zm0 0" fill="#66798f"/><path d="M1.707 36l6.523-6.523-1.335-1.332a4.774 4.774 0 0 1 0-6.739l4.824-4.82L23.414 28.28l-4.82 4.824a4.737 4.737 0 0 1-3.367 1.395 4.746 4.746 0 0 1-3.372-1.395l-1.332-1.335L4 38.293zm0 0" fill="#b0c1d4"/><path d="M11.719 17.29L22.71 28.28l-4.469 4.469A4.25 4.25 0 0 1 15.227 34a4.22 4.22 0 0 1-3.016-1.25l-1.688-1.688L4 37.587 2.414 36l6.524-6.523-1.688-1.688a4.263 4.263 0 0 1 0-6.027l4.469-4.473m0-1.41L6.543 21.05a5.267 5.267 0 0 0 0 7.445l.98.98L1 36l3 3 6.523-6.523.98.98A5.25 5.25 0 0 0 15.228 35a5.25 5.25 0 0 0 3.722-1.543l5.172-5.176zm0 0" fill="#66798f"/><path d="M23.324 29.46a2.152 2.152 0 0 1-1.535-.62L11.16 18.21c-.879-.878-.816-2.366.133-3.315l1.727-1.727L26.832 26.98l-1.727 1.727c-.48.48-1.128.754-1.78.754zm0 0" fill="#b0c1d4"/><path d="M13.016 13.875l13.109 13.11-1.371 1.37a2.04 2.04 0 0 1-1.43.606c-.453 0-.875-.168-1.18-.477L11.513 17.855c-.684-.683-.621-1.851.133-2.609l1.37-1.371m0-1.414l-2.078 2.078c-1.148 1.149-1.207 2.95-.132 4.024l10.633 10.632a2.646 2.646 0 0 0 1.886.766c.762 0 1.535-.3 2.137-.898l2.078-2.079zm0 0" fill="#66798f"/></svg>