<svg height="40" viewBox="0 0 40 40" width="40" xmlns="http://www.w3.org/2000/svg"><g stroke="#4788c7"><path d="m1.5 6.5h37v25h-37zm0 0" fill="#fff"/><path d="m13.519531 34.5c.253907-3.351562 3.066407-6 6.480469-6s6.226562 2.648438 6.480469 6zm0 0" fill="#b6dcfe"/><path d="m12 11.5c-3.589844 0-6.5 2.910156-6.5 6.5s2.910156 6.5 6.5 6.5 6.5-2.910156 6.5-6.5-2.910156-6.5-6.5-6.5zm0 0" fill="#dff0fe"/><path d="m12.5 17.5v-5.980469c3.1875.242188 5.738281 2.792969 5.980469 5.980469zm0 0" fill="#98ccfd"/></g><path d="m23.5 17h11c.277344 0 .5-.222656.5-.5s-.222656-.5-.5-.5h-11c-.277344 0-.5.222656-.5.5s.222656.5.5.5z" fill="#4788c7"/><path d="m31 17h3.5c.277344 0 .5-.222656.5-.5s-.222656-.5-.5-.5h-3.5zm0 0" fill="#98ccfd"/><path d="m23.5 13h11c.277344 0 .5-.222656.5-.5s-.222656-.5-.5-.5h-11c-.277344 0-.5.222656-.5.5s.222656.5.5.5zm0 0" fill="#4788c7"/><path d="m32 13h2.5c.277344 0 .5-.222656.5-.5s-.222656-.5-.5-.5h-2.5zm0 0" fill="#98ccfd"/><path d="m23.5 21h11c.277344 0 .5-.222656.5-.5s-.222656-.5-.5-.5h-11c-.277344 0-.5.222656-.5.5s.222656.5.5.5zm0 4h11c.277344 0 .5-.222656.5-.5s-.222656-.5-.5-.5h-11c-.277344 0-.5.222656-.5.5s.222656.5.5.5zm0 0" fill="#4788c7"/><path d="m32 21h2.5c.277344 0 .5-.222656.5-.5s-.222656-.5-.5-.5h-2.5zm-4 4h6.5c.277344 0 .5-.222656.5-.5s-.222656-.5-.5-.5h-6.5zm0 0" fill="#98ccfd"/></svg>