<svg xmlns="http://www.w3.org/2000/svg" viewBox="0 0 40 40"><path fill="#dbf2ff" d="M2.5 38.5V10.267l17.497-6.731L37.5 10.267V38.5z"/><path d="M19.997 4.071L37 10.61V38H3V10.61l16.997-6.539m0-1.071L2 9.923V39h36V9.923L19.997 3z" fill="#7496c4"/><path fill="#ffc49c" d="M19.997 5.457L1.5 13.247V9.332l18.497-7.789L38.5 9.332v3.915z"/><path d="M19.997 2.085L38 9.664v2.83L20.385 5.078l-.388-.163-.388.163L2 12.494v-2.83l17.997-7.579m0-1.085L1 9v5l18.997-8L39 14V9L19.997 1z" fill="#a16a4a"/><path d="M8.1 27.5c-.882 0-1.6-.673-1.6-1.5s.718-1.5 1.6-1.5h23.8c.882 0 1.6.673 1.6 1.5s-.718 1.5-1.6 1.5H8.1z" fill="#f78f8f"/><path d="M31.9 25c.607 0 1.1.449 1.1 1s-.493 1-1.1 1H8.1c-.607 0-1.1-.449-1.1-1s.493-1 1.1-1h23.8m0-1H8.1c-1.16 0-2.1.895-2.1 2s.94 2 2.1 2h23.8c1.16 0 2.1-.895 2.1-2s-.94-2-2.1-2z" fill="#c74343"/><path d="M32 32.571V37a1 1 0 0 1-1 1h-3a1 1 0 0 1-1-1v-4.429h5zm-19 0V37a1 1 0 0 1-1 1H9a1 1 0 0 1-1-1v-4.429h5z" fill="#66798f"/><path d="M8.5 35.5v-7.419l.975-2.923 2.303-6.127a2.22 2.22 0 0 1 2.107-1.531H26c.954 0 1.798.608 2.101 1.514l2.435 6.17.965 2.897V35.5H8.5z" fill="#f78f8f"/><path d="M26 18c.739 0 1.393.471 1.626 1.172l.009.026.01.025 2.415 6.119.94 2.82V35H9v-6.838l.936-2.81 2.323-6.18A1.711 1.711 0 0 1 13.885 18H26m0-1H13.885a2.715 2.715 0 0 0-2.575 1.856L9 25l-1 3v8h24v-8l-1-3-2.425-6.144A2.715 2.715 0 0 0 26 17z" fill="#c74343"/><circle cx="27.5" cy="29.5" r="1.5" fill="#fff"/><circle cx="12.5" cy="29.5" r="1.5" fill="#fff"/><path d="M14.565 35.5l1.05-2.996a1.502 1.502 0 0 1 1.416-1.004h5.938c.636 0 1.205.403 1.416 1.004l1.05 2.996h-10.87z" fill="#c8d1db"/><path d="M22.969 32c.424 0 .803.269.944.669L24.729 35H15.27l.817-2.331c.14-.4.52-.669.944-.669h5.938m0-1h-5.938a2 2 0 0 0-1.887 1.339L13.861 36H26.14l-1.283-3.661A2.002 2.002 0 0 0 22.969 31z" fill="#66798f"/><path d="M9.734 24.5l2.155-5.461A2.225 2.225 0 0 1 14 17.5h12c.954 0 1.798.608 2.101 1.514l2.165 5.486H9.734z" fill="#c2e8ff"/><path d="M26 18c.739 0 1.393.471 1.626 1.172l.009.026.01.025L29.53 24H10.47l1.885-4.777.01-.025.009-.026A1.711 1.711 0 0 1 14 18h12m0-1H14a2.715 2.715 0 0 0-2.575 1.856L9 25h22l-2.425-6.144A2.715 2.715 0 0 0 26 17z" fill="#c74343"/><path fill="#f78f8f" d="M8.382 25h23.379v2H8.382z"/></svg>