<svg height="40" viewBox="0 0 40 40" width="40" xmlns="http://www.w3.org/2000/svg"><path d="m14.893 13.314h8.994v2.594h-8.994z" fill="#ffeea3" stroke="#ba9b48" transform="matrix(.70709444 -.70711912 .70711912 .70709444 -4.651572 17.99039)"/><path d="m20.893 19.314h8.994v2.594h-8.994z" fill="#ffeea3" stroke="#ba9b48" transform="matrix(.70709444 -.70711912 .70711912 .70709444 -7.136853 23.990538)"/><g fill="#b0c1d4" stroke="#66798f"><path d="m20.438 7.862 4.822-4.822c.9-.899 2.096-1.395 3.368-1.395s2.468.496 3.368 1.395l1.334 1.335 2.67-2.668 2.293 2.293-2.668 2.668 1.335 1.334c1.857 1.857 1.857 4.879 0 6.737l-4.822 4.822z"/><path d="m16.34 9.846 2.066-2.067c.644-.644 1.468-1.013 2.261-1.013.562 0 1.044.187 1.397.539l10.63 10.63c.877.878.665 2.519-.475 3.658l-2.067 2.066z"/><path d="m11.178 38.548c-1.272 0-2.468-.496-3.368-1.395l-1.334-1.335-2.476 2.475-2.293-2.293 2.475-2.475-1.335-1.335c-1.857-1.857-1.857-4.879 0-6.737l4.822-4.822 11.699 11.699-4.822 4.822c-.9.9-2.096 1.396-3.368 1.396z"/><path d="m19.278 33.51c-.589 0-1.135-.221-1.536-.622l-10.63-10.63c-.877-.878-.818-2.365.133-3.316l1.725-1.725 13.814 13.813-1.725 1.725c-.48.48-1.129.755-1.781.755z"/></g></svg>