<svg xmlns="http://www.w3.org/2000/svg" width="40" height="40"><path d="M6.5 37.5v-35h18.293l8.707 8.707V37.5zm0 0" fill="#fff"/><path d="M24.586 3L33 11.414V37H7V3h17.586M25 2H6v36h28V11zm0 0" fill="#788b9c"/><path d="M23.188 38H34V20.941c-.328-.097-.66-.18-1-.246V37H22.39c.247.352.512.684.797 1zm0 0" fill="#c5d4de"/><path d="M24.5 11.5v-9h.293l8.707 8.707v.293zm0 0" fill="#fff"/><path d="M25 3.414L32.586 11H25V3.414M25 2h-1v10h10v-1zm0 0" fill="#788b9c"/><path d="M31 22.5a8.499 8.499 0 0 0-8.5 8.5c0 4.695 3.805 8.5 8.5 8.5s8.5-3.805 8.5-8.5-3.805-8.5-8.5-8.5zm0 0" fill="#bae0bd"/><path d="M31 23c4.41 0 8 3.59 8 8s-3.59 8-8 8-8-3.59-8-8 3.59-8 8-8m0-1c-4.973 0-9 4.027-9 9s4.027 9 9 9 9-4.027 9-9-4.027-9-9-9zm0 0" fill="#5e9c76"/><path d="M31 36V26m-5 5h10" fill="none" stroke-width="2" stroke="#fff" stroke-miterlimit="10"/></svg>