<svg xmlns="http://www.w3.org/2000/svg" width="40" height="40"><path d="M6.5 37.5v-35h18.293l8.707 8.707V37.5zm0 0" fill="#fff"/><path d="M24.586 3L33 11.414V37H7V3h17.586M25 2H6v36h28V11zm0 0" fill="#788b9c"/><path d="M20.676 38H34V22.242l-1 .992V37H20.996zm0 0" fill="#c5d4de"/><path d="M24.5 11.5v-9h.293l8.707 8.707v.293zm0 0" fill="#fff"/><path d="M25 3.414L32.586 11H25V3.414M25 2h-1v10h10v-1zm0 0" fill="#788b9c"/><path d="M24.266 34.676l1.664-1.668 3.285 2.86-1.867 1.87-4.567 1.485zm0 0" fill="#f5ce85"/><path d="M25.953 33.691l2.531 2.204-1.406 1.406-3.515 1.14 1.14-3.5 1.25-1.25m-.047-1.367l-2.082 2.082L22 40.004l5.613-1.828 2.336-2.332zm0 0" fill="#967a44"/><path d="M23.063 36.758l-1.06 3.246 3.255-1.059zm0 0" fill="#36404d"/><path d="M34.906 24.02l.883-.883c.41-.41.957-.637 1.54-.637a2.176 2.176 0 0 1 1.535 3.71l-.884.884zm0 0" fill="#f78f8f"/><path d="M37.328 23c.445 0 .867.176 1.184.488a1.68 1.68 0 0 1 0 2.367l-.532.532-2.367-2.367.532-.532A1.673 1.673 0 0 1 37.328 23m0-1c-.683 0-1.367.262-1.89.781l-1.239 1.239 3.781 3.78 1.239-1.238a2.676 2.676 0 0 0 0-3.78 2.678 2.678 0 0 0-1.89-.782zm0 0" fill="#c74343"/><path d="M27.895 37.191a1.15 1.15 0 0 0-.122-.16c-.218-.258-.52-.426-.898-.496-.176-.793-.805-1.21-1.383-1.36a1.544 1.544 0 0 0-.715-1.015l8.516-8.523 3.074 3.07zm0 0" fill="#ffeea3"/><path d="M33.293 26.344l2.367 2.363-7.75 7.762a2.055 2.055 0 0 0-.633-.344c-.254-.703-.812-1.133-1.382-1.348a2.045 2.045 0 0 0-.383-.644l7.781-7.79m0-1.417l-9.465 9.48h.016c.136 0 1.191.035 1.191 1.203 0 0 1.39.043 1.39 1.387 1.38 0 1.188 1.184 1.188 1.184l9.461-9.473zm0 0" fill="#ba9b48"/><path d="M32.832 26.098l2.3-2.301 3.071 3.07-2.3 2.301zm0 0" fill="#d9e7f5"/><path d="M35.133 24.504l2.363 2.363-1.594 1.598-2.363-2.367 1.594-1.594m0-1.414l-3.008 3.008 3.777 3.78 3.008-3.01zm0 0" fill="#788b9c"/></svg>