<svg xmlns="http://www.w3.org/2000/svg" viewBox="0 0 48 48"><path d="M10 18c-.6 0-1-.4-1-1v-7c0-.6.4-1 1-1s1 .4 1 1v7c0 .6-.4 1-1 1zm29-1v-7c0-.6-.4-1-1-1s-1 .4-1 1v7c0 .6.4 1 1 1s1-.4 1-1z" fill="#455a64"/><path d="M39 39h-2c0-7.9-1.5-16-13-16s-13 8.1-13 16H9c0-4.9 0-18 15-18s15 13.1 15 18zM11 18H9c-.6 0-1-.4-1-1v-3c0-.6.4-1 1-1h2c.6 0 1 .4 1 1v3c0 .6-.4 1-1 1zm28 0h-2c-.6 0-1-.4-1-1v-3c0-.6.4-1 1-1h2c.6 0 1 .4 1 1v3c0 .6-.4 1-1 1z" fill="#90a4ae"/><path d="M9 12H0v-2h9v2zm28-2h-9v2h9v-2zm5 7c0 1.1-.9 2-2 2 0 0-9-.1-9 3v2c0 1.1-.9 2-2 2H19c-1.1 0-2-.9-2-2v-2c0-3.1-9-3-9-3-1.1 0-2-.9-2-2s.9-2 2-2h32c1.1 0 2 .9 2 2zm-22-5h-9v-2h9v2zm28 0h-9v-2h9v2z" fill="#b0bec5"/><path d="M15 15v2c0 .6-.4 1-1 1s-1-.4-1-1v-2h2zm18 0v2c0 .6.4 1 1 1s1-.4 1-1v-2h-2z" fill="#ff3d00"/></svg>