<svg xmlns="http://www.w3.org/2000/svg" width="40" height="40"><path d="M8 3h1v7H8zm0 0" fill="#36404d"/><path d="M1 4h15v1H1zm0 0" fill="#66798f"/><path d="M31 3h1v7h-1zm0 0" fill="#36404d"/><path d="M4.5 37v-8c0-7.414 6.086-13 13.5-13h4c7.414 0 13.5 5.586 13.5 13v8" fill="none" stroke="#66798f" stroke-miterlimit="10"/><path d="M15.371 19.5a2.207 2.207 0 0 1-2.184-1.852l-.558-4.625-5.582-.52C5.21 12.353 4.5 11.56 4.5 9.684v-.328c0-.472.383-.855.855-.855h29.29c.472 0 .855.383.855.855v.329c0 1.875-.71 2.664-2.543 2.82l-5.64.523-.79 4.621a2.207 2.207 0 0 1-2.183 1.852zm0 0" fill="#c8d1db"/><path d="M34.645 9c.195 0 .355.16.355.355v.329c0 1.625-.508 2.187-2.094 2.32l-5.254.492-.765.07-.13.754-.722 4.246A1.712 1.712 0 0 1 24.344 19H15.37c-.84 0-1.555-.602-1.684-1.387l-.515-4.25-.098-.8-.8-.075-5.192-.484C5.508 11.87 5 11.309 5 9.684v-.329C5 9.16 5.16 9 5.355 9h29.29m0-1H5.355C4.605 8 4 8.61 4 9.355v.329c0 2.117.89 3.14 3 3.316l5.18.484.515 4.246A2.71 2.71 0 0 0 15.371 20h8.973a2.71 2.71 0 0 0 2.676-2.27l.726-4.238L33 13c2.11-.176 3-1.2 3-3.316v-.329A1.36 1.36 0 0 0 34.645 8zM24 4h15v1H24zm0 0" fill="#66798f"/><path d="M27 8h3v3h-3zM10 8h3v3h-3zm0 0" fill="#c74343"/></svg>