<svg xmlns="http://www.w3.org/2000/svg" viewBox="0 0 40 40"><path d="M8.5 3a.5.5 0 0 0-.5.5v6a.5.5 0 0 0 1 0v-6a.5.5 0 0 0-.5-.5z" fill="#4788c7"/><path d="M1.5 5h14a.5.5 0 0 0 0-1h-14a.5.5 0 0 0 0 1zm30-2a.5.5 0 0 0-.5.5v6a.5.5 0 0 0 1 0v-6a.5.5 0 0 0-.5-.5z" fill="#4788c7"/><path d="M4.5 36.5V29c0-7.413 6.087-13 13.5-13h4c7.413 0 13.5 5.587 13.5 13v7.5" fill="none" stroke="#4788c7" stroke-linecap="round" stroke-miterlimit="10"/><path d="M15.371 19.5a2.207 2.207 0 0 1-2.184-1.85l-.559-4.626-5.581-.521C5.212 12.35 4.5 11.559 4.5 9.682v-.325c0-.473.384-.857.857-.857h29.286c.473 0 .857.384.857.857v.325c0 1.877-.712 2.667-2.542 2.82l-5.642.526-.789 4.62a2.208 2.208 0 0 1-2.185 1.852h-8.971z" fill="#b6dcfe"/><path d="M34.643 9c.197 0 .357.16.357.357v.325c0 1.626-.506 2.19-2.093 2.322l-5.255.491-.764.071-.129.756-.725 4.245A1.708 1.708 0 0 1 24.344 19h-8.973c-.841 0-1.553-.602-1.685-1.388l-.514-4.248-.097-.801-.803-.075-5.189-.485C5.506 11.872 5 11.308 5 9.682v-.325C5 9.16 5.16 9 5.357 9h29.286m0-1H5.357C4.607 8 4 8.608 4 9.357v.325C4 11.8 4.89 12.824 7 13l5.18.484.514 4.248A2.713 2.713 0 0 0 15.371 20h8.973a2.713 2.713 0 0 0 2.677-2.268l.724-4.241L33 13c2.11-.176 3-1.2 3-3.318v-.325C36 8.608 35.392 8 34.643 8zM24.5 5h14a.5.5 0 0 0 0-1h-14a.5.5 0 0 0 0 1z" fill="#4788c7"/><path fill="#fff" d="M27 9h3v2h-3zM10 9h3v2h-3z"/></svg>