<svg xmlns="http://www.w3.org/2000/svg" viewBox="0 0 40 40"><path d="M2.5 36.5v-33h35V36c0 .3-.2.5-.5.5H2.5z" fill="#fff"/><path d="M37 4v32H3V4h34m1-1H2v34h35c.6 0 1-.4 1-1V3z" fill="#788b9c"/><path fill="#8bb7f0" d="M13 28h18v1H13z"/><path d="M20.9 37H38V20.1c-.2 0-.4-.1-.7-.1H37v16H21.2l-.3 1z" fill="#c8d1db"/><path fill="#c2e8ff" d="M26.4 29H31v-1h-3.6z"/><path fill="#788b9c" d="M2 3h36v6H2z"/><path fill="#8bb7f0" d="M13 16h18v1H13zm-4 0h1v1H9zm4 4h18v1H13zm-4 0h1v1H9zm4 4h18v1H13zm-4 0h1v1H9zm0 4h1v1H9z"/><path fill="#f5ce85" d="M24.3 34.7l1.6-1.7 3.3 2.9-1.9 1.8-4.5 1.5z"/><path d="M26 33.7l2.5 2.2-1.4 1.4-3.5 1.1 1.1-3.5 1.3-1.2m-.1-1.4l-2.1 2.1L22 40l5.6-1.8 2.3-2.3-4-3.6z" fill="#967a44"/><path fill="#36404d" d="M23.1 36.8L22 40l3.3-1.1z"/><path d="M34.9 24l.9-.9c.4-.4 1-.6 1.5-.6.6 0 1.1.2 1.5.6.8.8.8 2.2 0 3.1l-.8.9-3.1-3.1z" fill="#f78f8f"/><path d="M37.3 23c.4 0 .9.2 1.2.5.3.3.5.7.5 1.2s-.2.9-.5 1.2l-.5.5-2.4-2.4.5-.5c.4-.3.8-.5 1.2-.5m0-1c-.7 0-1.4.3-1.9.8L34.2 24l3.8 3.8 1.2-1.2c1-1 1-2.7 0-3.8-.5-.5-1.2-.8-1.9-.8z" fill="#c74343"/><path d="M27.9 37.2c0-.1-.1-.1-.1-.2-.2-.3-.5-.4-.9-.5-.2-.8-.8-1.2-1.4-1.4-.1-.5-.4-.8-.7-1l8.5-8.5 3.1 3.1-8.5 8.5z" fill="#ffeea3"/><path d="M33.3 26.3l2.4 2.4-7.8 7.8c-.2-.1-.4-.3-.6-.3-.3-.7-.8-1.1-1.4-1.3-.1-.2-.2-.5-.4-.6l7.8-8m0-1.4l-9.5 9.5c.1 0 1.2 0 1.2 1.2 0 0 1.4 0 1.4 1.4 1.4 0 1.2 1.2 1.2 1.2l9.5-9.5-3.8-3.8z" fill="#ba9b48"/><path fill="#d9e7f5" d="M32.833 26.082l2.334-2.333 3.04 3.04-2.333 2.334z"/><path d="M35.1 24.5l2.4 2.4-1.6 1.6-2.4-2.4 1.6-1.6m0-1.4l-3 3 3.8 3.8 3-3-3.8-3.8z" fill="#788b9c"/></svg>