<svg xmlns="http://www.w3.org/2000/svg" viewBox="0 0 40 40" width="40px" height="40px"><path fill="#f5ce85" d="M25.165 17.313H39.369V20.151999999999997H25.165z" transform="rotate(-45.001 32.267 18.733)"/><path fill="#967a44" d="M36.285,13.414l1.301,1.301l-9.337,9.337l-1.301-1.301L36.285,13.414 M36.285,12L25.534,22.751 l2.715,2.715L39,14.715L36.285,12L36.285,12z"/><path fill="#f5ce85" d="M14.165 6.313H28.369V9.152H14.165z" transform="rotate(-45.001 21.267 7.733)"/><path fill="#967a44" d="M25.285,2.414l1.301,1.301l-9.337,9.337l-1.301-1.301L25.285,2.414 M25.285,1L14.534,11.751 l2.715,2.715L28,3.715L25.285,1L25.285,1z"/><path fill="#b0c1d4" d="M1.006 28.478H17.28V33.236000000000004H1.006z" transform="rotate(-45.001 9.144 30.859)"/><path fill="#66798f" d="M13.214,24.129l2.657,2.657l-10.8,10.8l-2.657-2.657L13.214,24.129 M13.214,22.714L1,34.929 L5.071,39l12.214-12.214L13.214,22.714L13.214,22.714z"/><path fill="#b0c1d4" d="M1.492 31.358H12.036000000000001V35.116H1.492z" transform="rotate(-45.001 6.763 33.237)"/><g><path fill="#b0c1d4" d="M16.51,37.5c-1.199,0-2.327-0.467-3.175-1.314l-9.521-9.521C2.967,25.817,2.5,24.689,2.5,23.491 c0-1.199,0.467-2.327,1.314-3.175l5.475-5.475c0.648-0.647,1.005-1.509,1.005-2.425c0-0.747-0.237-1.458-0.677-2.047l0.354-0.354 l20.013,20.013l-0.354,0.354c-0.589-0.439-1.3-0.677-2.047-0.677c-0.916,0-1.777,0.356-2.425,1.005l-5.475,5.475 C18.836,37.033,17.708,37.5,16.51,37.5z"/><path fill="#66798f" d="M10.663,11.414l17.919,17.919c-0.322-0.084-0.657-0.127-0.999-0.127 c-1.05,0-2.037,0.409-2.779,1.151l-5.474,5.474C18.576,36.585,17.574,37,16.509,37c-1.066,0-2.067-0.415-2.821-1.168l-9.52-9.52 c-1.555-1.555-1.555-4.086,0-5.642l5.474-5.474C10.666,14.173,11.006,12.722,10.663,11.414 M9.972,9.309l-1.036,1.036 c1.144,1.144,1.144,3,0,4.144l-5.474,5.474c-1.948,1.948-1.948,5.107,0,7.056l9.52,9.52C13.955,37.513,15.232,38,16.509,38 c1.277,0,2.554-0.487,3.528-1.461l5.474-5.474c0.572-0.572,1.322-0.858,2.072-0.858c0.75,0,1.5,0.286,2.072,0.858l1.036-1.036 L9.972,9.309L9.972,9.309z"/></g><g><path fill="#b0c1d4" d="M18.938 3.017H23.798V34.248000000000005H18.938z" transform="rotate(-45.001 21.368 18.633)"/><path fill="#66798f" d="M12.044,6.579l21.377,21.377l-2.73,2.73L9.314,9.309L12.044,6.579 M12.044,5.165L7.9,9.309 L30.691,32.1l4.144-4.144L12.044,5.165L12.044,5.165z"/></g><path fill="#66798f" d="M14.571 30.857L17.286 25.429 14.571 24.222 14.571 20 11.857 25.391 14.571 26.597z"/></svg>