<svg xmlns="http://www.w3.org/2000/svg" width="40" height="40"><path fill="#99c89d" d="M12.261 23.496l2.65 5.013 7.964-9.793L7.892 14.72 18.232 2.5h7.645l-8.795 9.772 14.99 3.998-13.91 15.114 4.53 2.456-13.053 3.473z"/><path fill="#709373" d="M24.755 3l-7.498 8.331-1.093 1.214 1.578.421 13.402 3.574-12.916 14.033-.869.944 1.128.612 2.861 1.551-11.069 2.945 2.207-11.634 1.63 3.083.706 1.336.954-1.172 7-8.607.975-1.199-1.493-.398-13.475-3.593L18.464 3h6.291M27 2h-9L7 15l15 4-7 8.607L12.036 22 9 38l15.036-4-5.071-2.75L33 16l-15-4 9-10z"/></svg>