<svg xmlns="http://www.w3.org/2000/svg" viewBox="0 0 40 40"><path fill="#8bb7f0" d="M2.5 37.5V27.207l3.5 3.5 7-7L16.293 27l-7 7 3.5 3.5z"/><path d="M13 24.414L15.586 27l-6.293 6.293-.707.707.707.707L11.586 37H3v-8.586l2.293 2.293.707.707.707-.707L13 24.414M13 23l-7 7-4-4v12h12l-4-4 7-7-4-4z" fill="#4e7ab5"/><path fill="#8bb7f0" d="M6 9.293l-3.5 3.5V2.5h10.293L9.293 6l7 7L13 16.293z"/><path d="M11.586 3L9.293 5.293 8.586 6l.707.707L15.586 13 13 15.586 6.707 9.293 6 8.586l-.707.707L3 11.586V3h8.586M14 2H2v12l4-4 7 7 4-4-7-7 4-4z" fill="#4e7ab5"/><path fill="#8bb7f0" d="M27.207 37.5l3.496-3.496-7.032-7.191 3.318-3.117L34 30.707l3.5-3.5V37.5z"/><path d="M26.978 24.392l6.315 6.315.707.707.707-.707L37 28.414V37h-8.586l2.293-2.293.699-.699-.691-.707-6.33-6.472 2.593-2.437M27 23l-4.043 3.798L30 34l-4 4h12V26l-4 4-7-7z" fill="#4e7ab5"/><path fill="#8bb7f0" d="M23.707 13l7-7-3.5-3.5H37.5v10.293l-3.5-3.5-7 7z"/><path d="M37 3v8.586l-2.293-2.293L34 8.586l-.707.707L27 15.586 24.414 13l6.293-6.293.707-.707-.707-.707L28.414 3H37m1-1H26l4 4-7 7 4 4 7-7 4 4V2z" fill="#4e7ab5"/></svg>