<svg xmlns="http://www.w3.org/2000/svg" viewBox="0 0 40 40"><path d="M25.992 23.5l-.457-3.241-.309-.091a7.999 7.999 0 0 1-3.197-1.843l-.228-.214-3.108 1.181-1.49-2.581 2.583-2.087-.07-.305A8.01 8.01 0 0 1 19.5 12.5c0-.605.077-1.234.229-1.869l.074-.312-2.596-2.035 1.489-2.58 3.14 1.151.225-.209a7.941 7.941 0 0 1 3.002-1.766l.283-.09.626-3.29h2.988l.483 3.237.307.09a8.03 8.03 0 0 1 3.174 1.804l.224.207 3.105-1.135 1.5 2.599-2.511 2.176.064.291c.129.581.194 1.164.194 1.731 0 .594-.074 1.209-.22 1.831l-.07.304 2.537 2.073-1.494 2.588-3.105-1.135-.225.207a8.033 8.033 0 0 1-3.173 1.805l-.307.09-.483 3.237h-2.968zm1.508-15c-2.206 0-4 1.794-4 4s1.794 4 4 4 4-1.794 4-4-1.794-4-4-4z" fill="#c2e8ff"/><path d="M28.529 2l.373 2.495.094.632.614.18a7.527 7.527 0 0 1 2.974 1.692l.448.415.574-.21 2.424-.886 1.084 1.877-1.973 1.71-.45.39.128.581c.12.546.181 1.092.181 1.624 0 .556-.069 1.134-.206 1.717l-.142.608.483.395 1.966 1.607-1.071 1.856-2.424-.886-.574-.21-.448.415a7.527 7.527 0 0 1-2.974 1.692l-.614.18-.094.632L28.529 23h-2.103l-.352-2.493-.09-.637-.617-.183a7.521 7.521 0 0 1-2.998-1.728l-.456-.428-.584.222-2.417.918-1.064-1.842 2.007-1.622.488-.394-.142-.611A7.59 7.59 0 0 1 20 12.5c0-.567.072-1.157.215-1.752l.15-.624-.505-.396-2.003-1.569 1.062-1.84 2.456.901.576.211.449-.418a7.45 7.45 0 0 1 2.814-1.656l.567-.181.111-.585L26.386 2h2.143M27.5 17c2.481 0 4.5-2.019 4.5-4.5S29.981 8 27.5 8 23 10.019 23 12.5s2.019 4.5 4.5 4.5m1.891-16h-3.833l-.647 3.405A8.483 8.483 0 0 0 21.72 6.28l-3.246-1.19-1.917 3.32 2.686 2.105A8.489 8.489 0 0 0 19 12.5c0 .665.084 1.31.229 1.931l-2.672 2.159 1.917 3.32 3.213-1.221a8.487 8.487 0 0 0 3.399 1.958L25.558 24h3.833l.5-3.347a8.476 8.476 0 0 0 3.372-1.917l3.213 1.174 1.917-3.32-2.624-2.145A8.6 8.6 0 0 0 36 12.5a8.51 8.51 0 0 0-.205-1.839l2.597-2.251-1.917-3.32-3.213 1.174a8.469 8.469 0 0 0-3.372-1.917L29.391 1zM27.5 16a3.5 3.5 0 1 1 0-7 3.5 3.5 0 0 1 0 7z" fill="#788b9c"/><path d="M10.992 38.5l-.457-3.241-.309-.091a7.999 7.999 0 0 1-3.197-1.843l-.227-.215-3.108 1.181-1.49-2.581 2.583-2.087-.07-.305A7.942 7.942 0 0 1 4.5 27.5c0-.605.077-1.234.229-1.869l.074-.312-2.596-2.035 1.489-2.58 3.14 1.151.225-.209a7.941 7.941 0 0 1 3.002-1.766l.283-.09.626-3.291h2.988l.483 3.237.307.09a8.03 8.03 0 0 1 3.174 1.804l.224.207 3.105-1.135 1.5 2.599-2.511 2.176.064.291c.129.582.194 1.165.194 1.732 0 .594-.074 1.209-.22 1.831l-.07.304 2.537 2.073-1.494 2.588-3.105-1.135-.225.207a8.033 8.033 0 0 1-3.173 1.805l-.307.09-.483 3.237h-2.968zm1.508-15c-2.206 0-4 1.794-4 4s1.794 4 4 4 4-1.794 4-4-1.794-4-4-4z" fill="#dcd5f2"/><path d="M13.529 17l.373 2.495.094.632.614.18a7.527 7.527 0 0 1 2.974 1.692l.448.415.574-.21 2.424-.886 1.084 1.877-1.973 1.71-.45.39.128.581c.12.546.181 1.092.181 1.624 0 .556-.069 1.134-.206 1.717l-.142.608.483.395 1.966 1.607-1.071 1.856-2.424-.886-.574-.21-.448.415a7.527 7.527 0 0 1-2.974 1.692l-.614.18-.094.632L13.529 38h-2.103l-.352-2.493-.09-.637-.617-.183a7.521 7.521 0 0 1-2.998-1.728l-.456-.428-.584.222-2.417.918-1.062-1.84 2.007-1.622.488-.394-.142-.611A7.51 7.51 0 0 1 5 27.5c0-.567.072-1.157.215-1.752l.15-.624-.505-.396-2.003-1.569 1.062-1.84 2.456.901.576.211.449-.418a7.45 7.45 0 0 1 2.814-1.656l.567-.181.111-.585.494-2.591h2.143M12.5 32c2.481 0 4.5-2.019 4.5-4.5S14.981 23 12.5 23 8 25.019 8 27.5s2.019 4.5 4.5 4.5m1.891-16h-3.833l-.647 3.405A8.483 8.483 0 0 0 6.72 21.28l-3.246-1.19-1.917 3.32 2.686 2.105A8.489 8.489 0 0 0 4 27.5c0 .665.084 1.31.229 1.931L1.557 31.59l1.917 3.32 3.213-1.221a8.487 8.487 0 0 0 3.399 1.958L10.558 39h3.833l.5-3.347a8.476 8.476 0 0 0 3.372-1.917l3.213 1.174 1.917-3.32-2.624-2.145A8.6 8.6 0 0 0 21 27.5a8.51 8.51 0 0 0-.205-1.839l2.597-2.251-1.917-3.32-3.213 1.174a8.469 8.469 0 0 0-3.372-1.917L14.391 16zM12.5 31a3.5 3.5 0 1 1 0-7 3.5 3.5 0 0 1 0 7z" fill="#8b75a1"/></svg>