<svg xmlns="http://www.w3.org/2000/svg" viewBox="0 0 40 40"><path fill="#8BB7F0" d="M6.5 1.5h26v3h-26z"/><path fill="#4E7AB5" d="M32 2v2H7V2h25m1-1H6v4h27V1z"/><path fill="#8BB7F0" d="M6.5 34.5h26v3h-26z"/><path fill="#4E7AB5" d="M32 35v2H7v-2h25m1-1H6v4h27v-4z"/><circle fill="#66798F" cx="32.5" cy="8.5" r=".5"/><circle fill="#66798F" cx="32.5" cy="10.5" r=".5"/><circle fill="#66798F" cx="32.5" cy="12.5" r=".5"/><circle fill="#66798F" cx="32.5" cy="14.5" r=".5"/><circle fill="#66798F" cx="32.5" cy="16.5" r=".5"/><circle fill="#66798F" cx="32.5" cy="18.5" r=".5"/><circle fill="#66798F" cx="32.5" cy="20.5" r=".5"/><circle fill="#66798F" cx="32.5" cy="22.5" r=".5"/><circle fill="#66798F" cx="32.5" cy="24.5" r=".5"/><circle fill="#66798F" cx="32.5" cy="26.5" r=".5"/><circle fill="#66798F" cx="32.5" cy="28.5" r=".5"/><circle fill="#66798F" cx="32.5" cy="30.5" r=".5"/><circle fill="#66798F" cx="32.5" cy="32.5" r=".5"/><circle fill="#66798F" cx="6.5" cy="8.5" r=".5"/><circle fill="#66798F" cx="32.5" cy="6.5" r=".5"/><circle fill="#66798F" cx="6.5" cy="6.5" r=".5"/><circle fill="#66798F" cx="6.5" cy="10.5" r=".5"/><circle fill="#66798F" cx="6.5" cy="12.5" r=".5"/><circle fill="#66798F" cx="6.5" cy="14.5" r=".5"/><circle fill="#66798F" cx="6.5" cy="16.5" r=".5"/><circle fill="#66798F" cx="6.5" cy="18.5" r=".5"/><circle fill="#66798F" cx="6.5" cy="20.5" r=".5"/><circle fill="#66798F" cx="6.5" cy="22.5" r=".5"/><circle fill="#66798F" cx="6.5" cy="24.5" r=".5"/><circle fill="#66798F" cx="6.5" cy="26.5" r=".5"/><circle fill="#66798F" cx="6.5" cy="28.5" r=".5"/><circle fill="#66798F" cx="6.5" cy="30.5" r=".5"/><circle fill="#66798F" cx="6.5" cy="32.5" r=".5"/><path fill="#66798F" d="M21 20v-8h5l-6.5-7-6.5 7h5v15h-5l6.5 7 6.5-7h-5z"/></svg>