<svg xmlns="http://www.w3.org/2000/svg" viewBox="0 0 40 40"><path fill="#788b9c" d="M27.879 25.91l1.24.545-1.772 4.03-1.24-.545z"/><path fill="#8bb7f0" d="M17.745 16.374l-3.004-9.673 2.956.738 8.957 12.851z"/><path d="M15.482 7.401l1.912.478 7.833 11.237-7.072-3.108-2.673-8.607M14 6l3.335 10.74 10.746 4.722L18 7l-4-1z" fill="#4e7ab5"/><path d="M35.147 30.494c-.457 0-.906-.095-1.333-.283L4.893 17.107a3.915 3.915 0 0 1-2.247-4.413l2.69-10.967L8.51 3.314l.249 6.939 27.035 12.202c1.879.826 2.87 2.704 2.655 5.025a3.301 3.301 0 0 1-3.302 3.014c.001 0 .001 0 0 0z" fill="#c2e8ff"/><path d="M5.673 2.454l2.349 1.175.227 6.333.022.62.566.255 26.761 12.078c1.668.733 2.548 2.422 2.354 4.519a2.804 2.804 0 0 1-2.804 2.559c-.388 0-.769-.081-1.122-.236l-24.08-10.91-4.858-2.2c-1.479-.65-2.301-2.267-1.959-3.822L5.673 2.454M5 1L2.158 12.586a4.402 4.402 0 0 0 2.528 4.976l4.847 2.196 24.08 10.91a3.808 3.808 0 0 0 1.535.326c1.888 0 3.61-1.424 3.799-3.467.22-2.371-.768-4.569-2.947-5.527L9.248 9.926 9 3 5 1z" fill="#7496c4"/><path fill="#8bb7f0" d="M3.097 27.994l12.094-6.217 8.713 3.943-17.845 3.755z"/><path d="M15.205 22.332l7.101 3.213-16.18 3.405-1.924-.962 11.003-5.656m-.028-1.11L1.991 28l4 2 19.512-4.106-10.326-4.672z" fill="#4e7ab5"/><path fill="#788b9c" d="M1 38h38v.954H1z"/><ellipse transform="rotate(-66.278 27.5 30.5)" cx="27.5" cy="30.5" rx="1.5" ry="1.5" fill="#788b9c"/></svg>