<svg xmlns="http://www.w3.org/2000/svg" width="40" height="40"><path fill="#4788c7" d="M27.879 25.91l1.24.545-1.772 4.03-1.24-.545z"/><path fill="#b6dcfe" d="M17.745 16.374l-3.004-9.673 2.956.738 8.957 12.851z"/><path fill="#4788c7" d="M15.482 7.401l1.912.478 7.833 11.237-7.072-3.108-2.673-8.607M14 6l3.335 10.74 10.746 4.722L18 7l-4-1z"/><path fill="#dff0fe" d="M35.147 30.494c-.457 0-.906-.095-1.333-.283L7.366 18.227l-.249-.12-2.227-1a3.915 3.915 0 01-2.245-4.413l2.69-10.967L8.5 3.309v6.827l27.294 12.319c1.879.826 2.87 2.704 2.655 5.025a3.301 3.301 0 01-3.302 3.014c.001 0 .001 0 0 0z"/><path fill="#4788c7" d="M5.673 2.454L8 3.618v6.842l.589.266 27.009 12.19c1.668.733 2.548 2.422 2.354 4.519a2.804 2.804 0 01-2.804 2.559c-.388 0-.769-.081-1.122-.236L7.827 17.887l-.002-.011-.502-.226-2.235-1.004c-1.479-.65-2.301-2.267-1.959-3.822l2.544-10.37M5 1L2.158 12.586a4.402 4.402 0 002.528 4.976l2.227 1 .001.009 26.699 12.097a3.808 3.808 0 001.535.326c1.888 0 3.61-1.424 3.799-3.467.22-2.371-.768-4.569-2.947-5.527L9 9.814V3L5 1z"/><path fill="#b6dcfe" d="M3.097 27.994l12.094-6.217 8.713 3.943-17.845 3.755z"/><path fill="#4788c7" d="M15.205 22.332l7.101 3.213-16.18 3.405-1.924-.962 11.003-5.656m-.028-1.11L1.991 28l4 2 19.512-4.106-10.326-4.672zM1.5 39h37a.5.5 0 000-1h-37a.5.5 0 000 1zM26.127 29.897a1.5 1.5 0 102.746 1.206 1.5 1.5 0 10-2.746-1.206z"/></svg>