<svg xmlns="http://www.w3.org/2000/svg" viewBox="0 0 48 48"><path d="M7 42h10V32L7 42zM41 6H31v10L41 6zM27.3 8.3c-1.2-.2-2.5-.3-3.7-.3l-.1-4h.5c1.4 0 2.8.1 4.1.4l-.8 3.9zM16.8 9.7L15 6.1c1.4-.7 2.9-1.3 4.4-1.6l.9 3.9c-1.3.3-2.4.8-3.5 1.3z" fill="#2196f3"/><path d="M12.3 40.2C7.1 36.5 4 30.4 4 24c0-5.9 2.6-11.5 7.1-15.3l2.6 3.1C10.1 14.8 8 19.3 8 24c0 5.1 2.5 10 6.6 13l-2.3 3.2zM24 44c-1.3 0-2.7-.1-4-.4l.8-3.9c1.1.2 2.2.3 3.3.3h.5l.1 4H24zm4.7-.6l-.9-3.9c1.2-.3 2.4-.7 3.5-1.3l1.8 3.6c-1.4.7-2.9 1.3-4.4 1.6zm8.2-4.1l-2.6-3.1c3.6-3 5.7-7.5 5.7-12.2 0-5.1-2.5-10-6.7-13l2.3-3.2C40.9 11.5 44 17.6 44 24c0 5.9-2.6 11.5-7.1 15.3z" fill="#2196f3"/></svg>