<svg xmlns="http://www.w3.org/2000/svg" width="40" height="40"><path d="M8.07 10.762L4.734 9.648 1.63 4.477l2.848-2.848 5.171 3.105 1.114 3.336 11.531 11.532-2.691 2.691zm0 0" fill="#b0c1d4"/><path d="M4.555 2.258l4.68 2.808 1.015 3.047.074.227 11.262 11.262-1.984 1.984L8.34 10.324l-.227-.074-3.047-1.016-2.808-4.68 2.297-2.296M4.398 1L1 4.398l3.398 5.668L7.797 11.2 19.602 23 23 19.602 11.2 7.8l-1.134-3.403zm0 0" fill="#66798f"/><path d="M34.535 38.5a3.944 3.944 0 0 1-2.82-1.176L18.707 24.211l5.637-5.582 13.008 13.113a3.945 3.945 0 0 1 1.148 2.813 3.945 3.945 0 0 1-1.176 2.797 3.93 3.93 0 0 1-2.789 1.148zm0 0" fill="#f78f8f"/><path d="M24.34 19.336l12.656 12.758A3.45 3.45 0 0 1 38 34.55a3.432 3.432 0 0 1-1.027 2.445A3.437 3.437 0 0 1 34.535 38a3.438 3.438 0 0 1-2.465-1.027L19.414 24.215l4.926-4.88m.008-1.413L18 24.207l13.36 13.469A4.454 4.454 0 0 0 34.534 39a4.467 4.467 0 0 0 3.172-7.61zm0 0" fill="#c74343"/><path d="M6.434 38.5c-1.325 0-2.57-.52-3.504-1.465A4.88 4.88 0 0 1 1.5 33.54a4.903 4.903 0 0 1 1.465-3.48L20.348 12.8l6.945 7.015L9.906 37.07a4.904 4.904 0 0 1-3.472 1.43zm.066-7a2.004 2.004 0 0 0-2 1.988A2.001 2.001 0 0 0 6.488 35.5c1.11 0 2.008-.895 2.012-1.988A2.001 2.001 0 0 0 6.512 31.5zm0 0" fill="#dcd5f2"/><path d="M20.348 13.508l6.238 6.305L9.555 36.715A4.41 4.41 0 0 1 6.434 38a4.423 4.423 0 0 1-3.153-1.313 4.44 4.44 0 0 1 .035-6.273l17.032-16.906M6.496 36H6.5A2.507 2.507 0 0 0 9 33.512 2.505 2.505 0 0 0 6.5 31 2.507 2.507 0 0 0 4 33.488a2.477 2.477 0 0 0 .723 1.77A2.487 2.487 0 0 0 6.488 36h.008m13.856-23.906L2.609 29.704a5.436 5.436 0 0 0 7.649 7.722L28 19.82zM6.5 35h-.008a1.5 1.5 0 0 1 .008-3h.008a1.5 1.5 0 0 1-.008 3zm0 0" fill="#8b75a1"/><path d="M30.55 20.527c-2.726-.004-5.527-1.254-7.69-3.437-3.891-3.93-4.489-9.672-1.333-12.797 1.688-1.672 4.63-2.793 7.325-2.793 1.066 0 2.046.168 2.914.5l-6.383 6.324 1.605 4.668 4.657 1.653 6.378-6.325c1.274 3.426-.144 8.012-2.382 10.23-1.305 1.294-3.067 1.977-5.09 1.977zm0 0" fill="#dcd5f2"/><path d="M28.852 2c.703 0 1.363.078 1.972.227l-5.566 5.52-.45.444.208.594 1.422 4.145.16.453.453.164 4.129 1.465.593.21.446-.44 5.566-5.516c.723 3.082-.543 6.996-2.496 8.93-1.21 1.199-2.852 1.831-4.738 1.831-2.594 0-5.27-1.199-7.336-3.289-1.82-1.836-2.945-4.125-3.176-6.449-.223-2.242.43-4.246 1.836-5.637C23.48 3.066 26.281 2 28.852 2m0-1c-2.899 0-5.93 1.21-7.676 2.941-3.36 3.325-2.762 9.368 1.328 13.5 2.336 2.36 5.305 3.586 8.047 3.586 2.062 0 4-.695 5.441-2.12 2.551-2.528 4.012-7.821 2.2-11.454l-6.676 6.617-4.133-1.468L25.96 8.46l6.676-6.621c-1.14-.582-2.45-.84-3.785-.84zm0 0" fill="#8b75a1"/><path d="M35.047 35.047l-8.563-8.563" fill="none" stroke="#c74343" stroke-miterlimit="10"/></svg>