<svg xmlns="http://www.w3.org/2000/svg" width="40" height="40"><path d="M14.008 33.477L1.5 37.324V6.367l12.492-3.844 12 4L38.5 2.676v30.957l-12.492 3.844zm0 0" fill="#ffeea3"/><path d="M13.988 3.05l12 4 .305-.093L38 3.355v29.907l-11.988 3.687-12-4-.305.094L2 36.645V6.738l11.988-3.687M39 2L26 6 14 2 1 6v32l13-4 12 4 13-4zm0 0" fill="#ba9b48"/><path d="M26 37l-12-4V3l12 4zm0 0" fill="#fff"/><path d="M26 33.23c-1.563-1.87-7.5-9.367-7.5-15.23 0-4.137 3.363-7.5 7.5-7.5 4.137 0 7.5 3.363 7.5 7.5 0 5.91-5.934 13.367-7.5 15.23zm0 0" fill="#f78f8f"/><path d="M26 11c3.86 0 7 3.14 7 7 0 5.34-5.055 12.059-6.996 14.445C24.059 30.051 19 23.301 19 18c0-3.86 3.14-7 7-7m0-1a8 8 0 0 0-8 8c0 6.988 8 16 8 16s8-8.957 8-16a8 8 0 0 0-8-8zm0 0" fill="#c74343"/><path d="M26 21.5c-1.93 0-3.5-1.57-3.5-3.5s1.57-3.5 3.5-3.5 3.5 1.57 3.5 3.5-1.57 3.5-3.5 3.5zm0 0" fill="#f2faff"/><path d="M26 15a3 3 0 1 1-.002 6.002A3 3 0 0 1 26 15m0-1c-2.207 0-4 1.793-4 4s1.793 4 4 4 4-1.793 4-4-1.793-4-4-4zm0 0" fill="#c74343"/></svg>