<svg xmlns="http://www.w3.org/2000/svg" width="40" height="40"><path d="M14.008 33.477L1.5 37.324V6.367l12.492-3.844 12 4L38.5 2.676v30.957l-12.492 3.844zm0 0" fill="#ffeea3"/><path d="M13.988 3.05l12 4 .305-.093L38 3.355v29.907l-11.988 3.687-12-4-.305.094L2 36.645V6.738l11.988-3.687M39 2L26 6 14 2 1 6v32l13-4 12 4 13-4zm0 0" fill="#ba9b48"/><path d="M26 37l-12-4V3l12 4zm0 0" fill="#fff"/><path d="M8.5 26.5a1.999 1.999 0 1 0 0 4 1.999 1.999 0 1 0 0-4zm0 0" fill="#8bb7f0"/><path d="M8.5 27a1.5 1.5 0 1 1 0 3 1.5 1.5 0 0 1 0-3m0-1A2.497 2.497 0 0 0 6 28.5C6 29.883 7.117 31 8.5 31s2.5-1.117 2.5-2.5S9.883 26 8.5 26zm0 0" fill="#4e7ab5"/><path d="M32.5 25.5a1.999 1.999 0 1 0 0 4 1.999 1.999 0 1 0 0-4zm0 0" fill="#8bb7f0"/><path d="M32.5 26a1.5 1.5 0 1 1 0 3 1.5 1.5 0 0 1 0-3m0-1a2.497 2.497 0 0 0-2.5 2.5c0 1.383 1.117 2.5 2.5 2.5s2.5-1.117 2.5-2.5-1.117-2.5-2.5-2.5zm0 0" fill="#4e7ab5"/><path d="M33 22c-.55 0-1 .45-1 1s.45 1 1 1 1-.45 1-1-.45-1-1-1zm-16-8c-.55 0-1 .45-1 1s.45 1 1 1 1-.45 1-1-.45-1-1-1zm3-3c-.55 0-1 .45-1 1s.45 1 1 1 1-.45 1-1-.45-1-1-1zm4-1c-.55 0-1 .45-1 1s.45 1 1 1 1-.45 1-1-.45-1-1-1zm4 2c-.55 0-1 .45-1 1s.45 1 1 1 1-.45 1-1-.45-1-1-1zm3 3c-.55 0-1 .45-1 1s.45 1 1 1 1-.45 1-1-.45-1-1-1zm2 3c-.55 0-1 .45-1 1s.45 1 1 1 1-.45 1-1-.45-1-1-1zm-5 10c-.55 0-1 .45-1 1s.45 1 1 1 1-.45 1-1-.45-1-1-1zm-4-1c-.55 0-1 .45-1 1s.45 1 1 1 1-.45 1-1-.45-1-1-1zm-3-2c-.55 0-1 .45-1 1s.45 1 1 1 1-.45 1-1-.45-1-1-1zm-4 0c-.55 0-1 .45-1 1s.45 1 1 1 1-.45 1-1-.45-1-1-1zm-4 1c-.55 0-1 .45-1 1s.45 1 1 1 1-.45 1-1-.45-1-1-1zM8 13c-.55 0-1 .45-1 1s.45 1 1 1 1-.45 1-1-.45-1-1-1zm0 0" fill="#704e34"/><path d="M12.5 14.5a1.999 1.999 0 1 0 0 4 1.999 1.999 0 1 0 0-4zm0 0" fill="#8bb7f0"/><path d="M12.5 15a1.5 1.5 0 1 1 0 3 1.5 1.5 0 0 1 0-3m0-1a2.497 2.497 0 0 0-2.5 2.5c0 1.383 1.117 2.5 2.5 2.5s2.5-1.117 2.5-2.5-1.117-2.5-2.5-2.5zm0 0" fill="#4e7ab5"/></svg>