<svg xmlns="http://www.w3.org/2000/svg" viewBox="0 0 40 40"><path fill="#dff0fe" d="M14.006 33.475L1.5 37.323V6.37l12.524-3.835 11.97 3.99L38.5 2.677v30.954l-12.494 3.844z"/><path d="M14.017 3.06l11.667 3.889.304.101.306-.094L38 3.354v29.907L26.012 36.95l-11.696-3.899-.304-.101-.306.094L2 36.646V6.74l12.017-3.68M39 2L26 6 14.062 2.021V2l-.032.01L14 2v.019L1 6v32l13-4 12 4 13-4V2z" fill="#4788c7"/><path d="M26 37l-12-4V3l12 4v30z" fill="#fff"/><circle cx="33" cy="23" r="1" fill="#4788c7"/><circle cx="32" cy="27" r="1" fill="#4788c7"/><circle cx="17" cy="15" r="1" fill="#4788c7"/><circle cx="13" cy="17" r="1" fill="#4788c7"/><circle cx="20" cy="12" r="1" fill="#4788c7"/><circle cx="24" cy="11" r="1" fill="#4788c7"/><circle cx="28" cy="13" r="1" fill="#4788c7"/><circle cx="31" cy="16" r="1" fill="#4788c7"/><circle cx="33" cy="19" r="1" fill="#4788c7"/><circle cx="28" cy="29" r="1" fill="#4788c7"/><circle cx="24" cy="28" r="1" fill="#4788c7"/><circle cx="21" cy="26" r="1" fill="#4788c7"/><circle cx="17" cy="26" r="1" fill="#4788c7"/><circle cx="9" cy="15" r="1" fill="#4788c7"/><path d="M13.586 22.414a1.415 1.415 0 0 0-2 0L10 24l-1.586-1.586a1.415 1.415 0 0 0-2 2L8 26l-1.586 1.586a1.415 1.415 0 0 0 2 2L10 28l1.586 1.586a1.415 1.415 0 0 0 2-2L12 26l1.586-1.586a1.415 1.415 0 0 0 0-2z" fill="#4788c7"/></svg>