<?xml version="1.0" encoding="UTF-8"?>
<svg width="41px" height="29px" viewBox="0 0 41 29" version="1.1" xmlns="http://www.w3.org/2000/svg" xmlns:xlink="http://www.w3.org/1999/xlink">
    <!-- Generator: Sketch 62 (91390) - https://sketch.com -->
    <title>Untitled 3</title>
    <desc>Created with Sketch.</desc>
    <g id="Page-1" stroke="none" stroke-width="1" fill="none" fill-rule="evenodd">
        <g id="monitor" transform="translate(20.500000, 14.500000) scale(-1, 1) translate(-20.500000, -14.500000) " fill-rule="nonzero">
            <polygon id="Path" fill="#C2E8FF" points="0.7 8.5 8.3 10.4 9.9 17.7 3.8 22.7"></polygon>
            <path d="M1.3,9.2 L7.9,10.9 L9.4,17.6 L4.1,21.9 L1.3,9.2 M0,7.8 L3.5,23.6 L10.5,17.9 L8.8,10 L0,7.8 Z" id="Shape" fill="#7496C4"></path>
            <path d="M40,29 L27,29 C25.3,29 24,27.7 24,26 L24,19.3 L26,19.3 L26,26 C26,26.6 26.4,27 27,27 L40,27 L40,29 Z" id="Path" fill="#66798F"></path>
            <circle id="Oval" fill="#B0C1D4" cx="25" cy="18" r="2.5"></circle>
            <path d="M25,16 C26.1,16 27,16.9 27,18 C27,19.1 26.1,20 25,20 C23.9,20 23,19.1 23,18 C23,16.9 23.9,16 25,16 M25,15 C23.3,15 22,16.3 22,18 C22,19.7 23.3,21 25,21 C26.7,21 28,19.7 28,18 C28,16.3 26.7,15 25,15 Z" id="Shape" fill="#66798F"></path>
            <path d="M11.1,21.4 C10.7,21.4 10.4,21.1 10.3,20.7 L7.3,7.6 C7.3,7.4 7.3,7.2 7.4,7 C7.5,6.8 7.7,6.7 7.9,6.6 L35.5,0.5 L35.7,0.5 C36.1,0.5 36.4,0.8 36.5,1.2 L39.4,14.3 C39.5,14.8 39.2,15.2 38.8,15.3 L11.2,21.4 L11.1,21.4 Z" id="Path" fill="#C2E8FF"></path>
            <path d="M35.8,1 C35.9,1 36.1,1.1 36.1,1.3 L39,14.4 C39,14.6 38.9,14.8 38.7,14.8 L11.1,20.9 L11,20.9 C10.9,20.9 10.7,20.8 10.7,20.6 L7.8,7.5 C7.8,7.3 7.9,7.1 8.1,7.1 L35.8,1 C35.7,1 35.7,1 35.8,1 M35.8,0 L35.5,0 L7.9,6.1 C7.2,6.3 6.7,7 6.9,7.7 L9.8,20.8 C9.9,21.4 10.5,21.9 11.1,21.9 L11.4,21.9 L39,15.8 C39.7,15.6 40.2,14.9 40,14.2 L37.1,1.1 C36.9,0.4 36.4,0 35.8,0 L35.8,0 Z" id="Shape" fill="#7496C4"></path>
            <polygon id="Path" fill="#7496C4" points="24.213 13.303 35.151 10.897 35.366 11.873 24.428 14.28"></polygon>
        </g>
    </g>
</svg>