<svg xmlns="http://www.w3.org/2000/svg" viewBox="0 0 40 40"><path fill="#c2e8ff" d="M.7 14.5l7.6 1.9 1.6 7.3-6.1 5z"/><path d="M1.3 15.2l6.6 1.7 1.5 6.7-5.3 4.3-2.8-12.7M0 13.8l3.5 15.8 7-5.7L8.8 16 0 13.8z" fill="#7496c4"/><path d="M40 35H27c-1.7 0-3-1.3-3-3v-6.7h2V32c0 .6.4 1 1 1h13v2z" fill="#66798f"/><circle cx="25" cy="24" r="2.5" fill="#b0c1d4"/><path d="M25 22c1.1 0 2 .9 2 2s-.9 2-2 2-2-.9-2-2 .9-2 2-2m0-1c-1.7 0-3 1.3-3 3s1.3 3 3 3 3-1.3 3-3-1.3-3-3-3z" fill="#66798f"/><path d="M11.1 27.4c-.4 0-.7-.3-.8-.7l-3-13.1c0-.2 0-.4.1-.6.1-.2.3-.3.5-.4l27.6-6.1h.2c.4 0 .7.3.8.7l2.9 13.1c.1.5-.2.9-.6 1l-27.6 6.1h-.1z" fill="#c2e8ff"/><path d="M35.8 7c.1 0 .3.1.3.3L39 20.4c0 .2-.1.4-.3.4l-27.6 6.1H11c-.1 0-.3-.1-.3-.3L7.8 13.5c0-.2.1-.4.3-.4L35.8 7c-.1 0-.1 0 0 0m0-1h-.3L7.9 12.1c-.7.2-1.2.9-1 1.6l2.9 13.1c.1.6.7 1.1 1.3 1.1h.3L39 21.8c.7-.2 1.2-.9 1-1.6L37.1 7.1c-.2-.7-.7-1.1-1.3-1.1z" fill="#7496c4"/><path fill="#7496c4" d="M24.213 19.303l10.938-2.406.215.976-10.938 2.407z"/></svg>