<svg xmlns="http://www.w3.org/2000/svg" viewBox="0 0 40 40" width="40px" height="40px"><path fill="#fff" d="M1.5 35.5L1.5 8.55 38.5 8.55 38.5 28.739 28.843 35.5z"/><path fill="#788b9c" d="M38,9.05v19.429L28.685,35H2V9.05H38 M39,8.05H1V36h28l10-7V8.05L39,8.05z"/><path fill="#c8d1db" d="M1.5,8.5v-2c0-1.103,0.897-2,2-2h33c1.103,0,2,0.897,2,2v2H1.5z"/><path fill="#66798f" d="M36.5,5C37.327,5,38,5.673,38,6.5V8H2V6.5C2,5.673,2.673,5,3.5,5H36.5 M36.5,4h-33 C2.119,4,1,5.119,1,6.5V9h38V6.5C39,5.119,37.881,4,36.5,4L36.5,4z"/><path fill="none" stroke="#788b9c" stroke-miterlimit="10" d="M7 16.5L10 16.5M13 16.5L33 16.5M7 20.5L10 20.5M13 20.5L33 20.5M7 24.5L10 24.5M7 28.5L10 28.5"/><path fill="#788b9c" d="M21.318 28L13 28 13 29 21.807 29zM24.743 24L13 24 13 25 24.568 25z"/><path fill="#d6e3ed" d="M22.91 35L28 35 28 36 23.292 36zM38 30.425L39 28.778 39 25.898 38 25.34z"/><g><path fill="#ffeea3" d="M29.045 37.318L26.217 37.719 25.724 34.905 23.199 33.566 24.454 31 23.199 28.434 25.724 27.095 26.217 24.281 29.045 24.682 31.098 22.695 33.151 24.682 35.979 24.281 36.473 27.095 38.996 28.434 37.741 31 38.996 33.566 36.473 34.905 35.979 37.719 33.151 37.318 31.098 39.305z"/><path fill="#ba9b48" d="M31.098,23.391l1.53,1.48l0.351,0.34l0.484-0.068l2.107-0.298l0.368,2.096l0.084,0.482l0.432,0.229 l1.88,0.997l-0.935,1.912L37.185,31l0.215,0.439l0.935,1.912l-1.88,0.997l-0.432,0.229l-0.084,0.482l-0.368,2.096l-2.107-0.298 l-0.484-0.068l-0.351,0.34l-1.53,1.48l-1.53-1.48l-0.351-0.34l-0.484,0.068l-2.107,0.298l-0.368-2.096l-0.084-0.481l-0.432-0.229 l-1.88-0.997l0.935-1.912L25.011,31l-0.215-0.439l-0.935-1.912l1.88-0.997l0.432-0.229l0.084-0.481l0.368-2.096l2.107,0.298 l0.484,0.068l0.351-0.34L31.098,23.391 M31.098,22l-2.225,2.152l-3.065-0.434l-0.535,3.049l-2.735,1.451L23.898,31l-1.359,2.781 l2.735,1.451l0.535,3.049l3.065-0.434L31.098,40l2.225-2.152l3.065,0.434l0.535-3.049l2.735-1.451L38.298,31l1.359-2.781 l-2.735-1.451l-0.535-3.049l-3.065,0.434L31.098,22L31.098,22z"/></g></svg>