<svg xmlns="http://www.w3.org/2000/svg" viewBox="0 0 40 40"><path d="M9.5 38.5v-37h29v22.1H34v14.9H9.5z" fill="#fff"/><path fill="#788b9c" d="M32 38H10V2h28v22h1V1H9v38h23z"/><path d="M6 38.5c-2.5 0-4.5-2-4.5-4.5v-3.5h28V34c0 2.3 1.8 4.2 4 4.5H6z" fill="#e1ebf2"/><path d="M29 31v3c0 1.6.8 3.1 2 4H6c-2.2 0-4-1.8-4-4v-3h27m1-1H1v4c0 2.8 2.2 5 5 5h28v-1c-2.2 0-4-1.8-4-4v-4zM20 9h13v1H20zm-5 0h2v1h-2zm5 5h13v1H20zm-5 0h2v1h-2zm5 5h13v1H20zm-5 0h2v1h-2zm5 5h13v1H20zm-5 0h2v1h-2z" fill="#788b9c"/><path d="M25.5 38.5V37c0-2.3 1.2-4.4 3.2-5.6l.7-.4-.7-.4c-2-1.2-3.2-3.3-3.2-5.6v-1.5h13V25c0 2.3-1.2 4.4-3.2 5.6l-.7.4.7.4c2 1.2 3.2 3.3 3.2 5.6v1.5h-13z" fill="#f2faff"/><path d="M38 24v1c0 2.1-1.1 4-2.9 5.1l-1.5.9 1.4.9c1.8 1.1 2.9 3 2.9 5.1v1H26v-1c0-2.1 1.1-4 2.9-5.1l1.4-.9-1.4-.9C27.1 29 26 27.1 26 25v-1h12m1-1H25v2c0 2.6 1.4 4.8 3.4 6-2 1.2-3.4 3.4-3.4 6v2h14v-2c0-2.6-1.4-4.8-3.4-6 2-1.2 3.4-3.4 3.4-6v-2z" fill="#788b9c"/><path fill="#8bb7f0" d="M24.5 22.5h15v2h-15z"/><path d="M39 23v1H25v-1h14m1-1H24v3h16v-3z" fill="#4e7ab5"/><path d="M27 38h10c0-4.3-5-5.7-5-5.7s-5 1.5-5 5.7z" fill="#d98b57"/><path fill="#8bb7f0" d="M24.5 37.5h15v2h-15z"/><path d="M39 38v1H25v-1h14m1-1H24v3h16v-3z" fill="#4e7ab5"/><path d="M27.8 27c.6 1.7 2.3 3 4.2 3s3.6-1.3 4.2-3h-8.4z" fill="#d98b57"/><path fill="#c5d4de" d="M23 24h1v1h-1zm15-3h1v1h-1zM23 38h1v1h-1zm3.7-7h1.7c-.5-.3-.9-.6-1.3-1h-1.4l1 1z"/></svg>