<svg xmlns="http://www.w3.org/2000/svg" viewBox="0 0 40 40"><path fill="#fff" d="M6.5 37.5v-35h18.3l8.7 8.7v26.3z"/><path d="M24.6 3l8.4 8.4V37H7V3h17.6m.4-1H6v36h28V11l-9-9z" fill="#788b9c"/><path d="M23.2 38H34V20.9c-.3-.1-.7-.2-1-.2V37H22.4c.2.4.5.7.8 1z" fill="#c5d4de"/><path fill="#fff" d="M24.5 11.5v-9h.3l8.7 8.7v.3z"/><path d="M25 3.4l7.6 7.6H25V3.4M25 2h-1v10h10v-1l-9-9zM15 16h13v1H15zm0 3h9v1h-9zm0 3h13v1H15zm0 6h13v1H15zm0-3h9v1h-9z" fill="#788b9c"/><path d="M28 23v-1h-2.4c-.5.3-1 .6-1.4 1H28zm0 6v-1h-7.1c-.1.3-.2.7-.2 1H28zm-4-3v-1h-1.6c-.2.3-.4.7-.6 1H24z" fill="#bcc9d6"/><circle cx="31" cy="31" r="8.5" fill="#bae0bd"/><path d="M31 23c4.4 0 8 3.6 8 8s-3.6 8-8 8-8-3.6-8-8 3.6-8 8-8m0-1c-5 0-9 4-9 9s4 9 9 9 9-4 9-9-4-9-9-9z" fill="#5e9c76"/><path fill="#fff" d="M30 26h2v10h-2z"/><path fill="#fff" d="M26 30h10v2H26z"/><circle cx="12.5" cy="16.5" r=".8" fill="#c74343"/><circle cx="12.5" cy="19.5" r=".8" fill="#c74343"/><circle cx="12.5" cy="22.5" r=".8" fill="#c74343"/><circle cx="12.5" cy="25.5" r=".8" fill="#c74343"/><circle cx="12.5" cy="28.5" r=".8" fill="#c74343"/></svg>