<svg xmlns="http://www.w3.org/2000/svg" viewBox="0 0 40 40"><path d="M36.5 34h-33C2.1 34 1 35.1 1 36.5S2.1 39 3.5 39h33c1.4 0 2.5-1.1 2.5-2.5S37.9 34 36.5 34z" fill="#36404d"/><path fill="#fff" d="M4.5 37.5V2.3L6 1.6l2 1 2-1 2 1 2-1 2 1 2-1 2 1 2-1 2 1 2-1 2 1 2-1 2 1 2-1 1.5.7v35.2z"/><path d="M34 2.1l1 .5V37H5V2.6l1-.5 1.6.8.4.2.4-.2 1.6-.8 1.6.8.4.2.4-.2 1.6-.8 1.6.8.4.2.4-.2 1.6-.8 1.6.8.4.2.4-.2 1.6-.8 1.6.8.4.2.4-.2 1.6-.8 1.6.8.4.2.4-.2 1.6-.8 1.6.8.4.2.4-.2 1.6-.8M34 1l-2 1-2-1-2 1-2-1-2 1-2-1-2 1-2-1-2 1-2-1-2 1-2-1-2 1-2-1-2 1v36h32V2l-2-1z" fill="#788b9c"/><path fill="#d6e3ed" d="M5 35h30v3H5z"/><path fill="#788b9c" d="M8 8h15v1H8zm21 0h3v1h-3zM8 12h13v1H8zm21 0h3v1h-3zM8 16h15v1H8zm21 0h3v1h-3zM8 20h13v1H8zm21 0h3v1h-3zm-8 10h11v1H21z"/><circle cx="31.5" cy="25.5" r=".5" fill="#788b9c"/><circle cx="33.5" cy="25.5" r=".5" fill="#788b9c"/><circle cx="29.5" cy="25.5" r=".5" fill="#788b9c"/><circle cx="27.5" cy="25.5" r=".5" fill="#788b9c"/><circle cx="25.5" cy="25.5" r=".5" fill="#788b9c"/><circle cx="23.5" cy="25.5" r=".5" fill="#788b9c"/><circle cx="21.5" cy="25.5" r=".5" fill="#788b9c"/><circle cx="19.5" cy="25.5" r=".5" fill="#788b9c"/><circle cx="17.5" cy="25.5" r=".5" fill="#788b9c"/><circle cx="15.5" cy="25.5" r=".5" fill="#788b9c"/><circle cx="13.5" cy="25.5" r=".5" fill="#788b9c"/><circle cx="11.5" cy="25.5" r=".5" fill="#788b9c"/><circle cx="9.5" cy="25.5" r=".5" fill="#788b9c"/><circle cx="7.5" cy="25.5" r=".5" fill="#788b9c"/></svg>