<svg xmlns="http://www.w3.org/2000/svg" width="48" height="48"><path d="M22 17.992L33.081 6.919l-1.947-1.944-11.082 11.073zm6.918 6.914l11.081-11.073-1.913-1.91-11.082 11.073z" fill="#FFC107"/><path fill="#CFD8DC" d="M15.503 41.978c-1.325 0-2.254-.11-2.368-.125-3.05-.673-4.725-1.865-5.072-3.562-.625-3.057 3.556-6.153 4.034-6.496l1.166 1.625c-1.182.851-3.53 3.062-3.24 4.472.17.828 1.396 1.536 3.453 1.992.04 0 7.589.872 10.27-2.7 3.209-4.274 12.736-4.206 15.867-4.186l.411.002v2l-.426-.002c-9.615-.06-13.065 1.805-14.253 3.387-2.312 3.081-6.991 3.593-9.842 3.593z"/><path fill="#90A4AE" d="M18.442 13.229l-4.559 4.555.619 7.006 5.643 5.68 7.036.603 4.559-4.555z"/><path d="M20.145 30.47l-5.643-5.68-4.437 5.666 4.433 4.43 5.648-4.416zm16.664-6.066l-4.105 4.103-16.253-16.242 4.104-4.101z" fill="#546E7A"/></svg>