<svg xmlns="http://www.w3.org/2000/svg" data-name="Layer 1" viewBox="0 0 64 64"><circle cx="31" cy="31" r="28" fill="#f9e3ae"/><path d="M31 3a28 28 0 1 0 28 28A28 28 0 0 0 31 3zm0 47a19 19 0 1 1 13.1-32.76l.58.58q.33.35.65.71A19 19 0 0 1 31 50z" fill="#f6d397"/><path d="M31 2a29 29 0 1 0 29 29A29 29 0 0 0 31 2zm0 56a27 27 0 1 1 27-27 27 27 0 0 1-27 27z" fill="#8d6c9f"/><path d="M12 31v2a1 1 0 0 0 2 0v-2a1 1 0 0 0-2 0z" fill="#ed7899"/><path d="M48.89 37.49a1 1 0 0 0-1.31.53 18 18 0 0 1-34.32-4.07 17.36 17.36 0 0 1-.21-3.95A18 18 0 0 1 46 21h-5a1 1 0 0 0 0 2h7a1 1 0 0 0 1-1v-7.08a1 1 0 0 0-2 0V19a20 20 0 1 0 2.42 19.8 1 1 0 0 0-.53-1.31z" fill="#8d6c9f"/><path d="M17 31v2a1 1 0 0 0 2 0v-2a1 1 0 0 0-2 0zm5 0v2a1 1 0 0 0 2 0v-2a1 1 0 0 0-2 0zm16 0v2a1 1 0 0 0 2 0v-2a1 1 0 0 0-2 0zm5 0v2a1 1 0 0 0 2 0v-2a1 1 0 0 0-2 0zm6-1a1 1 0 0 0-1 1v2a1 1 0 0 0 2 0v-2a1 1 0 0 0-1-1zm-18 8a1 1 0 0 0 1-1v-1.57l.88-13.35a1.93 1.93 0 0 0-.51-1.46 1.86 1.86 0 0 0-1.07-.56A1 1 0 0 0 31 20a1 1 0 0 0-.23 0 1.88 1.88 0 0 0-1.22.57 1.92 1.92 0 0 0-.51 1.44l.92 14V37A1 1 0 0 0 31 38z" fill="#ed7899"/><circle cx="31.04" cy="42" r="2" fill="#ed7899"/></svg>