<svg xmlns="http://www.w3.org/2000/svg" viewBox="0 0 40 40"><path fill="#b0c1d4" d="M23.609 6.635l7.446-5.068 6.255 2.681-1.417 2.74-4.84-1.904-5.898 4.192z"/><path d="M31.11 2.135l5.509 2.361-.962 1.862-4.168-1.641-.504-.198-.442.314-5.232 3.719-1.034-1.767 6.833-4.65M31 1l-8.058 5.484L25 10l6.122-4.352 5.008 1.971L38 4l-7-3z" fill="#66798f"/><path fill="#b0c1d4" d="M23.609 10.365l1.546-2.641 5.898 4.192 4.84-1.904 1.417 2.74-6.255 2.681z"/><path d="M25.311 8.448l5.232 3.719.442.314.504-.198 4.168-1.641.962 1.862-5.509 2.361-6.833-4.65 1.034-1.767M25 7l-2.058 3.516L31 16l7-3-1.87-3.619-5.008 1.971L25 7z" fill="#66798f"/><path fill="#b0c1d4" d="M11.496 5.5H24.5v6H11.496z"/><path d="M24 6v5H11.996V6H24m1-1H10.996v7H25V5z" fill="#66798f"/><path fill="#b0c1d4" d="M5.89 10.123l5.495-1.812 9.298 22.238-5.496 1.812z"/><path d="M11.102 8.93l8.911 21.313-4.543 1.498-8.911-21.313 4.543-1.498m.566-1.239L5.219 9.817l9.685 23.164 6.448-2.126-9.684-23.164z" fill="#66798f"/><path d="M8 14.5c-3.032 0-5.5-2.468-5.5-5.5S4.968 3.5 8 3.5s5.5 2.468 5.5 5.5-2.468 5.5-5.5 5.5z" fill="#ffeea3"/><path d="M8 4c2.757 0 5 2.243 5 5s-2.243 5-5 5-5-2.243-5-5 2.243-5 5-5m0-1a6 6 0 1 0 0 12A6 6 0 0 0 8 3z" fill="#ba9b48"/><path d="M24 12.5c-.827 0-1.5-.673-1.5-1.5V6c0-.827.673-1.5 1.5-1.5h2.5v8H24z" fill="#ffeea3"/><path d="M26 5v7h-2c-.551 0-1-.449-1-1V6c0-.551.449-1 1-1h2m1-1h-3a2 2 0 0 0-2 2v5a2 2 0 0 0 2 2h3V4z" fill="#ba9b48"/><path d="M7.861 34.5l4.712-8.243a1.51 1.51 0 0 1 1.306-.757h4.819c.538 0 1.038.29 1.305.757l4.713 8.243H7.861z" fill="#ffeea3"/><path d="M18.699 26c.359 0 .693.194.871.505L23.854 34H8.723l4.284-7.495c.179-.311.512-.505.871-.505h4.821m0-1h-4.82c-.719 0-1.383.385-1.739 1.009L7 35h18.577l-5.139-8.991A2.004 2.004 0 0 0 18.699 25z" fill="#ba9b48"/><circle cx="8" cy="9" r="1.5" fill="#b0c1d4"/><path d="M8 8c.551 0 1 .449 1 1s-.449 1-1 1-1-.449-1-1 .449-1 1-1m0-1a2 2 0 1 0-.001 3.999A2 2 0 0 0 8 7z" fill="#66798f"/><circle cx="15.999" cy="30" r="1.5" fill="#b0c1d4"/><path d="M15.999 29c.552 0 1.001.449 1.001 1a1.002 1.002 0 0 1-2.002 0c0-.551.45-1 1.001-1m0-1a2 2 0 1 0-.001 4 2 2 0 0 0 .001-4z" fill="#66798f"/><path d="M5.5 38.5V37c0-1.379 1.121-2.5 2.5-2.5h24c1.379 0 2.5 1.121 2.5 2.5v1.5h-29z" fill="#b0c1d4"/><path d="M32 35c1.103 0 2 .897 2 2v1H6v-1c0-1.103.897-2 2-2h24m0-1H8c-1.65 0-3 1.35-3 3v2h30v-2c0-1.65-1.35-3-3-3z" fill="#66798f"/></svg>