<svg xmlns="http://www.w3.org/2000/svg" viewBox="0 0 40 40"><path fill="#66798f" d="M15.656 8.363l.707-.707 15.98 15.98-.707.708z"/><path fill="#dcd5f2" d="M9.712 10.056l8.273-8.273 5.303 5.303-8.273 8.273z"/><path d="M18 2.4L22.6 7 15 14.6 10.4 10 18 2.4M18 1l-9 9 6 6 9-9-6-6z" fill="#8b75a1"/><path fill="#dcd5f2" d="M24.712 25.056l8.273-8.273 5.303 5.304-8.273 8.273z"/><path d="M33 17.4l4.6 4.6-7.6 7.6-4.6-4.6 7.6-7.6m0-1.4l-9 9 6 6 9-9-6-6z" fill="#8b75a1"/><path fill="#66798f" d="M16.136 23.151l7.212-7.212.707.707-7.212 7.212z"/><path d="M24.2 21.5c-.2 0-.4-.1-.6-.3l-4.9-4.9c-.3-.3-.3-.9 0-1.2l6.4-6.4c.2-.2.4-.3.6-.3s.4.1.6.3l4.9 4.9c.3.3.3.9 0 1.2l-6.4 6.4c-.1.2-.3.3-.6.3z" fill="#a3b7cc"/><path d="M25.8 9c.1 0 .2 0 .3.1L31 14c.1.1.1.2.1.3 0 .1 0 .2-.1.3L24.6 21h-.4c-.1 0-.2 0-.3-.1L19.1 16c-.1-.1-.1-.2-.1-.2 0-.1 0-.2.1-.3l6.4-6.4c.1-.1.2-.1.3-.1m0-1c-.3 0-.7.1-1 .4l-6.4 6.4c-.5.5-.5 1.4 0 1.9l4.9 4.9c.3.3.6.4 1 .4.3 0 .7-.1 1-.4l6.4-6.4c.5-.5.5-1.4 0-1.9l-4.9-4.9c-.3-.3-.7-.4-1-.4z" fill="#66798f"/><path d="M13.8 18.1c.7-.3 2-.9 3.5-.9s2.8.5 3.8 1.6c2.6 2.6 1.4 6 .7 7.3l-8-8z" fill="#e1ebf2"/><path d="M17.3 17.7c1.3 0 2.5.5 3.5 1.5 2.1 2.1 1.5 4.6.9 6.1l-7-7c.7-.3 1.6-.6 2.6-.6m0-1C14.9 16.7 13 18 13 18l9 9s3.1-4.9-.5-8.5c-1.3-1.3-2.8-1.8-4.2-1.8z" fill="#66798f"/><path fill="#8b75a1" d="M13.303 10.283l1.98-1.98 1.414 1.414-1.98 1.98zm3-3l1.98-1.98 1.414 1.414-1.98 1.98zm12 18l1.98-1.98 1.414 1.414-1.98 1.98zm3-3l1.98-1.98 1.414 1.414-1.98 1.98z"/><path d="M17 37C9.3 37 3 30.7 3 23H1c0 8.8 7.2 16 16 16v-2z" fill="#8bb7f0"/><path d="M17 32c-5 0-9-4-9-9H6c0 6.1 4.9 11 11 11v-2z" fill="#8bb7f0"/><path d="M17 27c-2.2 0-4-1.8-4-4h-2c0 3.3 2.7 6 6 6v-2z" fill="#8bb7f0"/></svg>