<svg xmlns="http://www.w3.org/2000/svg" width="40" height="40">
  <path d="M12.316 29.5v-5.785h4.215l.95 4.758a.855.855 0 0 1-.836 1.027zm0 0" fill="#f78f8f" stroke="#c04141" />
  <path d="M33.5 20.5v-5H36c1.379 0 2.5 1.121 2.5 2.5s-1.121 2.5-2.5 2.5zm0 0" fill="#c8d1db" stroke="#66798f" />
  <path d="M12.113 37.5a2.222 2.222 0 0 1-2.203-2.078c-.36-5.438-1.484-9.414-3.34-11.852h7.22c.054 5.399.972 7.059 1.788 8.532.32.574.621 1.117.836 1.859a2.206 2.206 0 0 1-1.43 2.703l-2.164.719a2.2 2.2 0 0 1-.707.117zm0 0" fill="#c8d1db" stroke="#66798f" />
  <path d="M34.246 32.5c-3.855-5.016-9.91-8-16.246-8h-3.5v-13H18c6.336 0 12.39-2.984 16.246-8H35.5v29zm0 0" fill="#fff" stroke="#66798f" />
  <path d="M8 24.5A6.505 6.505 0 0 1 1.5 18c0-3.586 2.914-6.5 6.5-6.5h7.5v13zm0 0" fill="#c8d1db" stroke="#66798f" />
</svg>
