<svg xmlns="http://www.w3.org/2000/svg" viewBox="0 0 40 40"><path d="M4 34.5c-2.3-3.2-3.5-7-3.5-11 0-10.5 8.5-19 19-19s19 8.5 19 19c0 4-1.2 7.8-3.5 11H4z" fill="#fff"/><path d="M19.5 5C29.7 5 38 13.3 38 23.5c0 3.8-1.1 7.4-3.3 10.5H4.3C2.1 30.9 1 27.3 1 23.5 1 13.3 9.3 5 19.5 5m0-1C8.7 4 0 12.7 0 23.5c0 4.3 1.4 8.3 3.8 11.5h31.4c2.4-3.2 3.8-7.2 3.8-11.5C39 12.7 30.3 4 19.5 4z" fill="#4e7ab5"/><path fill="#b6c9d6" d="M15 29h9v2h-9z"/><circle cx="19.5" cy="23.5" r="1" fill="#f78f8f"/><path d="M19.5 23c.3 0 .5.2.5.5s-.2.5-.5.5-.5-.2-.5-.5.2-.5.5-.5m0-1c-.8 0-1.5.7-1.5 1.5s.7 1.5 1.5 1.5 1.5-.7 1.5-1.5-.7-1.5-1.5-1.5z" fill="#c74343"/><path fill="#c74343" d="M18.63 23.662l11.032-11.03.707.706-11.031 11.03z"/><path d="M19.5 5H19v3h1V5h-.5z" fill="#788b9c"/><path d="M35 24h3v-1h-3v1z" fill="#e1ebf2"/><path d="M38 23h-3v1h3v-1z" fill="#788b9c"/><path d="M1 24h3v-1H1v1z" fill="#e1ebf2"/><path d="M4 23H1v1h3v-1z" fill="#788b9c"/><path d="M11.3 10.3l.9-.5-1.5-2.6c-.3.2-.6.3-.9.5l1.5 2.6z" fill="#e1ebf2"/><path d="M10.7 7.2c-.3.2-.6.3-.9.5l1.5 2.6.9-.5-1.5-2.6z" fill="#788b9c"/><path d="M35.2 13.8l-2.6 1.5.5.9 2.6-1.5c-.1-.3-.3-.6-.5-.9z" fill="#e1ebf2"/><path d="M35.2 13.8l-2.6 1.5.5.9 2.6-1.5c-.1-.3-.3-.6-.5-.9z" fill="#788b9c"/><path d="M3.8 33.2l2.6-1.5-.5-.9-2.6 1.5c.1.3.3.6.5.9z" fill="#e1ebf2"/><path d="M5.8 30.8l-2.6 1.5c.2.3.3.6.5.9l2.6-1.5-.5-.9z" fill="#788b9c"/><path d="M29.2 7.8c-.3-.2-.6-.4-.9-.5l-1.5 2.6.9.5 1.5-2.6z" fill="#e1ebf2"/><path d="M28.3 7.2l-1.5 2.6.9.5 1.5-2.6c-.3-.1-.6-.3-.9-.5z" fill="#788b9c"/><path d="M35.7 32.3l-2.6-1.5-.5.9 2.6 1.5c.2-.3.4-.6.5-.9z" fill="#e1ebf2"/><path d="M33.2 30.8l-.5.9 2.6 1.5c.2-.3.3-.6.5-.9l-2.6-1.5z" fill="#788b9c"/><path d="M5.8 16.2l.5-.9-2.6-1.5c-.2.3-.4.6-.5.9l2.6 1.5z" fill="#e1ebf2"/><path d="M3.8 13.8c-.2.3-.4.6-.5.9l2.6 1.5.5-.9-2.6-1.5z" fill="#788b9c"/></svg>