<svg xmlns="http://www.w3.org/2000/svg" viewBox="0 0 40 40"><path fill="#4e7ab5" d="M28.297 10.638l4.031-4.03 2.97 2.97-4.03 4.03zM16 4h7v4h-7z"/><path d="M16 4.5c-.3 0-.5-.2-.5-.5V1c0-.3.2-.5.5-.5h7c.3 0 .5.2.5.5v3c0 .3-.2.5-.5.5h-7z" fill="#8bb7f0"/><path d="M23 1v3h-7V1h7m0-1h-7c-.6 0-1 .4-1 1v3c0 .6.4 1 1 1h7c.6 0 1-.4 1-1V1c0-.6-.4-1-1-1z" fill="#4e7ab5"/><path d="M34.3 11.5c-.1 0-.2 0-.2-.1l-3.5-3.5c-.1-.1-.1-.3 0-.4l1.9-1.9c.1-.1.1-.1.2-.1s.2 0 .2.1L36.4 9c.1.1.1.3 0 .4l-1.9 1.9c-.1.2-.2.2-.2.2z" fill="#8bb7f0"/><path d="M32.7 6.1l3.2 3.2-1.6 1.6-3.2-3.2 1.6-1.6m0-1.1c-.2 0-.4.1-.6.2l-1.9 1.9c-.3.3-.3.8 0 1.1l3.5 3.5c.2.2.4.2.6.2s.4-.1.6-.2l1.9-1.9c.3-.3.3-.8 0-1.1l-3.5-3.5c-.2-.1-.4-.2-.6-.2z" fill="#4e7ab5"/><path d="M19.5 39.5c-8.8 0-16-7.2-16-16s7.2-16 16-16 16 7.2 16 16-7.2 16-16 16z" fill="#8bb7f0"/><path d="M19.5 8C28 8 35 15 35 23.5S28 39 19.5 39 4 32 4 23.5 11 8 19.5 8m0-1C10.4 7 3 14.4 3 23.5S10.4 40 19.5 40 36 32.6 36 23.5 28.6 7 19.5 7z" fill="#4e7ab5"/><path d="M19.5 36.5c-7.2 0-13-5.8-13-13s5.8-13 13-13 13 5.8 13 13-5.8 13-13 13z" fill="#f2faff"/><path d="M19.5 11C26.4 11 32 16.6 32 23.5S26.4 36 19.5 36 7 30.4 7 23.5 12.6 11 19.5 11m0-1C12 10 6 16 6 23.5S12 37 19.5 37 33 31 33 23.5 27 10 19.5 10z" fill="#4e7ab5"/><path d="M19.5 24c-.1 0-.3 0-.4-.1l-5.5-5.5c-.2-.2-.2-.5 0-.7s.5-.2.7 0l5.5 5.5c.2.2.2.5 0 .7 0 .1-.2.1-.3.1z" fill="#66798f"/><circle cx="19.5" cy="23.5" r="1.5" fill="#66798f"/><path d="M20 11h-1v2h1v-2zm-1 25h1v-2h-1v2zM7 24h2v-1H7v1zm23 0h2v-1h-2v1zm-16.2-9.3l.9-.5-1-1.7c-.3.2-.6.3-.9.5l1 1.7zm11.4 17.6l-.9.5 1 1.7c.3-.2.6-.3.9-.5l-1-1.7zm-16.8-3c.2.3.3.6.5.9l1.7-1-.5-.9-1.7 1zm22.2-11.6c-.2-.3-.3-.6-.5-.9l-1.7 1 .5.9 1.7-1zm-20.4 1l.5-.9-1.7-1c-.2.3-.4.6-.5.9l1.7 1zm18.6 9.6l-.5.9 1.7 1c.2-.3.4-.6.5-.9l-1.7-1zm-16 5.8c.3.2.6.3.9.5l1-1.7-.9-.5-1 1.7zm12.5-21.7l-1 1.7.9.5 1-1.7c-.3-.1-.6-.3-.9-.5z" fill="#66798f"/></svg>