<svg xmlns="http://www.w3.org/2000/svg" width="40" height="40"><path fill="#b6dcfe" d="M10.085 8.052l2.985-1.526 13.933 2.932-8.517 3.278z"/><path fill="#4788c7" d="M13.14 7.051l12.104 2.548-6.719 2.586-7.379-4.114 1.994-1.02M13 6L9.024 8.033l9.423 5.254 10.313-3.97L13 6z"/><path fill="#dff0fe" d="M8.696 22.496a3.629 3.629 0 01-3.079-1.694L.702 12.054l3.197-1.459 4.34 4.137 25.398-9.776a4.503 4.503 0 011.654-.334c1.629 0 2.803 1.01 3.501 1.857.627.82.854 2.178.541 3.287-.171.606-.572 1.405-1.514 1.767l-24.994 9.626-2.822 1.093a3.604 3.604 0 01-1.307.244c.001 0 .001 0 0 0z"/><path fill="#4788c7" d="M35.292 5.122c1.433 0 2.485.911 3.093 1.648.549.717.741 1.893.468 2.861-.14.496-.464 1.149-1.213 1.437l-24.996 9.627-2.819 1.092a3.12 3.12 0 01-1.128.21 3.13 3.13 0 01-2.644-1.441l-4.649-8.271L3.8 11.191l3.865 3.684.458.437.591-.227L33.826 5.42a3.977 3.977 0 011.466-.298m0-1c-.585 0-1.198.116-1.834.367L8.355 14.151 4 10l-4 1.825 5.195 9.244a4.144 4.144 0 004.989 1.649l2.821-1.092L38 12c2.288-.881 2.458-4.167 1.179-5.838-1.03-1.25-2.362-2.04-3.887-2.04z"/><path fill="#b6dcfe" d="M20.139 18.342l8.504-3.273-7.995 14.533-3.91 1.564z"/><path fill="#4788c7" d="M27.545 16.027l-7.248 13.177-2.82 1.128 3.079-11.615 6.989-2.69m2.195-1.916l-10.02 3.857L16 32l5-2 8.74-15.889zM1.5 36h37a.5.5 0 000-1h-37a.5.5 0 000 1z"/></svg>