<svg xmlns="http://www.w3.org/2000/svg" width="40" height="40"><path fill="#dff0fe" d="M1.5 16.5h37v7h-37z"/><path fill="#4788c7" d="M38 17v6H2v-6h36m1-1H1v8h38v-8z"/><path fill="#98ccfd" d="M1.5 16.5h31v7h-31z"/><path fill="#4788c7" d="M32 17v6H2v-6h30m1-1H1v8h32v-8z"/><path fill="#dff0fe" d="M1.5 4.5h37v7h-37z"/><path fill="#4788c7" d="M38 5v6H2V5h36m1-1H1v8h38V4z"/><path fill="#98ccfd" d="M1.5 4.5h12v7h-12z"/><path fill="#4788c7" d="M13 5v6H2V5h11m1-1H1v8h13V4z"/><path fill="#dff0fe" d="M1.5 28.5h37v7h-37z"/><path fill="#4788c7" d="M38 29v6H2v-6h36m1-1H1v8h38v-8z"/><g><path fill="#98ccfd" d="M1.5 28.5h21v7h-21z"/><path fill="#4788c7" d="M22 29v6H2v-6h20m1-1H1v8h22v-8z"/></g></svg>