<svg xmlns="http://www.w3.org/2000/svg" viewBox="0 0 40 40"><path fill="#dbf2ff" d="M1.5 16.5h37v7h-37z"/><path d="M38 17v6H2v-6h36m1-1H1v8h38v-8z" fill="#4e7ab5"/><path fill="#8bb7f0" d="M1.5 16.5h31v7h-31z"/><path d="M32 17v6H2v-6h30m1-1H1v8h32v-8z" fill="#4e7ab5"/><path fill="#dbf2ff" d="M1.5 4.5h37v7h-37z"/><path d="M38 5v6H2V5h36m1-1H1v8h38V4z" fill="#4e7ab5"/><path fill="#8bb7f0" d="M1.5 4.5h12v7h-12z"/><path d="M13 5v6H2V5h11m1-1H1v8h13V4z" fill="#4e7ab5"/><path fill="#dbf2ff" d="M1.5 28.5h37v7h-37z"/><path d="M38 29v6H2v-6h36m1-1H1v8h38v-8z" fill="#4e7ab5"/><path fill="#8bb7f0" d="M1.5 28.5h21v7h-21z"/><path d="M22 29v6H2v-6h20m1-1H1v8h22v-8z" fill="#4e7ab5"/></svg>