<svg xmlns="http://www.w3.org/2000/svg" width="40" height="40"><path d="M20 38.5C9.8 38.5 1.5 30.2 1.5 20S9.8 1.5 20 1.5 38.5 9.8 38.5 20 30.2 38.5 20 38.5zm0 0" fill="#8bb7f0"/><path d="M20 2c9.926 0 18 8.074 18 18s-8.074 18-18 18S2 29.926 2 20 10.074 2 20 2m0-1C9.508 1 1 9.508 1 20s8.508 19 19 19 19-8.508 19-19S30.492 1 20 1zm0 0" fill="#4e7ab5"/><path d="M20 35.5c-8.547 0-15.5-6.953-15.5-15.5S11.453 4.5 20 4.5 35.5 11.453 35.5 20 28.547 35.5 20 35.5zm0 0" fill="#fff"/><path d="M20 5c8.27 0 15 6.73 15 15s-6.73 15-15 15S5 28.27 5 20 11.73 5 20 5m0-1C11.164 4 4 11.164 4 20s7.164 16 16 16 16-7.164 16-16S28.836 4 20 4zm0 0" fill="#4e7ab5"/><path d="M20 20V5c-3.84 0-7.68 1.465-10.605 4.395zm0 0" fill="#ffc49c"/><path d="M10.5 10.5L20 20l-5.43 6.785" fill="none" stroke-width="2" stroke-linecap="round" stroke="#66798f" stroke-miterlimit="10"/><path d="M20 18a1.999 1.999 0 1 0 0 4 1.999 1.999 0 1 0 0-4zm0 0" fill="#66798f"/></svg>