<svg xmlns="http://www.w3.org/2000/svg" width="40" height="40"><path d="M12.316 29.5v-5.785h4.215l.95 4.758a.855.855 0 0 1-.836 1.027zm0 0" fill="#f78f8f"/><path d="M16.121 24.215l.871 4.36a.325.325 0 0 1-.074.292.346.346 0 0 1-.277.133h-3.825v-4.785h3.305m.82-1h-5.125V30h4.829c.855 0 1.496-.785 1.328-1.621zm0 0" fill="#c74343"/><path d="M33.5 20.5v-5H36c1.379 0 2.5 1.121 2.5 2.5s-1.121 2.5-2.5 2.5zm0 0" fill="#8bb7f0"/><path d="M36 16c1.102 0 2 .898 2 2 0 1.102-.898 2-2 2h-2v-4h2m0-1h-3v6h3a3 3 0 0 0 0-6zm0 0" fill="#4e7ab5"/><path d="M12.113 37.5a2.222 2.222 0 0 1-2.203-2.078c-.36-5.438-1.484-9.414-3.34-11.852h7.22c.054 5.399.972 7.059 1.788 8.532.32.574.621 1.117.836 1.859a2.206 2.206 0 0 1-1.43 2.703l-2.164.719a2.2 2.2 0 0 1-.707.117zm0 0" fill="#8bb7f0"/><path d="M13.297 24.07c.105 5.133 1.023 6.797 1.844 8.274.32.574.593 1.07.793 1.758a1.7 1.7 0 0 1-1.11 2.086l-2.164.722c-.18.059-.363.09-.547.09a1.719 1.719 0 0 1-1.703-1.61c-.332-4.98-1.3-8.773-2.887-11.32h5.774m.988-1H5.477c2.761 2.762 3.648 8.078 3.933 12.387A2.72 2.72 0 0 0 12.113 38c.285 0 .575-.047.864-.14l2.164-.723a2.704 2.704 0 0 0 1.754-3.313c-.801-2.761-2.61-2.785-2.61-10.754zm0 0" fill="#4e7ab5"/><path d="M34.246 32.5c-3.855-5.016-9.91-8-16.246-8h-3.5v-13H18c6.336 0 12.39-2.984 16.246-8H35.5v29zm0 0" fill="#c2e8ff"/><path d="M35 4v28h-.508c-3.96-5.02-10.086-8-16.492-8h-3V12h3c6.406 0 12.531-2.98 16.492-8H35m1-1h-2a20 20 0 0 1-16 8h-4v14h4a20 20 0 0 1 16 8h2zm0 0" fill="#7496c4"/><path d="M8 24.5A6.505 6.505 0 0 1 1.5 18c0-3.586 2.914-6.5 6.5-6.5h7.5v13zm0 0" fill="#8bb7f0"/><path d="M15 12v12H8c-3.309 0-6-2.691-6-6s2.691-6 6-6h7m1-1H8c-3.867 0-7 3.133-7 7s3.133 7 7 7h8zm0 0" fill="#4e7ab5"/></svg>