<svg xmlns="http://www.w3.org/2000/svg" viewBox="0 0 40 40"><path fill="#dff0fe" d="M26.5 31.5v-18h3v18h4.398L28 38.241 22.102 31.5z"/><path d="M32.796 32L28 37.481 23.204 32H27V14h2v18h3.796M35 31h-5V13h-4v18h-5l7 8 7-8z" fill="#4788c7"/><path fill="#dff0fe" d="M26.5 1.5h3v3h-3z"/><path d="M29 4h-2V2h2v2m1 1V1h-4v4h4z" fill="#4788c7"/><path fill="#dff0fe" d="M26.5 7.5h3v3h-3z"/><path d="M29 10h-2V8h2v2m1 1V7h-4v4h4z" fill="#4788c7"/><path fill="#dff0fe" d="M12 1.759L17.898 8.5H13.5v18h-3v-18H6.102z"/><path d="M16.796 8H13v18h-2V8H7.204L12 2.519 16.796 8M19 9l-7-8-7 8h5v18h4V9h5z" fill="#4788c7"/><path fill="#dff0fe" d="M10.5 35.5h3v3h-3z"/><path d="M13 38h-2v-2h2v2m1 1v-4h-4v4h4z" fill="#4788c7"/><path fill="#dff0fe" d="M10.5 29.5h3v3h-3z"/><path d="M13 32h-2v-2h2v2m1 1v-4h-4v4h4z" fill="#4788c7"/></svg>