<svg height="40" viewBox="0 0 40 40" width="40" xmlns="http://www.w3.org/2000/svg"><path d="m1.5 14.55h31v21.95h-31z" fill="#fff"/><path d="m32 15.05v20.95h-30v-20.95zm1-1h-32v22.95h32z" fill="#788b9c"/><path d="m1.5 14.5v-2c0-1.103.897-2 2-2h27c1.103 0 2 .897 2 2v2z" fill="#c8d1db"/><path d="m30.5 11c.827 0 1.5.673 1.5 1.5v1.5h-30v-1.5c0-.827.673-1.5 1.5-1.5zm0-1h-27c-1.381 0-2.5 1.119-2.5 2.5v2.5h32v-2.5c0-1.381-1.119-2.5-2.5-2.5z" fill="#66798f"/><path d="m7.5 7.55h31v21.95h-31z" fill="#fff"/><path d="m38 8.05v20.95h-30v-20.95zm1-1h-32v22.95h32z" fill="#788b9c"/><path d="m7.5 7.5v-2c0-1.103.897-2 2-2h27c1.103 0 2 .897 2 2v2z" fill="#c8d1db"/><path d="m36.5 4c.827 0 1.5.673 1.5 1.5v1.5h-30v-1.5c0-.827.673-1.5 1.5-1.5zm0-1h-27c-1.381 0-2.5 1.119-2.5 2.5v2.5h32v-2.5c0-1.381-1.119-2.5-2.5-2.5z" fill="#66798f"/><path d="m13 14.5h3m3 0h14m-20 4h3m3 0h14m-20 4h3m3 0h14" fill="none" stroke="#788b9c" stroke-miterlimit="10"/></svg>