<svg xmlns="http://www.w3.org/2000/svg" width="40" height="40"><path fill="#f78f8f" d="M4.035 36.5a2.5 2.5 0 0 1-2.183-1.266 2.552 2.552 0 0 1-.008-2.57L17.809 4.777A2.499 2.499 0 0 1 20 3.5a2.5 2.5 0 0 1 2.191 1.277l15.965 27.887c.461.805.457 1.77-.008 2.57a2.505 2.505 0 0 1-2.183 1.266zm0 0"/><path fill="#c74343" d="M20 4c.734 0 1.39.383 1.758 1.023L37.723 32.91a2.053 2.053 0 0 1-.008 2.074A2.004 2.004 0 0 1 35.965 36H4.035a2.004 2.004 0 0 1-1.75-1.016 2.053 2.053 0 0 1-.008-2.074L18.242 5.023A2.006 2.006 0 0 1 20 4m0-1a3 3 0 0 0-2.625 1.527L1.41 32.414C.242 34.454 1.703 37 4.035 37h31.93c2.332 0 3.793-2.547 2.625-4.586L22.625 4.527A3 3 0 0 0 20 3zm0 0"/><path fill="#fff" d="M5.148 33.5L20 6.977 34.852 33.5zm0 0"/><path fill="#c74343" d="M20 8l14 25H6L20 8m0-2.047l-.871 1.559-14 25L4.293 34h31.414l-.836-1.488-14-25zm0 0"/><path fill="#36404d" d="M20 27.52c-.938 0-1.695.757-1.695 1.695 0 .937.758 1.695 1.695 1.695.938 0 1.695-.758 1.695-1.695 0-.938-.758-1.695-1.695-1.695zm-1.355-14.59h2.71v12.215h-2.71zm0 0"/></svg>