<svg xmlns="http://www.w3.org/2000/svg" viewBox="0 0 48 48"><defs><linearGradient id="a" x1="4.191" x2="47.32" y1="11.113" y2="56.052" gradientUnits="userSpaceOnUse"><stop offset="0" stop-color="#d4d4d4"/><stop offset=".398" stop-color="#e2e2e2"/><stop offset="1" stop-color="#fff"/></linearGradient></defs><path fill="#c00" stroke="#9f0000" stroke-width=".638" d="M33.283 38.645l-10.875-20.25c-.313-.563-.875-.875-1.5-.875s-1.188.375-1.5.937L8.783 38.707c-.25.5-.25 1.188.062 1.688s.813.75 1.438.75h21.5c.625 0 1.187-.313 1.437-.813.313-.5.313-1.125.063-1.687z" transform="matrix(1.5667 0 -.00656 1.5667 -8.62 -21.948)"/><path fill="url(#a)" stroke="#000" d="M9.5 37.6c-.3.5 0 .9.5.9h28.2c.5 0 .8-.4.5-.9L24.4 11c-.3-.5-.7-.5-.9 0l-14 26.6z" transform="matrix(.97919 0 -.00416 .99368 .626 .745)"/><path stroke="#000" d="M23.9 36.5c-1.3 0-2.3-1-2.3-2.3 0-1.4.9-2.3 2.3-2.3s2.2.9 2.3 2.3c0 1.3-.9 2.3-2.3 2.3zm-1.4-5.9l-.6-11.5h4l-.6 11.5h-2.9.1z" transform="matrix(.86966 0 0 .8696 3.216 3.942)"/></svg>